<svg width="312" height="164" viewBox="0 0 312 164" fill="none" xmlns="http://www.w3.org/2000/svg">
<path d="M304.106 120.236L297.984 120.367L294.876 120.418C293.835 120.441 292.79 120.418 291.749 120.446H291.544V120.236L291.516 115V114.767H291.749L297.928 114.795C299.99 114.795 302.048 114.846 304.106 114.869H304.237V115C304.237 115.887 304.2 116.769 304.176 117.641L304.106 120.236ZM304.106 120.236L304.041 117.599C304.018 116.731 303.99 115.873 303.98 115.014L304.106 115.145C302.048 115.168 299.99 115.219 297.928 115.219L291.749 115.247L291.982 115.014V120.236L291.772 120.031C292.79 120.031 293.807 120.031 294.829 120.054L297.867 120.133L304.106 120.236Z" fill="#EBEBEB"/>
<path d="M297.214 126.821L291.091 126.951L287.978 127.003C286.942 127.003 285.897 127.003 284.856 127.031H284.651V126.821V121.599V121.365H284.884L291.063 121.398C293.121 121.398 295.184 121.449 297.242 121.473H297.372V121.599C297.372 122.485 297.335 123.367 297.312 124.24L297.214 126.821ZM297.214 126.821L297.148 124.184C297.125 123.316 297.097 122.457 297.088 121.599L297.214 121.729C295.156 121.753 293.093 121.804 291.035 121.804L284.856 121.832L285.09 121.599V126.821L284.88 126.615C285.897 126.615 286.914 126.615 287.936 126.639L291.002 126.695L297.214 126.821Z" fill="#EBEBEB"/>
<path d="M310.999 126.821L304.876 126.951L301.768 127.003C300.728 127.003 299.682 127.003 298.642 127.031H298.436V126.821L298.408 121.599V121.365H298.642L304.82 121.398C306.883 121.398 308.941 121.449 310.999 121.473H311.13V121.599C311.13 122.485 311.088 123.367 311.069 124.24L310.999 126.821ZM310.999 126.821L310.934 124.184C310.934 123.316 310.882 122.457 310.873 121.599L310.999 121.729C308.941 121.753 306.883 121.804 304.82 121.804L298.642 121.832L298.875 121.599V126.821L298.665 126.615C299.687 126.615 300.7 126.615 301.722 126.639L304.792 126.695L310.999 126.821Z" fill="#EBEBEB"/>
<path d="M127.902 58.0995L121.78 58.2302L118.672 58.2815C117.631 58.2815 116.586 58.2815 115.545 58.2815H115.34V58.0715L115.312 52.8495V52.6162H115.545L121.724 52.6442C123.786 52.6442 125.844 52.6955 127.902 52.7189H128.033V52.8449C128.033 53.7315 127.991 54.6089 127.968 55.4815L127.902 58.0995ZM127.902 58.0995L127.837 55.4582C127.837 54.5902 127.786 53.7315 127.776 52.8775L127.902 53.0035C125.844 53.0035 123.786 53.0782 121.724 53.0782L115.545 53.1109L115.778 52.8775L115.755 58.0995L115.545 57.8895C116.562 57.8895 117.58 57.8895 118.602 57.9175L121.672 57.9689L127.902 58.0995Z" fill="#EBEBEB"/>
<path d="M121 64.6841L114.878 64.8147L111.765 64.8661C110.729 64.8661 109.684 64.8661 108.643 64.8894H108.438V64.6794L108.4 59.4667V59.2334H108.634L114.812 59.2614C116.87 59.2614 118.933 59.3127 120.991 59.3361H121.122V59.4667C121.122 60.3534 121.084 61.2307 121.061 62.1034L121 64.6841ZM121 64.6841L120.935 62.0427C120.912 61.1747 120.884 60.3161 120.874 59.4621L121 59.5881C118.942 59.6114 116.88 59.6627 114.822 59.6627L108.643 59.6954L108.876 59.4621L108.867 64.6841L108.657 64.4741C109.674 64.4741 110.692 64.4741 111.714 64.5021L114.78 64.5534L121 64.6841Z" fill="#EBEBEB"/>
<path d="M134.795 64.6841L128.672 64.8147L125.564 64.8661C124.523 64.8661 123.483 64.8661 122.437 64.8894H122.232V64.6794L122.204 59.4667V59.2334H122.437L128.616 59.2614C130.679 59.2614 132.737 59.3127 134.795 59.3361H134.925V59.4667C134.925 60.3534 134.883 61.2307 134.865 62.1034L134.795 64.6841ZM134.795 64.6841L134.729 62.0427C134.729 61.1747 134.678 60.3161 134.669 59.4621L134.795 59.5881C132.737 59.6114 130.679 59.6627 128.616 59.6627L122.437 59.6954L122.671 59.4621L122.647 64.6841L122.437 64.4741C123.459 64.4741 124.472 64.4741 125.494 64.5021L128.565 64.5534L134.795 64.6841Z" fill="#EBEBEB"/>
<path d="M27.1441 92.6514L21.0214 92.7821L17.9088 92.8334C16.8728 92.8334 15.8274 92.8334 14.7868 92.8567H14.6001V92.6467V87.4247V87.1914H14.8334L21.0121 87.2194C23.0701 87.2194 25.1328 87.2707 27.1908 87.2941H27.3214V87.4201C27.3214 88.3067 27.2841 89.1841 27.2608 90.0567L27.1441 92.6514ZM27.1441 92.6514L27.0788 90.0101C27.0788 89.1421 27.0274 88.2834 27.0181 87.4294L27.1441 87.5554C25.0861 87.5787 23.0234 87.6301 20.9654 87.6301L14.7868 87.6627L15.0201 87.4294L14.9968 92.6514L14.7868 92.4414C15.8041 92.4414 16.8214 92.4414 17.8434 92.4694L20.9094 92.5207L27.1441 92.6514Z" fill="#EBEBEB"/>
<path d="M232.001 58.0948L225.879 58.2254L222.771 58.2768C221.73 58.3001 220.685 58.2768 219.644 58.3001H219.439V58.0901L219.411 52.8681V52.6348H219.644L225.823 52.6628C227.885 52.6628 229.943 52.7188 232.001 52.7421H232.132V52.8681C232.132 53.7548 232.095 54.6368 232.071 55.5048L232.001 58.0948ZM232.001 58.0948L231.936 55.4581C231.913 54.5854 231.885 53.7268 231.875 52.8728L232.001 52.9988C229.943 53.0221 227.885 53.0734 225.823 53.0781L219.644 53.1061L219.877 52.8728L219.854 58.0948L219.644 57.8848C220.661 57.8848 221.679 57.8848 222.701 57.9128L225.771 57.9641L232.001 58.0948Z" fill="#EBEBEB"/>
<path d="M303.392 7.37721L297.27 7.50788L294.157 7.55921C293.121 7.55921 292.076 7.55921 291.035 7.58721H290.83V7.37721V2.15521V1.92188H291.063L297.242 1.94988C299.3 1.94988 301.362 2.00587 303.42 2.02921H303.551V2.15521C303.551 3.04187 303.514 3.92388 303.49 4.79188L303.392 7.37721ZM303.392 7.37721L303.327 4.74054C303.304 3.86788 303.276 3.00921 303.266 2.15521L303.392 2.28121C301.334 2.28121 299.272 2.35588 297.214 2.36054L291.035 2.38854L291.268 2.15521L291.245 7.37721L291.035 7.16721C292.052 7.16721 293.07 7.16721 294.092 7.19521L297.158 7.24654L303.392 7.37721Z" fill="#EBEBEB"/>
<path d="M310.285 13.962L304.162 14.0926L301.054 14.144C300.014 14.1673 298.968 14.144 297.928 14.1673H297.722V13.9573L297.694 8.73529V8.50195H297.928L304.106 8.52995C306.169 8.52995 308.227 8.58595 310.285 8.60928H310.416V8.73529C310.416 9.62195 310.374 10.504 310.35 11.372L310.285 13.962ZM310.285 13.962L310.22 11.3253C310.22 10.4526 310.168 9.59395 310.159 8.73995L310.285 8.86595C308.227 8.88929 306.169 8.94062 304.106 8.94529L297.928 8.97329L298.161 8.73995V13.962L297.951 13.752C298.968 13.752 299.986 13.752 301.008 13.78L304.078 13.8313L310.285 13.962Z" fill="#EBEBEB"/>
<path d="M13.3588 7.38209L7.2315 7.51276L4.1235 7.56409C3.0875 7.56409 2.04217 7.56409 1.0015 7.59209H0.791504V7.38209V2.16009V1.92676H1.0295L7.20817 1.95942C9.26617 1.95942 11.3242 2.01076 13.3868 2.03409H13.5128V2.16009C13.5128 3.04676 13.4708 3.92876 13.4522 4.80142L13.3588 7.38209ZM13.3588 7.38209L13.2888 4.74542C13.2888 3.87276 13.2375 3.01409 13.2282 2.16009L13.3588 2.28609C11.2962 2.31409 9.23817 2.36076 7.18017 2.36542L1.0015 2.39342L1.23484 2.16009L1.20684 7.38209L1.0015 7.20009C2.01884 7.20009 3.0315 7.20009 4.0535 7.20009L7.12417 7.25142L13.3588 7.38209Z" fill="#EBEBEB"/>
<path d="M164.717 72.1553C164.145 72.6962 163.434 73.0692 162.664 73.2333C162.197 73.3547 161.679 73.4247 161.185 73.5133H159.495C158.8 73.406 158.095 73.322 157.419 73.1867C154.89 72.6439 152.495 71.6033 150.372 70.1253C144.783 66.4303 140.073 61.5521 136.577 55.836C135.405 53.9498 134.598 51.8602 134.197 49.676C134.095 49.102 134.015 48.5233 133.927 47.9447V46.2553C134.067 45.6067 134.179 44.9487 134.351 44.3093C134.522 43.7093 134.843 43.163 135.285 42.7227C135.369 42.7973 135.443 42.858 135.518 42.9327C138.206 45.6176 140.896 48.3024 143.587 50.9873C143.674 51.0598 143.736 51.1578 143.764 51.2675C143.793 51.3771 143.786 51.493 143.745 51.5987C143.541 52.264 143.513 52.9712 143.666 53.6505C143.818 54.3297 144.145 54.9575 144.613 55.472C146.909 58.0793 149.367 60.5389 151.973 62.836C152.492 63.3077 153.126 63.6355 153.811 63.7869C154.496 63.9383 155.209 63.9082 155.879 63.6993C156.075 63.648 156.215 63.6153 156.383 63.7833C159.13 66.546 161.883 69.3024 164.643 72.0527C164.657 72.0667 164.675 72.1087 164.717 72.1553Z" fill="#EBEBEB"/>
<path d="M170 66.1212V66.6812C169.757 67.032 169.493 67.3685 169.211 67.6892C168.381 68.5525 167.522 69.3879 166.677 70.2326L166.416 70.4799L158.119 62.1872C159.206 61.1139 160.289 60.0172 161.409 58.9485C161.53 58.8359 161.673 58.7487 161.829 58.6922C161.984 58.6358 162.15 58.6112 162.315 58.6199C162.48 58.6286 162.642 58.6704 162.791 58.7429C162.94 58.8154 163.073 58.9171 163.182 59.0419C163.807 59.6485 164.414 60.2692 165.049 60.8805C166.491 62.3272 167.942 63.7645 169.37 65.2205C169.603 65.5038 169.814 65.8049 170 66.1212V66.1212Z" fill="#EBEBEB"/>
<path d="M148.249 46.2972C147.222 47.2912 146.172 48.2619 145.155 49.2232L136.923 40.9959C137.105 40.8325 137.315 40.6599 137.506 40.4732C138.262 39.7219 139.004 38.9519 139.774 38.2146C140.087 37.9401 140.416 37.6846 140.759 37.4492H141.324C141.638 37.6425 141.938 37.8593 142.22 38.0979C144.236 40.0952 146.244 42.1019 148.244 44.1179C149 44.8739 149 45.5552 148.249 46.2972Z" fill="#EBEBEB"/>
<path d="M10.2881 50.875H64.2954V16.6123H10.2881V50.875Z" fill="#EBEBEB"/>
<path d="M74.3987 50.8749H64.2954V40.3516L74.3987 50.8749Z" fill="#EBEBEB"/>
<path d="M58.042 22.5352H16.5366V23.1885H58.042V22.5352Z" fill="white"/>
<path d="M37.9893 26.0537H16.5366V26.707H37.9893V26.0537Z" fill="white"/>
<path d="M50.0993 33.0859H16.5366V33.7393H50.0993V33.0859Z" fill="white"/>
<path d="M58.042 36.5996H16.5366V37.2529H58.042V36.5996Z" fill="white"/>
<path d="M58.042 40.1143H16.5366V40.7676H58.042V40.1143Z" fill="white"/>
<path d="M31.2833 43.6328H16.5366V44.2861H31.2833V43.6328Z" fill="white"/>
<path d="M301.712 64.5576H247.705V94.7743H301.712V64.5576Z" fill="#DBDBDB"/>
<path d="M237.602 94.7792H247.705V84.2559L237.602 94.7792Z" fill="#DBDBDB"/>
<path d="M290.214 80.3359H254.08V80.9893H290.214V80.3359Z" fill="white"/>
<path d="M282.784 83.8545H254.08V84.5078H282.784V83.8545Z" fill="white"/>
<path d="M284.95 73.3037H254.08V73.957H284.95V73.3037Z" fill="white"/>
<path d="M294.386 69.7891H254.08V70.4424H294.386V69.7891Z" fill="white"/>
<path d="M285.762 87.3691H254.08V88.0225H285.762V87.3691Z" fill="white"/>
<path d="M274.426 32.4424H175.255V36.7917H274.426V32.4424Z" fill="#EBEBEB"/>
<path d="M185.162 36.7959H180.813V51.1786H185.162V36.7959Z" fill="#EBEBEB"/>
<path d="M185.162 36.7959H180.813V41.2432H185.162V36.7959Z" fill="#DBDBDB"/>
<path d="M268.868 36.7959H264.519V51.1786H268.868V36.7959Z" fill="#EBEBEB"/>
<path d="M268.868 36.7959H264.519V41.2432H268.868V36.7959Z" fill="#DBDBDB"/>
<path d="M200.749 32.4419V4.72656H193.768V32.4419H200.749Z" fill="#C7C7C7"/>
<path d="M200.749 6.28952V3.24219L193.768 3.24219V6.28952H200.749Z" fill="#DBDBDB"/>
<path d="M200.744 11.3256V10.1963H193.763V11.3256H200.744Z" fill="#DBDBDB"/>
<path d="M201.617 28.811V25.7637H193.767V28.811H201.617Z" fill="#DBDBDB"/>
<path d="M205.625 32.442V0.111328L200.749 0.111328V32.442H205.625Z" fill="#DBDBDB"/>
<path d="M204.631 15.5861V3.14941H201.705V15.5861H204.631Z" fill="#EBEBEB"/>
<path d="M240.312 28.989L217.32 6.25977L213.891 9.72789L236.884 32.4571L240.312 28.989Z" fill="#C7C7C7"/>
<path d="M234.245 24.3409L225.4 15.5977L223.343 17.6785L232.188 26.4218L234.245 24.3409Z" fill="#DBDBDB"/>
<path d="M213.904 32.4513V7.89062L205.621 7.89063V32.4513H213.904Z" fill="#A6A6A6"/>
<path d="M213.904 29.8423V27.5557H205.621V29.8423H213.904Z" fill="#C7C7C7"/>
<path d="M213.904 26.0576V25.1709H205.621V26.0576H213.904Z" fill="#C7C7C7"/>
<path d="M193.768 32.4515V9.37012H188.046V32.4515H193.768Z" fill="#A6A6A6"/>
<path d="M193.768 30.001V27.8496H188.046V30.001H193.768Z" fill="#C7C7C7"/>
<path d="M193.768 16.2763V14.125H188.046V16.2763H193.768Z" fill="#C7C7C7"/>
<path d="M193.768 18.5863V17.751H188.046V18.5863H193.768Z" fill="#C7C7C7"/>
<path d="M264.001 21.6897L263.38 23.337L262.997 24.3404L262.372 25.9924L259.936 32.4464H246.762L244.317 25.9924L243.691 24.3404L243.313 23.337L242.688 21.6897L247.551 14.601L245.031 9.92969H261.672L259.138 14.601L264.001 21.6897Z" fill="#DBDBDB"/>
<path d="M264.001 21.6904L263.38 23.3378H243.313L242.688 21.6904H264.001Z" fill="#A6A6A6"/>
<path d="M262.997 24.3408L262.372 25.9928H244.317L243.691 24.3408H262.997Z" fill="#A6A6A6"/>
<path d="M7.04932 158.228L44.2893 158.116L81.5247 158.074L156 157.999L230.475 158.074L267.711 158.116L304.951 158.228L267.711 158.344L230.475 158.386L156 158.461L81.5247 158.386L44.2893 158.344L7.04932 158.228Z" fill="#263238"/>
<path d="M151.958 158.219H209.2L197.79 91.8262H154.983L151.958 158.219Z" fill="#DBDBDB"/>
<path d="M151.958 158.219H156.98L159.794 91.8262H154.983L151.958 158.219Z" fill="#A6A6A6"/>
<path d="M201.696 104.841C208.173 119.308 223.825 143.318 230.83 137.368C241.307 128.473 248.4 108.799 251.2 100.842C252.773 96.3852 230.069 88.9278 228.679 92.9738C226.7 98.7232 223.597 110.74 221.8 112.443C220.867 113.334 213.428 102.895 207.8 97.9438C199.675 90.8085 199.629 100.221 201.696 104.841Z" fill="#AD6359"/>
<path d="M256.87 94.1455C254.849 98.6908 247.07 106.377 244.485 107.511C241.899 108.645 228.245 96.3108 228.529 93.4082C228.814 90.5055 236.962 75.3015 241.475 72.9682C245.987 70.6348 258.965 89.4322 256.87 94.1455Z" fill="#AD6359"/>
<path d="M229.598 90.2153C229.598 90.2153 229.924 83.7473 228.291 78.278C226.919 73.6813 224.366 67.0126 226.807 66.182C231.828 64.4786 238.194 81.1153 238.194 81.1153C238.194 81.1153 239.827 88.9086 235.006 91.0366C231.982 92.3713 229.598 90.2153 229.598 90.2153Z" fill="#AD6359"/>
<path d="M235.259 77.9476C235.585 80.5656 238.483 78.6802 238.483 78.6802C238.483 78.6802 234.969 82.4136 236.351 84.9662C237.695 87.4349 241.111 85.0316 241.358 84.8636C241.171 85.0642 238.035 88.5642 239.692 91.0002C241.414 93.5296 244.429 90.5336 244.625 90.3376C244.508 90.5756 243.043 93.8002 244.723 95.3682C247.607 98.0516 251.583 89.9129 254.644 89.0029C254.644 89.0029 256.781 94.0102 256.87 94.1362C256.87 94.1362 260.813 86.4642 259.357 82.4042C259.153 81.8111 258.753 81.3053 258.223 80.9701C257.693 80.635 257.064 80.4907 256.441 80.5609C256.441 80.5609 257.985 78.2276 256.744 76.2676C256.1 75.2642 253.944 75.3949 253.944 75.3949C253.944 75.3949 255.101 73.4769 253.888 71.8062C252.922 70.4669 250.892 70.8076 250.892 70.8076C250.892 70.8076 251.149 68.4462 249.721 67.4009C246.818 65.2916 234.554 72.3429 235.259 77.9476Z" fill="#AD6359"/>
<path d="M250.542 70.8211C250.584 70.7978 250.542 70.7371 250.518 70.7511C245.917 72.0858 241.274 74.9511 238.315 78.7638C238.217 78.8898 238.376 79.0998 238.511 78.9831C242.333 75.6464 245.95 73.0004 250.542 70.8211Z" fill="#263238"/>
<path d="M253.972 75.3342C254.023 75.3108 253.972 75.2268 253.93 75.2408C249.193 76.6408 244.055 80.0288 241.157 84.8122C241.059 84.9755 241.134 85.2228 241.265 85.0455C243.43 82.0215 249.828 77.2802 253.972 75.3342Z" fill="#263238"/>
<path d="M244.536 90.7341C247.49 86.2541 251.583 83.1695 256.245 80.6075C256.301 80.5748 256.245 80.4955 256.193 80.5095C253.571 81.1395 250.771 83.0808 248.727 84.7795C246.792 86.3162 245.296 88.3342 244.387 90.6315C244.345 90.7341 244.475 90.8368 244.536 90.7341Z" fill="#263238"/>
<path d="M238.39 78.6748C238.273 78.8241 238.623 78.8288 238.511 78.9828C238.045 79.6268 235.548 83.7568 236.691 85.0495C237.625 86.0808 239.627 85.5581 240.327 85.0495L242.077 83.7848L240.873 85.6001C240.331 86.3955 239.921 87.2733 239.659 88.1995C239.514 88.6212 239.461 89.069 239.502 89.513C239.543 89.9571 239.678 90.3874 239.897 90.7755C240.103 91.1351 240.427 91.4127 240.814 91.5614C241.201 91.7102 241.627 91.721 242.021 91.5921C242.899 91.2901 243.684 90.7679 244.303 90.0755L246.076 88.2088L245.012 90.5421C244.715 91.1877 244.5 91.8682 244.373 92.5675C244.23 93.2248 244.284 93.9096 244.527 94.5368C244.647 94.8129 244.842 95.0503 245.089 95.2225C245.336 95.3947 245.626 95.4949 245.927 95.5121C246.608 95.443 247.256 95.1807 247.793 94.7561C248.972 93.8558 250.078 92.865 251.102 91.7928C251.639 91.2701 252.175 90.7428 252.74 90.2388C253.27 89.7081 253.906 89.2947 254.607 89.0255C253.941 89.3627 253.348 89.8272 252.861 90.3928C252.343 90.9295 251.849 91.4895 251.354 92.0541C250.382 93.2199 249.304 94.2931 248.134 95.2601C247.507 95.7925 246.738 96.1313 245.922 96.2355C245.472 96.2398 245.03 96.1138 244.65 95.8729C244.27 95.632 243.968 95.2863 243.78 94.8775C243.453 94.1076 243.364 93.2578 243.523 92.4368C243.649 91.656 243.876 90.895 244.2 90.1735L244.909 90.6401C244.19 91.47 243.267 92.0974 242.231 92.4601C241.65 92.6459 241.023 92.6228 240.457 92.3948C239.911 92.1553 239.449 91.757 239.132 91.2515C238.854 90.759 238.684 90.2133 238.632 89.6502C238.581 89.0871 238.649 88.5195 238.833 87.9848C239.131 86.9705 239.597 86.0132 240.21 85.1521L240.756 85.6841C239.823 86.2908 237.657 87.1215 236.029 85.7075C234.227 83.5188 237.704 79.3841 238.39 78.6748Z" fill="#263238"/>
<path d="M238.483 78.6794C237.979 78.8807 237.447 79.0049 236.906 79.0481C236.688 79.0705 236.469 79.0343 236.27 78.9432C236.072 78.8521 235.901 78.7095 235.776 78.5301C235.556 78.0983 235.467 77.6118 235.52 77.1301C235.548 76.5981 235.604 76.0427 235.688 75.4688C235.332 75.9377 235.081 76.477 234.95 77.0507C234.86 77.3604 234.833 77.6847 234.869 78.0051C234.905 78.3254 235.004 78.6355 235.16 78.9174C235.364 79.2104 235.652 79.4348 235.986 79.5614C236.308 79.6664 236.652 79.6793 236.98 79.5988C237.565 79.4583 238.091 79.1365 238.483 78.6794V78.6794Z" fill="#263238"/>
<path d="M227.297 93.4082L250.929 109.868C250.929 109.868 236.813 139.114 228.091 139.034C219.369 138.955 206.769 117.05 202.424 107.581C198.079 98.1122 200.669 90.0902 209.461 98.7142C218.253 107.338 221.403 110.894 221.688 110.778C222.22 110.563 227.297 93.4082 227.297 93.4082Z" fill="#44779D"/>
<path d="M250.929 109.867C250.929 109.867 241.129 130.148 232.827 136.887C231.161 138.24 229.56 139.047 228.09 139.029C219.368 138.954 206.768 117.044 202.4 107.58C199.698 101.719 199.675 96.4128 202.13 95.2694C203.646 94.5648 206.096 95.4328 209.442 98.7274C218.309 107.412 221.38 110.903 221.669 110.786C222.22 110.562 227.302 93.4121 227.302 93.4121L250.929 109.867Z" fill="#44779D"/>
<path d="M236.304 133.434C236.015 133.77 235.721 134.096 235.427 134.414C232.767 136.088 229.784 137.181 226.672 137.62C225.814 137.715 224.95 137.749 224.087 137.722L223.55 137.386C224.58 137.449 225.614 137.422 226.639 137.307C227.867 137.173 229.075 136.894 230.237 136.476L231.119 136.187L231.973 135.828C232.258 135.706 232.552 135.604 232.827 135.464L233.653 135.044C234.572 134.567 235.458 134.03 236.304 133.434V133.434ZM218.375 107.669C215.678 108.896 213.218 110.587 211.109 112.667C209.74 114.015 208.475 115.464 207.324 117.002C207.38 117.105 207.441 117.212 207.506 117.315C208.671 115.751 209.955 114.28 211.347 112.914C213.115 111.177 215.129 109.71 217.325 108.56L218.151 108.14C218.302 108.063 218.458 107.995 218.617 107.935L218.375 107.669ZM238.787 109.158C236.545 108.061 234.201 107.19 231.787 106.558C231.535 106.498 231.283 106.437 231.026 106.386C230.863 106.348 230.695 106.311 230.531 106.283C228.491 105.856 226.397 105.748 224.325 105.966C224.021 106.008 223.723 106.054 223.419 106.11C223.387 106.218 223.349 106.33 223.317 106.432C223.662 106.372 224.012 106.32 224.362 106.278C226.286 106.075 228.229 106.155 230.13 106.516L230.639 106.61C230.998 106.684 231.357 106.764 231.717 106.852C234.11 107.469 236.436 108.323 238.661 109.4C241.993 111.035 245.224 112.866 248.339 114.884C248.386 114.804 248.428 114.725 248.465 114.65C245.351 112.629 242.119 110.794 238.787 109.158V109.158ZM241.237 103.119C237.453 103.275 233.767 104.362 230.503 106.283L230.102 106.516C229.278 107.01 228.482 107.549 227.717 108.131C223.718 111.174 220.526 115.084 217.488 119.018C215.967 120.992 214.473 122.98 212.896 124.903C212.784 125.043 212.667 125.178 212.551 125.318L212.728 125.575C212.863 125.416 212.999 125.258 213.129 125.108C214.716 123.181 216.214 121.193 217.74 119.224C220.778 115.304 223.965 111.421 227.923 108.42C228.78 107.766 229.678 107.166 230.611 106.624C230.737 106.544 230.867 106.47 230.998 106.4C232.085 105.79 233.218 105.265 234.386 104.832L235.259 104.514C235.548 104.412 235.851 104.342 236.15 104.253L237.041 104.006L237.975 103.824C239.179 103.552 240.412 103.424 241.647 103.441H241.703L241.237 103.119ZM212.233 101.49C210.603 102.215 208.899 102.761 207.151 103.119L206.241 103.296C205.938 103.352 205.63 103.371 205.308 103.413L204.375 103.52L203.441 103.558C202.589 103.617 201.733 103.601 200.884 103.511L200.968 103.819C204.913 104.107 208.866 103.394 212.462 101.747C212.411 101.658 212.322 101.574 212.233 101.49ZM205.504 95.6943C203.851 96.817 202.138 97.8468 200.371 98.779C200.371 98.905 200.371 99.031 200.371 99.1617C202.256 98.1756 204.079 97.0753 205.831 95.867C205.719 95.8063 205.611 95.7457 205.504 95.6943Z" fill="white"/>
<path d="M245.343 112.611C244.718 112.093 244.088 111.589 243.453 111.085C242.165 110.068 240.877 109.055 239.589 108.047C237.022 106.045 234.4 104.113 231.758 102.214C230.26 101.131 228.786 99.9925 227.241 98.9798C227.234 98.9743 227.225 98.9703 227.216 98.968C227.207 98.9657 227.198 98.9652 227.189 98.9665C227.18 98.9678 227.171 98.9709 227.163 98.9756C227.155 98.9803 227.148 98.9865 227.143 98.9938C227.137 99.0012 227.133 99.0095 227.131 99.0185C227.129 99.0274 227.128 99.0366 227.13 99.0457C227.131 99.0548 227.134 99.0636 227.139 99.0715C227.143 99.0794 227.15 99.0863 227.157 99.0918C228.384 100.174 229.7 101.164 230.974 102.195C232.248 103.226 233.513 104.262 234.806 105.27C237.375 107.268 239.976 109.226 242.608 111.146C243.341 111.687 244.064 112.256 244.825 112.765C245.212 113.026 245.581 113.316 245.973 113.568C246.365 113.82 246.785 114.034 247.168 114.319C247.176 114.324 247.187 114.326 247.196 114.324C247.206 114.322 247.215 114.317 247.221 114.309C247.228 114.301 247.231 114.291 247.23 114.281C247.23 114.271 247.226 114.261 247.219 114.254C246.58 113.717 245.982 113.134 245.343 112.611Z" fill="#263238"/>
<path d="M221.87 110.255C220.968 112.693 220.226 115.187 219.649 117.721C219.341 118.972 219.098 120.237 218.86 121.497C218.608 122.749 218.44 124.016 218.356 125.291C218.356 125.337 218.426 125.337 218.435 125.291C218.827 124.073 219.117 122.803 219.397 121.557C219.677 120.311 219.994 119.056 220.274 117.824C220.839 115.313 221.501 112.826 221.991 110.301C221.994 110.293 221.996 110.285 221.996 110.276C221.995 110.268 221.993 110.259 221.99 110.251C221.987 110.244 221.982 110.237 221.975 110.231C221.969 110.225 221.962 110.22 221.954 110.217C221.946 110.214 221.937 110.213 221.929 110.213C221.92 110.213 221.912 110.215 221.904 110.218C221.896 110.222 221.889 110.227 221.883 110.233C221.878 110.239 221.873 110.247 221.87 110.255V110.255Z" fill="#263238"/>
<path opacity="0.1" d="M232.827 136.887C231.161 138.24 229.56 139.048 228.09 139.029C219.368 138.954 206.768 117.044 202.4 107.58C199.698 101.719 199.675 96.4129 202.13 95.2695L232.827 136.887Z" fill="black"/>
<path d="M219.298 158.218H162.566C161.94 157.07 171.236 107.38 190.37 93.3843C194.616 90.281 202.148 92.2783 204.239 95.2976C214.767 110.469 219.298 158.218 219.298 158.218Z" fill="#44779D"/>
<path d="M216.349 136.159C214.933 135.657 213.545 135.079 212.191 134.428C210.292 133.518 208.458 132.51 206.633 131.446L206.367 131.287C204.5 130.181 202.634 129.01 200.804 127.829L200.543 127.661L199.302 126.858C195.102 124.166 190.967 121.394 186.482 119.238C184.266 118.129 181.912 117.319 179.482 116.83C178.263 116.612 177.022 116.543 175.786 116.624C175.478 116.624 175.175 116.69 174.853 116.732C174.643 116.774 174.433 116.802 174.218 116.844C174.251 116.769 174.279 116.699 174.316 116.624C174.484 116.592 174.657 116.564 174.825 116.526C175.133 116.489 175.446 116.442 175.758 116.419C177.006 116.335 178.26 116.402 179.492 116.62C181.947 117.105 184.326 117.917 186.566 119.032C191.074 121.188 195.237 123.96 199.428 126.644L200.66 127.432L200.926 127.6C202.792 128.8 204.659 129.99 206.596 131.114L206.862 131.273C208.635 132.304 210.441 133.284 212.298 134.166C213.596 134.787 214.925 135.34 216.279 135.823L216.349 136.159ZM211.3 112.466L211.108 112.648C207.51 116.153 204.822 120.428 202.288 124.702C201.753 125.614 201.215 126.524 200.674 127.432C200.632 127.512 200.59 127.586 200.543 127.661C199.857 128.818 199.166 129.971 198.448 131.105C197.818 132.104 197.16 133.088 196.46 134.04C196.394 134.129 196.334 134.218 196.268 134.302C195.56 135.258 194.797 136.173 193.982 137.041C193.133 137.942 192.194 138.755 191.182 139.468L190.804 139.734C190.678 139.822 190.538 139.892 190.407 139.972L189.609 140.438C189.059 140.716 188.492 140.957 187.91 141.162C185.556 141.943 183.092 142.342 180.612 142.342C178.14 142.332 175.677 142.052 173.266 141.507C170.933 141.012 168.67 140.35 166.388 139.687C166.388 139.762 166.35 139.836 166.327 139.906C168.604 140.574 170.891 141.246 173.215 141.745C175.654 142.301 178.147 142.589 180.649 142.604C183.158 142.605 185.65 142.205 188.032 141.418C188.626 141.214 189.206 140.969 189.768 140.686L190.584 140.219C190.723 140.145 190.856 140.064 190.986 139.976L191.373 139.706C192.401 138.986 193.353 138.163 194.215 137.251C195.084 136.321 195.897 135.341 196.651 134.316C196.721 134.227 196.782 134.143 196.842 134.054C197.505 133.149 198.13 132.22 198.709 131.278C199.432 130.144 200.109 128.991 200.809 127.838L200.944 127.61L202.564 124.875C205.102 120.605 207.79 116.368 211.351 112.905L211.412 112.849C211.37 112.714 211.332 112.588 211.3 112.466ZM213.992 123.55C213.633 124.016 213.269 124.455 212.9 124.903C211.355 126.845 209.629 128.636 207.744 130.251C207.37 130.545 206.997 130.839 206.61 131.114L206.367 131.287C205.827 131.668 205.261 132.011 204.673 132.314L204.267 132.533C204.132 132.608 203.982 132.659 203.842 132.724L202.993 133.088C202.414 133.297 201.822 133.467 201.22 133.597C199.773 133.907 198.298 134.063 196.819 134.064H196.46C195.582 134.064 194.705 133.994 193.832 133.9C191.37 133.59 188.949 133.01 186.613 132.169C184.28 131.362 181.979 130.368 179.692 129.369C177.417 128.339 175.079 127.452 172.692 126.714C171.988 126.513 171.292 126.336 170.546 126.205L170.476 126.406C171.204 126.541 171.927 126.714 172.632 126.919C175.004 127.66 177.328 128.549 179.59 129.579C181.876 130.564 184.163 131.562 186.52 132.379C188.876 133.226 191.317 133.815 193.8 134.134C194.621 134.227 195.442 134.288 196.264 134.302C196.385 134.302 196.502 134.302 196.623 134.302C198.19 134.327 199.755 134.18 201.29 133.863C201.903 133.727 202.508 133.554 203.1 133.345L203.968 132.972C204.113 132.906 204.258 132.855 204.398 132.78L204.813 132.556C205.45 132.231 206.062 131.859 206.642 131.441L206.885 131.268C207.24 131.012 207.59 130.741 207.935 130.466C209.839 128.844 211.583 127.044 213.143 125.09C213.454 124.707 213.765 124.32 214.076 123.928C214.048 123.806 214.02 123.676 213.992 123.55ZM208.131 102.9C207.804 102.979 207.478 103.054 207.151 103.119L206.241 103.296C205.938 103.352 205.63 103.371 205.308 103.413L204.374 103.52L203.441 103.558C202.209 103.637 200.971 103.572 199.754 103.362C197.845 103.032 195.996 102.42 194.266 101.546L193.8 101.318C193.473 101.15 193.151 100.972 192.834 100.79C190.697 99.536 188.693 98.0695 186.851 96.4129L186.646 96.6182C188.505 98.2924 190.526 99.7775 192.68 101.052C192.904 101.182 193.146 101.308 193.361 101.43L193.828 101.663C195.673 102.631 197.656 103.309 199.708 103.674C202.552 104.073 205.446 103.915 208.229 103.208C208.21 103.105 208.168 103.002 208.131 102.9ZM204.808 96.1562C202.33 97.8186 199.685 99.2184 196.917 100.333C195.913 100.724 194.886 101.053 193.842 101.318L193.403 101.43C192.19 101.712 190.958 101.903 189.716 102.004L188.783 102.064C188.475 102.088 188.167 102.064 187.85 102.064H186.916L185.983 101.99C184.859 101.925 183.745 101.738 182.66 101.434C182.595 101.523 182.53 101.612 182.469 101.705C186.196 102.641 190.098 102.626 193.818 101.663L194.285 101.546C195.216 101.3 196.132 101.001 197.029 100.65C199.812 99.5282 202.47 98.1207 204.962 96.4503L204.808 96.1562ZM218.766 153.337C218.3 153.337 217.796 153.379 217.31 153.393H217.273L216.988 153.416C214.597 153.667 212.273 154.358 210.133 155.456C208.602 156.255 207.14 157.179 205.76 158.218H206.054C207.371 157.244 208.763 156.376 210.217 155.624C212.375 154.522 214.721 153.836 217.133 153.603H217.306H217.418C217.884 153.603 218.323 153.552 218.771 153.556C218.78 153.472 218.776 153.407 218.766 153.337ZM219.009 155.484C218.502 154.84 217.978 154.206 217.436 153.584C217.385 153.519 217.329 153.458 217.273 153.398L217.082 153.174C215.451 151.273 213.576 149.597 211.505 148.19C210.454 147.504 209.322 146.951 208.136 146.542C207.842 146.444 207.534 146.36 207.235 146.276C206.936 146.192 206.624 146.127 206.302 146.085C205.686 145.968 205.056 145.959 204.435 145.898C201.926 145.807 199.423 146.204 197.066 147.07C194.731 147.957 192.501 149.1 190.416 150.476C186.683 152.88 183.281 155.708 179.646 158.218H179.8C183.416 155.75 186.8 152.973 190.496 150.621C192.573 149.254 194.795 148.123 197.122 147.247C199.456 146.393 201.933 146.001 204.416 146.094C205.028 146.16 205.653 146.169 206.26 146.286C206.568 146.328 206.862 146.416 207.165 146.477C207.468 146.538 207.762 146.64 208.052 146.738C209.221 147.143 210.336 147.692 211.37 148.372C213.423 149.77 215.28 151.437 216.89 153.328C216.918 153.36 216.946 153.388 216.97 153.421L217.133 153.603C217.786 154.364 218.426 155.138 219.042 155.936C219.046 155.787 219.028 155.642 219 155.484H219.009Z" fill="white"/>
<path d="M182.838 99.4746C171.288 112.835 155.72 136.435 162.08 141.652C172.538 150.229 203.082 155.185 210.091 156.016C213.115 156.38 219.172 136.612 217.152 134.055C215.131 131.497 182.838 129.691 182.618 127.708C182.492 126.583 187.397 116.802 190.552 104.804C194.178 90.9719 186.09 95.7086 182.838 99.4746Z" fill="#AD6359"/>
<path d="M211.86 132.426C211.86 132.426 221.128 132.356 227.19 132.594C230.573 132.724 236.35 133.471 238.791 134.708C242.44 136.551 256.524 146.608 254.163 150.075C252.021 153.211 241.017 143.038 241.017 143.038C241.017 143.038 253.029 152.324 249.758 155.638C246.486 158.951 235.58 145.8 235.58 145.8C235.58 145.8 247.714 155.6 243.798 158.494C240.84 160.664 230.293 149.314 230.293 149.314C230.293 149.314 240.658 157.822 237.713 160.188C234.446 162.801 224.063 152.936 224.063 152.936C215.57 157.686 209.596 156.473 205.396 155.106C204.412 154.756 211.86 132.426 211.86 132.426Z" fill="#AD6359"/>
<path d="M237.069 139.561C238.52 140.602 239.995 141.643 241.348 142.828C242.702 144.013 244.013 145.203 245.254 146.491C248.292 149.646 249.702 152.091 249.594 151.951C247.149 148.596 242.37 144.354 241.017 143.187C239.664 142.021 238.371 140.793 237.022 139.631C236.99 139.58 237.036 139.538 237.069 139.561Z" fill="#263238"/>
<path d="M232.776 144.372C234.568 145.772 236.402 147.107 238.133 148.596C239.864 150.084 242.207 152.231 243.826 153.827C243.948 153.948 243.826 154.182 243.696 154.065C242.016 152.534 239.519 150.444 237.82 148.932C236.122 147.42 234.484 145.847 232.738 144.405C232.71 144.4 232.748 144.349 232.776 144.372Z" fill="#263238"/>
<path d="M228.333 147.835C231.184 149.847 233.662 152.381 236.033 154.924C236.154 155.05 236.033 155.069 235.884 154.947C233.368 152.544 231.408 150.64 228.263 147.947C228.226 147.891 228.286 147.793 228.333 147.835Z" fill="#263238"/>
<path d="M210.558 132.132C214.786 132.104 227.204 132.071 231.422 132.398C235.156 132.683 238.231 133.485 241.362 135.557C248.082 140 252.413 145.217 253.496 146.757C254.149 147.691 255.096 149.198 254.233 150.243C253.174 151.513 249.277 150.271 245.166 146.552C245.016 146.417 245.11 146.333 245.264 146.459C251.036 151.125 253.332 150.593 253.934 149.795C254.326 149.277 253.934 148.395 253.598 147.695C253.036 146.705 252.349 145.79 251.554 144.975C248.903 142.138 245.969 139.578 242.8 137.335C239.404 134.8 235.358 133.281 231.133 132.953C226.812 132.599 214.856 132.711 210.539 132.295C210.45 132.267 210.464 132.137 210.558 132.132Z" fill="#263238"/>
<path d="M250.444 153.771C250.206 152.618 249.375 151.564 248.717 150.612C247.918 149.414 247 148.299 245.978 147.284C245.936 147.242 245.857 147.284 245.899 147.35C246.769 148.367 247.578 149.437 248.321 150.551C248.715 151.164 249.074 151.8 249.394 152.455C249.697 153.085 250.057 153.813 249.898 154.532C249.599 155.904 247.854 155.871 246.823 155.502C246.154 155.251 245.511 154.939 244.9 154.569C244.068 154.039 243.278 153.444 242.539 152.791C242.478 152.735 242.31 152.758 242.375 152.819C243.915 154.284 246.832 157.332 249.212 156.216C249.669 156.015 250.041 155.66 250.266 155.214C250.491 154.768 250.553 154.258 250.444 153.771V153.771Z" fill="#263238"/>
<path d="M212 131.227L200.898 156.427C200.898 156.427 162.099 147.667 159.85 140.303C157.601 132.939 169.757 113.237 180.729 100.935C191.518 88.8487 193.114 97.048 190.431 106.395C187.747 115.743 183.347 126.518 183.837 127.325C184.327 128.133 212 131.227 212 131.227Z" fill="#44779D"/>
<path d="M186.333 118.92C186.305 118.99 186.282 119.065 186.254 119.135C184.099 118.075 181.814 117.3 179.459 116.829C178.24 116.612 176.999 116.543 175.763 116.624C175.455 116.624 175.152 116.689 174.83 116.731C174.508 116.773 174.223 116.825 173.924 116.909C173.318 117.039 172.744 117.273 172.151 117.455C169.864 118.325 167.767 119.627 165.972 121.291L166.266 120.782C167.978 119.271 169.948 118.081 172.081 117.268C172.678 117.081 173.262 116.843 173.878 116.713C174.181 116.629 174.494 116.591 174.811 116.526C175.128 116.461 175.432 116.442 175.744 116.419C176.992 116.335 178.246 116.402 179.478 116.619C181.853 117.085 184.158 117.858 186.333 118.92V118.92ZM206.866 131.273L206.6 131.114L205.536 130.484L204.892 130.409C205.359 130.703 205.868 131.002 206.358 131.287L206.624 131.445C208.024 132.262 209.424 133.046 210.861 133.779L210.973 133.522C209.592 132.808 208.224 132.057 206.866 131.273ZM199.292 129.728C199.012 130.195 198.728 130.661 198.438 131.105C197.808 132.103 197.15 133.088 196.45 134.04C196.385 134.129 196.324 134.217 196.259 134.301C195.551 135.258 194.787 136.173 193.972 137.041C193.123 137.942 192.185 138.755 191.172 139.467L190.794 139.733C190.668 139.822 190.528 139.892 190.398 139.971L189.6 140.438C189.05 140.716 188.482 140.957 187.901 141.161C185.547 141.943 183.083 142.342 180.602 142.342C178.134 142.332 175.674 142.051 173.266 141.507C170.835 140.989 168.45 140.284 166.056 139.589C163.933 138.973 161.796 138.352 159.612 137.946C159.612 138.021 159.612 138.095 159.612 138.165C161.772 138.571 163.886 139.197 166 139.808C168.39 140.508 170.784 141.208 173.224 141.745C175.664 142.301 178.157 142.589 180.658 142.603C183.167 142.605 185.659 142.205 188.041 141.418C188.636 141.214 189.216 140.969 189.777 140.685L190.594 140.219C190.732 140.145 190.866 140.064 190.995 139.976L191.382 139.705C192.411 138.986 193.363 138.163 194.224 137.251C195.093 136.321 195.907 135.341 196.66 134.315C196.73 134.227 196.791 134.143 196.852 134.054C197.514 133.149 198.14 132.22 198.718 131.277C199.036 130.783 199.344 130.279 199.652 129.779L199.292 129.728ZM207.188 130.661C206.997 130.811 206.801 130.96 206.6 131.1L206.358 131.273C205.818 131.654 205.252 131.997 204.664 132.299L204.258 132.519C204.122 132.593 203.973 132.645 203.833 132.71L202.984 133.074C202.405 133.283 201.812 133.453 201.21 133.583C199.764 133.892 198.289 134.049 196.81 134.049H196.45C195.573 134.049 194.696 133.979 193.823 133.886C191.36 133.576 188.939 132.995 186.604 132.155C184.27 131.347 181.97 130.353 179.683 129.355C177.407 128.325 175.069 127.438 172.683 126.699C170.289 126.013 167.736 125.64 165.258 126.125C164.47 126.284 163.707 126.549 162.99 126.914C162.944 127.007 162.897 127.105 162.855 127.199C163.622 126.79 164.444 126.494 165.296 126.321C167.732 125.855 170.252 126.219 172.622 126.905C174.995 127.646 177.319 128.534 179.58 129.565C181.867 130.549 184.154 131.548 186.51 132.365C188.869 133.218 191.313 133.811 193.8 134.133C194.621 134.227 195.442 134.287 196.264 134.301C196.385 134.301 196.502 134.301 196.623 134.301C198.19 134.327 199.755 134.18 201.29 133.863C201.903 133.727 202.508 133.554 203.1 133.345L203.968 132.971C204.113 132.906 204.258 132.855 204.398 132.78L204.813 132.556C205.45 132.231 206.062 131.858 206.642 131.441L206.885 131.268C207.128 131.091 207.352 130.904 207.613 130.717L207.188 130.661ZM186.87 96.3894C186.669 96.2121 186.473 96.0394 186.277 95.8574L186.025 96.0207L186.678 96.6041C188.198 97.9646 189.82 99.205 191.532 100.314C191.532 100.197 191.532 100.081 191.532 99.9688C189.894 98.8985 188.339 97.7067 186.879 96.4034L186.87 96.3894ZM189.707 101.989L188.774 102.05C188.466 102.073 188.158 102.05 187.84 102.05H186.907L185.974 101.975C184.74 101.902 183.518 101.686 182.334 101.331C181.816 101.177 181.302 101 180.798 100.795L180.686 100.921L180.579 101.042C181.123 101.27 181.679 101.468 182.245 101.635C185.201 102.424 188.288 102.595 191.312 102.139C191.312 102.022 191.345 101.91 191.364 101.793C190.846 101.896 190.281 101.961 189.716 102.003L189.707 101.989ZM204.435 145.884C201.925 145.797 199.422 146.199 197.066 147.069C194.731 147.957 192.501 149.1 190.416 150.476C189.25 151.232 188.111 152.025 186.986 152.842L187.168 152.893C188.26 152.105 189.366 151.344 190.5 150.621C192.578 149.254 194.8 148.122 197.127 147.247C199.461 146.393 201.938 146.001 204.421 146.094C204.743 146.127 205.065 146.145 205.387 146.173L205.476 145.977C205.144 145.949 204.79 145.931 204.444 145.898L204.435 145.884Z" fill="white"/>
<path d="M196.446 152.26C196.824 151.541 197.188 150.822 197.552 150.099C198.283 148.634 199.011 147.165 199.736 145.694C201.173 142.772 202.536 139.814 203.847 136.827C204.599 135.138 205.415 133.467 206.092 131.745C206.1 131.728 206.101 131.708 206.094 131.69C206.088 131.672 206.074 131.657 206.057 131.649C206.04 131.641 206.02 131.64 206.002 131.647C205.984 131.654 205.969 131.667 205.961 131.684C205.154 133.108 204.454 134.596 203.707 136.057C202.961 137.518 202.2 138.964 201.481 140.439C200.05 143.36 198.663 146.305 197.319 149.273C196.941 150.104 196.53 150.925 196.189 151.774C196.012 152.208 195.807 152.628 195.634 153.067C195.461 153.506 195.331 153.954 195.167 154.388C195.165 154.392 195.164 154.397 195.164 154.402C195.163 154.407 195.164 154.412 195.166 154.417C195.168 154.422 195.17 154.426 195.174 154.43C195.177 154.434 195.181 154.437 195.186 154.439C195.19 154.441 195.195 154.442 195.201 154.443C195.206 154.443 195.211 154.442 195.215 154.44C195.22 154.439 195.225 154.436 195.228 154.432C195.232 154.429 195.235 154.425 195.237 154.42C195.615 153.697 196.059 152.997 196.446 152.26Z" fill="#263238"/>
<path d="M201.733 154.695L200.954 156.459L200.931 156.515H200.856C197.183 155.834 193.534 155.017 189.908 154.107C186.282 153.197 182.684 152.166 179.123 151.018C175.55 149.888 172.046 148.551 168.628 147.014C166.913 146.242 165.257 145.347 163.672 144.335C162.881 143.82 162.134 143.241 161.437 142.604C160.718 141.988 160.167 141.199 159.836 140.312C160.249 141.145 160.851 141.869 161.595 142.426C162.332 142.992 163.114 143.497 163.933 143.934C165.554 144.835 167.228 145.637 168.945 146.337C172.375 147.761 175.899 148.974 179.441 150.113C182.983 151.251 186.557 152.311 190.141 153.328C193.725 154.345 197.323 155.353 200.926 156.319L200.833 156.366L201.733 154.695Z" fill="#263238"/>
<path d="M211.556 132.207L211.944 131.203L211.986 131.273C208.094 131.017 204.206 130.704 200.319 130.298C196.432 129.892 192.568 129.449 188.704 128.87C187.738 128.721 186.772 128.562 185.806 128.375C185.339 128.277 184.84 128.184 184.34 128.044C184.214 128.007 184.093 127.969 183.958 127.918C183.88 127.893 183.805 127.86 183.734 127.82C183.679 127.791 183.628 127.756 183.58 127.717C183.529 127.675 183.487 127.625 183.454 127.568C183.435 127.532 183.418 127.494 183.402 127.456C183.4 127.437 183.4 127.419 183.402 127.4C183.384 127.222 183.393 127.043 183.43 126.868C183.454 126.742 183.477 126.607 183.51 126.49C184.004 124.553 184.63 122.724 185.264 120.89C186.534 117.199 187.915 113.554 189.371 109.933C188.246 113.666 187.094 117.399 185.946 121.133C185.395 122.999 184.788 124.866 184.364 126.733C184.336 126.849 184.322 126.957 184.298 127.069C184.275 127.181 184.298 127.311 184.275 127.265C184.252 127.218 184.275 127.265 184.275 127.265C184.27 127.24 184.26 127.216 184.247 127.195C184.247 127.148 184.163 127.101 184.182 127.111C184.2 127.12 184.158 127.111 184.182 127.111L184.298 127.157L184.606 127.255C185.073 127.377 185.54 127.465 186.006 127.559C186.94 127.731 187.915 127.881 188.872 128.025C190.794 128.315 192.72 128.587 194.649 128.842L200.44 129.621C204.3 130.135 208.159 130.685 212.018 131.25H212.088L212.06 131.311L211.556 132.207Z" fill="#263238"/>
<path d="M189.786 112.322C189.512 112.981 189.167 113.607 188.755 114.189C188.368 114.785 187.897 115.321 187.355 115.78C187.71 115.16 188.088 114.572 188.489 113.988C188.879 113.401 189.312 112.844 189.786 112.322V112.322Z" fill="#263238"/>
<path d="M201.094 103.702C197.799 104.636 191.863 99.8149 189.427 95.7969C189.259 95.5216 189.922 84.1722 189.819 81.9089C189.819 81.4422 204.165 84.7089 204.165 84.7089C204.165 84.7089 202.984 89.5156 203.189 93.4589C203.203 93.7949 204.272 102.797 201.094 103.702Z" fill="#AD6359"/>
<path d="M189.6 89.0165C196.315 93.7578 202.858 91.9378 203.133 91.8538C203.243 89.4482 203.576 87.058 204.127 84.7138C204.127 84.7138 189.754 81.4471 189.777 81.9138C189.861 82.9731 189.744 86.0345 189.6 89.0165Z" fill="#263238"/>
<path d="M204.094 75.3619C204.463 78.7126 207.146 81.1673 210.082 80.8406C213.017 80.514 215.103 77.5413 214.748 74.1953C214.394 70.8493 211.701 68.39 208.761 68.7166C205.821 69.0433 203.726 72.016 204.094 75.3619Z" fill="#455A64"/>
<path d="M202.396 75.7634C202.806 79.4968 205.788 82.2174 209.055 81.8581C212.322 81.4988 214.655 78.1901 214.23 74.4614C213.806 70.7328 210.842 68.0074 207.571 68.3668C204.3 68.7261 201.985 72.0394 202.396 75.7634Z" fill="#C7C7C7"/>
<path d="M187.831 64.857C186.263 69.8877 188.834 84.457 192.395 87.7237C197.561 92.4604 206.064 92.9597 210.096 86.7437C214.006 80.7144 210.32 61.791 206.334 58.8184C200.468 54.4317 190.146 57.4324 187.831 64.857Z" fill="#AD6359"/>
<path d="M199.937 74.0039C199.937 73.9712 199.871 74.0645 199.881 74.1065C200.095 75.0772 200.184 76.2299 199.363 76.7245C199.335 76.7245 199.363 76.7899 199.363 76.7759C200.431 76.4165 200.301 74.8905 199.937 74.0039Z" fill="#263238"/>
<path d="M198.868 73.1496C197.272 73.3316 197.752 76.5143 199.232 76.3463C200.711 76.1783 200.207 73.0003 198.868 73.1496Z" fill="#263238"/>
<path d="M205.602 73.2387C205.602 73.2013 205.686 73.276 205.691 73.318C205.807 74.3073 206.111 75.418 207.049 75.614C207.077 75.614 207.086 75.67 207.049 75.67C205.933 75.6793 205.555 74.1953 205.602 73.2387Z" fill="#263238"/>
<path d="M206.325 72.0675C207.893 71.7082 208.495 74.8675 207.044 75.2035C205.593 75.5395 205 72.3802 206.325 72.0675Z" fill="#263238"/>
<path d="M197.393 71.8856C197.793 71.7009 198.183 71.4937 198.56 71.2649C199.001 71.1038 199.376 70.8021 199.628 70.4063C199.683 70.2661 199.69 70.1119 199.648 69.9675C199.605 69.8232 199.517 69.6969 199.395 69.6083C199.129 69.469 198.831 69.4033 198.532 69.4181C198.232 69.4328 197.942 69.5275 197.692 69.6923C197.129 69.9458 196.682 70.4001 196.436 70.9663C196.387 71.0984 196.378 71.242 196.409 71.3793C196.441 71.5167 196.512 71.6419 196.613 71.7396C196.715 71.8373 196.843 71.9031 196.981 71.929C197.12 71.955 197.263 71.9399 197.393 71.8856V71.8856Z" fill="#263238"/>
<path d="M207.333 70.2891C206.892 70.2674 206.453 70.2222 206.017 70.1538C205.549 70.1715 205.087 70.0336 204.706 69.7618C204.601 69.6528 204.535 69.512 204.519 69.3616C204.503 69.2113 204.537 69.0598 204.617 68.9311C204.812 68.703 205.065 68.5306 205.348 68.4314C205.632 68.3323 205.937 68.3098 206.232 68.3665C206.847 68.392 207.432 68.6467 207.87 69.0805C207.964 69.1843 208.025 69.3131 208.047 69.4514C208.07 69.5897 208.051 69.7314 207.994 69.8593C207.937 69.9873 207.845 70.096 207.727 70.1723C207.61 70.2486 207.473 70.2892 207.333 70.2891V70.2891Z" fill="#263238"/>
<path d="M200.478 83.239C200.749 83.435 201.033 83.7056 201.411 83.7056C201.777 83.6439 202.125 83.5055 202.433 83.2996C202.439 83.2928 202.447 83.2885 202.456 83.2876C202.464 83.2867 202.473 83.2894 202.48 83.2949C202.487 83.3005 202.491 83.3086 202.492 83.3173C202.493 83.3261 202.49 83.3348 202.485 83.3416C202.374 83.5576 202.206 83.7391 202 83.8666C201.793 83.9941 201.556 84.0627 201.313 84.065C201.105 84.0438 200.907 83.9611 200.746 83.8272C200.585 83.6934 200.467 83.5146 200.408 83.3136C200.366 83.267 200.436 83.211 200.478 83.239Z" fill="#263238"/>
<path d="M201.066 80.1361C201.375 80.4877 201.753 80.7715 202.177 80.9699C202.601 81.1682 203.062 81.2768 203.53 81.2888C203.94 81.305 204.35 81.2625 204.748 81.1628C204.824 81.1488 204.9 81.1269 204.972 81.0975C205.043 81.0793 205.113 81.0575 205.182 81.0321C205.233 81.0149 205.277 80.9814 205.307 80.9367C205.338 80.8921 205.353 80.8387 205.35 80.7848V80.7848C205.347 80.7512 205.339 80.7181 205.326 80.6868V80.6868V80.6028C205.228 79.8421 204.981 78.6988 204.981 78.6988C205.28 78.7968 206.792 79.2168 206.708 78.8248C206.017 75.5581 205.247 71.9555 203.87 68.8708C203.861 68.8505 203.845 68.8342 203.824 68.8249C203.804 68.8156 203.781 68.8139 203.76 68.8201C203.738 68.8263 203.72 68.84 203.707 68.8588C203.695 68.8775 203.69 68.9 203.693 68.9221C204.234 72.0721 205.326 75.1055 205.924 78.2555C205.386 78.0977 204.828 78.0175 204.267 78.0175C204.164 78.0641 204.785 80.2155 204.799 80.5608C204.802 80.5731 204.802 80.5859 204.799 80.5981C203.548 80.9528 202.531 80.7148 201.164 80.0475C201.061 80.0008 200.996 80.0661 201.066 80.1361Z" fill="#263238"/>
<path d="M204.239 80.8448C203.907 81.4487 203.425 81.9567 202.839 82.3194C202.512 82.5057 202.136 82.5871 201.761 82.5528C200.944 82.4641 200.828 81.7454 200.865 81.1061C200.896 80.7662 200.966 80.431 201.075 80.1074C202.024 80.6837 203.133 80.942 204.239 80.8448V80.8448Z" fill="#263238"/>
<path d="M202.835 82.3342C202.508 82.5205 202.131 82.6019 201.757 82.5676C200.94 82.4789 200.823 81.7602 200.861 81.1209C201.733 81.0649 202.639 81.5129 202.835 82.3342Z" fill="#FF99BA"/>
<path opacity="0.2" d="M190.221 70.0329C189.647 71.4796 188.466 74.8769 187.794 75.1149C187.155 70.3922 187.131 66.1082 188.303 63.4762C188.787 62.3892 189.467 61.4005 190.309 60.5596C190.407 61.8242 190.832 68.5209 190.221 70.0329Z" fill="#263238"/>
<path d="M202.844 63.28C202.444 63.9725 201.873 64.5508 201.186 64.9594C200.499 65.368 199.718 65.5931 198.919 65.6133C198.105 65.6346 197.3 65.4477 196.579 65.0704C195.858 64.6931 195.245 64.1378 194.798 63.4573C194.796 63.453 194.793 63.4493 194.789 63.4462C194.785 63.4432 194.78 63.441 194.776 63.4397C194.771 63.4384 194.766 63.438 194.761 63.4386C194.756 63.4393 194.751 63.4409 194.747 63.4433C194.743 63.4458 194.739 63.449 194.736 63.4529C194.733 63.4568 194.731 63.4613 194.729 63.4661C194.728 63.4708 194.728 63.4758 194.728 63.4807C194.729 63.4856 194.731 63.4904 194.733 63.4946C195.139 64.2542 195.745 64.8883 196.485 65.3283C197.225 65.7684 198.072 65.9976 198.933 65.9913C199.777 65.9437 200.593 65.675 201.3 65.2122C202.007 64.7494 202.579 64.1088 202.96 63.3546C202.97 63.3392 202.974 63.3204 202.97 63.3025C202.966 63.2845 202.955 63.2689 202.939 63.259C202.924 63.2491 202.905 63.2457 202.887 63.2497C202.869 63.2536 202.854 63.2645 202.844 63.28Z" fill="#263238"/>
<path d="M212.578 55.7715C211.906 54.5315 210.817 53.5693 209.503 53.0555C207.683 52.3368 205.858 52.8175 204.052 53.3355C204.043 53.3355 204.033 53.3394 204.026 53.3465C204.019 53.3535 204.015 53.3629 204.015 53.3728C204.015 53.3827 204.019 53.3922 204.026 53.3992C204.033 53.4062 204.043 53.4102 204.052 53.4102C205.588 52.9762 207.174 52.6262 208.742 53.1022C210.04 53.4904 211.164 54.3146 211.925 55.4355C212.667 56.5962 212.966 57.9853 212.769 59.3486C212.571 60.7119 211.889 61.9584 210.847 62.8602C210.233 63.3639 209.523 63.7367 208.76 63.9558C207.997 64.1749 207.197 64.2356 206.409 64.1342C206.348 64.1342 206.32 64.2182 206.386 64.2275C207.458 64.4094 208.559 64.2887 209.566 63.8792C210.574 63.4696 211.447 62.7873 212.088 61.9089C212.728 61.0305 213.112 59.9909 213.194 58.9067C213.277 57.8225 213.056 56.7368 212.555 55.7715H212.578Z" fill="#263238"/>
<path d="M187.406 67.7645C187.406 67.7645 184.032 63.4291 185.666 60.2978C186.599 58.5198 190.617 58.0298 190.617 58.0298C190.617 58.0298 191.55 55.9718 194.728 54.6371C197.906 53.3025 202.195 54.0865 202.195 54.0865C202.195 54.0865 205.046 51.7158 208.313 52.8918C212.868 54.5345 213.446 60.9325 209.638 63.6858C206.96 65.6225 202.536 63.7278 202.536 63.7278C202.162 63.8445 198.662 66.8871 195.097 63.9145C195.097 63.9145 193.067 66.4718 190.645 65.3518C190.416 66.0364 189.983 66.6345 189.404 67.0657C188.825 67.497 188.128 67.7408 187.406 67.7645V67.7645Z" fill="#263238"/>
<path d="M190.869 76.7341C190.869 76.7341 187.514 72.0674 185.395 73.2761C183.276 74.4848 185.862 81.2654 188.363 82.1428C188.677 82.2809 189.016 82.3542 189.359 82.3583C189.702 82.3623 190.043 82.297 190.36 82.1663C190.677 82.0355 190.965 81.8421 191.205 81.5974C191.446 81.3528 191.635 81.0621 191.76 80.7428L190.869 76.7341Z" fill="#AD6359"/>
<path d="M186.179 75.208C186.137 75.208 186.133 75.2593 186.179 75.2733C187.948 75.964 188.895 77.5787 189.567 79.2587C189.035 78.6147 188.321 78.2693 187.458 78.904C187.411 78.9367 187.458 79.0067 187.505 78.9973C187.812 78.8993 188.142 78.8983 188.45 78.9943C188.758 79.0903 189.029 79.2787 189.227 79.534C189.559 79.9683 189.842 80.4378 190.071 80.934C190.155 81.088 190.435 80.9993 190.375 80.822V80.78C190.375 78.512 188.587 75.3993 186.179 75.208Z" fill="#263238"/>
<path d="M188.074 73.4669C188.074 73.4669 186.258 66.2335 187.672 61.8002C189.245 56.8722 195.176 52.0469 202.186 54.0955C202.186 54.0955 194.406 55.0989 190.626 61.5995C188.89 64.5862 190.556 73.2102 190.556 73.2102L188.074 73.4669Z" fill="#C7C7C7"/>
<path d="M195.606 75.9028C196.315 79.6362 194.248 83.1548 190.981 83.7802C187.714 84.4055 184.485 81.9135 183.771 78.1802C183.057 74.4468 185.129 70.9282 188.396 70.3028C191.662 69.6775 194.892 72.1788 195.606 75.9028Z" fill="#C7C7C7"/>
<path d="M193.842 76.024C194.481 79.37 192.619 82.5574 189.684 83.1034C186.749 83.6494 183.846 81.4 183.207 78.0587C182.567 74.7174 184.425 71.5254 187.36 70.9794C190.295 70.4334 193.198 72.6734 193.842 76.024Z" fill="#455A64"/>
<path d="M8.67334 158.218H65.9147L54.5 91.8252H11.6973L8.67334 158.218Z" fill="#DBDBDB"/>
<path d="M8.67334 158.218H13.69L16.5087 91.8252H11.6973L8.67334 158.218Z" fill="#A6A6A6"/>
<path d="M42.5999 62.8681C37.2846 68.1555 35.7586 76.8681 35.7586 76.8681C35.7586 76.8681 30.6626 85.6368 32.0859 90.4015C32.4624 91.7524 33.1609 92.9919 34.1217 94.0136C35.0824 95.0353 36.2766 95.8087 37.6019 96.2675L37.0979 93.6355C37.0979 93.6355 38.8059 97.0188 44.5132 98.3815C50.2206 99.7441 57.7712 97.9895 61.7006 96.0015C64.0295 94.8356 66.0167 93.0863 67.4686 90.9241L65.9986 94.7508C65.9986 94.7508 71.5379 94.5548 74.8279 88.6608C78.1179 82.7668 68.6679 74.2968 67.8652 72.4721C67.0626 70.6475 66.0452 57.3521 52.0592 59.6435C52.0779 59.6108 46.2772 59.2281 42.5999 62.8681Z" fill="#263238"/>
<path d="M35.6002 95.8901C34.1442 94.8027 32.7069 93.5567 31.9042 92.0167C31.0289 90.4205 30.7182 88.5756 31.0222 86.7807C31.4095 84.6294 32.5435 82.7301 33.6449 80.8774C34.7462 79.0247 36.0715 77.1441 37.1775 75.1981C37.2382 75.0907 37.0749 75.0021 37.0002 75.0861C35.7575 76.5454 34.5983 78.0739 33.5282 79.6641C32.4334 81.1181 31.5124 82.6953 30.7842 84.3634C30.1035 85.8994 29.8799 87.599 30.1402 89.2587C30.4155 90.6078 31.0144 91.8698 31.8855 92.9361C32.9169 94.2194 34.2189 95.0407 35.5255 96.0067C35.6002 96.0674 35.6795 95.9507 35.6002 95.8901Z" fill="#263238"/>
<path d="M76.0274 82.5666C74.3474 77.6712 69.9607 74.5632 67.268 70.2932C65.8214 67.9832 64.6967 65.4259 62.8114 63.4192C62.76 63.3632 62.6667 63.4519 62.7134 63.5079C64.2627 65.3139 65.1587 67.4886 66.2787 69.5746C67.472 71.6273 68.8664 73.5564 70.4414 75.3332C73.2134 78.6559 76.5314 82.5899 75.8967 87.2426C75.6027 89.3892 74.3334 91.7692 72.1307 92.4365C72.0467 92.4645 72.098 92.6045 72.182 92.5672C73.0507 92.2184 73.8393 91.6964 74.4996 91.0329C75.1599 90.3693 75.6781 89.5783 76.0227 88.7079C76.7649 86.7283 76.7666 84.5472 76.0274 82.5666Z" fill="#263238"/>
<path d="M76.2282 83.8825C76.3797 82.0285 75.9526 80.173 75.0055 78.5719C74.0395 76.9945 72.5229 75.8559 71.0062 74.8385C69.2562 73.6765 67.4129 72.5705 66.3022 70.7272C66.2555 70.6479 66.1435 70.7272 66.1855 70.8065C67.9495 73.8492 71.3189 75.2679 73.5729 77.8299C76.1629 80.7559 76.1675 85.0165 74.3849 88.3625C73.2519 90.4022 71.6529 92.1451 69.7182 93.4492C69.6855 93.4492 69.7182 93.5192 69.7555 93.4959C73.0549 91.3305 75.9622 87.9985 76.2282 83.8825Z" fill="#263238"/>
<path d="M55.0785 106.184C69.2419 113.959 86.1959 123.717 96.5839 121.421C101.19 120.404 121.873 93.2905 122.75 90.1545C123.501 87.4618 104.774 76.6211 102.683 78.7445C99.1552 82.3051 89.6165 102.353 88.2165 102.689C86.8165 103.025 74.9259 100.612 62.5499 98.3771C50.6405 96.2398 45.2459 100.79 55.0785 106.184Z" fill="#EB9481"/>
<path d="M120.739 93.533C122.353 91.4984 128.943 81.521 130.151 78.3337C131.36 75.1464 134.188 65.7337 131.845 64.5484C129.503 63.363 128.467 66.0464 128.467 66.0464C128.467 66.0464 129.031 61.879 126.563 60.913C124.094 59.947 122.601 64.1797 122.601 64.1797C122.601 64.1797 122.867 59.8584 120.333 59.0464C117.799 58.2344 117.015 62.7797 117.015 62.7797C117.015 62.7797 117.444 58.841 115.083 59.0464C112.245 59.3217 112.283 66.6764 110.677 70.0924C110.313 70.867 102.179 85.2964 102.179 85.2964L120.739 93.533Z" fill="#EB9481"/>
<path d="M117.071 62.4113C117.071 67.8199 116.137 70.1906 113.337 74.6986C113.281 74.7826 113.398 74.8853 113.468 74.8013C116.641 70.6386 118.237 67.8386 117.351 62.3973C117.29 62.1313 117.071 62.1546 117.071 62.4113Z" fill="#263238"/>
<path d="M122.573 63.7548C122.106 69.3548 121.108 71.9495 118.49 76.8915C118.452 76.9615 118.569 77.0315 118.611 76.9615C121.584 72.3321 123.114 69.4948 122.853 63.8248C122.867 63.5681 122.596 63.4981 122.573 63.7548Z" fill="#263238"/>
<path d="M128.308 66.2934C127.454 71.6974 126.493 74.5721 123.338 79.0427C123.33 79.0528 123.323 79.0645 123.32 79.077C123.316 79.0895 123.315 79.1026 123.316 79.1156C123.317 79.1286 123.321 79.1413 123.327 79.1528C123.333 79.1643 123.342 79.1745 123.352 79.1827C123.362 79.191 123.374 79.1972 123.386 79.201C123.399 79.2048 123.412 79.206 123.425 79.2047C123.438 79.2034 123.45 79.1996 123.462 79.1934C123.473 79.1872 123.484 79.1788 123.492 79.1687C127.155 74.9221 128.383 71.3474 128.471 66.3354C128.467 65.9994 128.364 65.9527 128.308 66.2934Z" fill="#263238"/>
<path d="M98.1708 86.9292C98.1708 86.9292 97.7741 80.1672 98.2594 77.1572C98.7448 74.1472 104.667 63.5912 107 64.7392C110.038 66.2279 107.817 72.9945 106.295 76.1679C106.295 76.1679 113.323 79.5932 112.782 84.7966C112.241 89.9999 98.1708 86.9292 98.1708 86.9292Z" fill="#EB9481"/>
<path d="M107.719 65.4208C109.511 68.7762 107.252 72.8128 106.001 76.0002C105.981 76.0462 105.972 76.0965 105.975 76.1468C105.978 76.1971 105.994 76.2458 106.02 76.2889C106.046 76.332 106.082 76.3681 106.125 76.3942C106.168 76.4203 106.217 76.4356 106.267 76.4388C109.119 78.0722 112.665 81.2082 112.969 84.6615C112.969 84.6825 112.977 84.7027 112.992 84.7176C113.007 84.7325 113.027 84.7408 113.048 84.7408C113.069 84.7408 113.089 84.7325 113.104 84.7176C113.119 84.7027 113.127 84.6825 113.127 84.6615C113.305 80.9282 110.071 77.5495 106.837 75.9582C108.162 72.6915 110.257 68.5615 107.77 65.4022C107.737 65.3882 107.709 65.4022 107.719 65.4208Z" fill="#263238"/>
<path d="M84.8475 101.583L67.8002 115.872C67.8002 115.872 57.3935 110.459 49.7075 104.238C42.0215 98.0175 50.5335 94.9935 63.7308 97.2102C76.9282 99.4268 84.8475 101.583 84.8475 101.583Z" fill="#44779D"/>
<path d="M64.6546 104.453C64.1716 103.793 63.6123 103.194 62.9886 102.665C63.6789 104.149 64.6762 105.469 65.9146 106.539C65.58 105.795 65.157 105.095 64.6546 104.453V104.453ZM49.7212 104.247L49.9266 104.406C50.0619 104.261 50.1972 104.107 50.3232 103.939C50.1086 104.037 49.9079 104.14 49.7119 104.266L49.7212 104.247ZM78.2579 104.341C77.4515 104.222 76.6341 104.197 75.8219 104.266C76.5837 104.554 77.376 104.752 78.1832 104.859C78.9893 104.981 79.807 105.008 80.6192 104.938C79.8548 104.648 79.0593 104.447 78.2486 104.341H78.2579ZM72.5506 98.8154C72.54 99.1269 72.551 99.4388 72.5832 99.7488C72.6971 99.4687 72.7937 99.1819 72.8726 98.8901L72.5506 98.8154Z" fill="white"/>
<path d="M63.9826 112.82C67.45 109.488 71.1553 106.394 74.912 103.38C75.976 102.53 77.0586 101.7 78.1786 100.902C78.2113 100.878 78.2533 100.902 78.2206 100.944C76.4566 102.572 74.6226 104.126 72.798 105.69C70.9733 107.253 69.1253 108.816 67.254 110.333C66.1946 111.192 65.14 112.05 64.0666 112.886C64.0013 112.918 63.9406 112.862 63.9826 112.82Z" fill="#263238"/>
<path d="M75.0426 109.801L67.7953 115.867C67.7953 115.867 57.3886 110.459 49.7026 104.238C46.9726 102.031 46.2866 100.229 47.122 98.918L75.0426 109.801Z" fill="#263238"/>
<path d="M71.5336 158.161H17.209C17.209 158.161 29.011 112.582 39.9357 99.7487C40.1783 99.4547 40.4303 99.1747 40.6823 98.9133C40.7337 98.8527 40.7803 98.8107 40.8317 98.7594C41.6773 97.8559 42.662 97.0934 43.7483 96.5007C43.9397 96.398 44.131 96.3 44.3317 96.216C48.5317 94.2793 52.9836 95.8847 56.1896 98.6287C57.207 99.4967 68.7243 114.495 69.723 120.193C70.605 125.238 67.1983 130.656 67.1983 130.656L71.5336 158.161Z" fill="#44779D"/>
<path d="M59.0595 128.705C56.7464 128.931 54.4534 129.329 52.1995 129.895C51.0795 130.194 49.9875 130.539 48.8908 130.908C48.3448 131.095 47.7988 131.263 47.2482 131.426C46.6748 131.613 46.0809 131.729 45.4795 131.771C45.4684 131.771 45.4577 131.776 45.4498 131.784C45.4419 131.792 45.4375 131.802 45.4375 131.813C45.4375 131.825 45.4419 131.835 45.4498 131.843C45.4577 131.851 45.4684 131.855 45.4795 131.855C46.0492 131.88 46.6199 131.864 47.1875 131.809C47.7339 131.74 48.275 131.634 48.8068 131.491C49.9455 131.197 51.0655 130.857 52.1995 130.558C54.4862 129.951 56.7682 129.345 59.0922 128.901C59.1182 128.897 59.1414 128.883 59.1567 128.861C59.172 128.84 59.1782 128.813 59.1738 128.787C59.1695 128.761 59.155 128.738 59.1336 128.723C59.1121 128.707 59.0855 128.701 59.0595 128.705V128.705Z" fill="#263238"/>
<path d="M64.7996 130.708C62.8905 130.525 60.9726 130.448 59.055 130.479C58.1216 130.503 57.1463 130.577 56.1896 130.675C55.723 130.727 55.2563 130.783 54.827 130.843C54.3976 130.904 53.8376 131.044 53.3383 131.105C53.287 131.105 53.287 131.193 53.3383 131.189C53.805 131.147 54.295 131.189 54.771 131.165L56.2036 131.114C57.137 131.086 58.1123 131.063 59.069 131.021C60.9823 130.941 62.891 130.881 64.8043 130.862C64.907 130.867 64.8976 130.717 64.7996 130.708Z" fill="#263238"/>
<path d="M34.774 110.464C34.5173 110.137 34.256 109.815 33.9713 109.531L33.7706 109.951C33.9573 110.24 34.158 110.525 34.3633 110.8C34.8467 111.455 35.406 112.05 36.0293 112.573C35.6887 111.827 35.2677 111.119 34.774 110.464V110.464ZM41.0786 98.5079C40.9836 99.2367 40.9679 99.9737 41.032 100.706C41.3219 99.9407 41.5178 99.1431 41.6153 98.3306C41.6153 98.2093 41.648 98.0832 41.662 97.9619C41.466 98.1346 41.27 98.3166 41.0786 98.5079V98.5079ZM57.566 113.693C57.2754 114.458 57.0749 115.253 56.9686 116.064C56.8511 116.872 56.8244 117.691 56.8893 118.505C57.1823 117.742 57.3798 116.945 57.4773 116.134C57.6054 115.327 57.6352 114.507 57.566 113.693ZM47.1826 139.976C46.895 140.737 46.6977 141.53 46.5946 142.337C46.4763 143.145 46.4512 143.964 46.52 144.778C47.0746 143.241 47.3004 141.605 47.1826 139.976ZM29.5333 120.133C29.2484 120.9 29.0511 121.697 28.9453 122.509C28.8265 123.315 28.8015 124.132 28.8706 124.945C29.1562 124.18 29.352 123.384 29.454 122.574C29.5763 121.766 29.6029 120.947 29.5333 120.133V120.133ZM44.14 116.801C43.3335 116.683 42.5161 116.658 41.704 116.727C42.4657 117.014 43.2581 117.213 44.0653 117.319C44.8713 117.442 45.689 117.468 46.5013 117.399C45.7421 117.103 44.9513 116.896 44.1446 116.783L44.14 116.801ZM63.684 139.201C62.876 139.083 62.057 139.058 61.2433 139.127C62.7799 139.681 64.4159 139.907 66.0453 139.789C65.2851 139.501 64.4944 139.301 63.6886 139.192L63.684 139.201ZM27.2 137.05C26.4074 136.935 25.6046 136.907 24.806 136.966H24.7593H24.8013C25.5551 137.244 26.3378 137.437 27.1346 137.54C27.9411 137.658 28.7585 137.683 29.5706 137.615C28.8049 137.335 28.0094 137.146 27.2 137.05ZM47.696 156.319C46.8895 156.2 46.0721 156.175 45.26 156.244C46.7979 156.8 48.4359 157.024 50.0666 156.902C49.295 156.617 48.4934 156.421 47.6773 156.319H47.696ZM25.6506 153.957C24.8426 153.839 24.0237 153.814 23.21 153.883C23.9722 154.167 24.7645 154.362 25.5713 154.466C26.3787 154.591 27.1984 154.616 28.012 154.541C27.2437 154.255 26.4451 154.06 25.632 153.957H25.6506ZM48.228 105.2C47.5706 105.689 46.971 106.251 46.4406 106.875C47.1852 106.536 47.8896 106.115 48.5406 105.62C49.1968 105.133 49.7921 104.569 50.314 103.94C49.5744 104.282 48.8748 104.704 48.228 105.2V105.2ZM54.0426 130.181C53.3868 130.663 52.7914 131.222 52.2693 131.847C53.0117 131.51 53.7118 131.087 54.3553 130.587C55.0122 130.106 55.6078 129.546 56.1286 128.921C55.3867 129.262 54.6868 129.688 54.0426 130.19V130.181ZM33.654 145.45C32.9944 145.931 32.3971 146.492 31.876 147.121C32.6155 146.779 33.3151 146.356 33.962 145.861C34.618 145.374 35.2175 144.815 35.7493 144.195C35.0001 144.526 34.296 144.951 33.654 145.459V145.45ZM67.5153 123.484C67.0323 122.825 66.4731 122.225 65.8493 121.697C66.5396 123.18 67.5369 124.5 68.7753 125.57C68.4401 124.83 68.0171 124.132 67.5153 123.493V123.484ZM60.5666 151.75C60.0798 151.094 59.5209 150.494 58.9006 149.963C59.2278 150.712 59.6497 151.416 60.156 152.058C60.6381 152.715 61.1974 153.312 61.822 153.836C61.4816 153.096 61.0606 152.397 60.5666 151.75V151.75ZM40.108 129.518C39.6236 128.86 39.0646 128.26 38.442 127.731C38.7728 128.479 39.1961 129.183 39.702 129.826C40.1827 130.484 40.7422 131.081 41.368 131.604C41.0281 130.863 40.6054 130.163 40.108 129.518V129.518Z" fill="white"/>
<path d="M38.8248 100.104C28.3761 108.527 1.61743 141.908 7.65143 149.622C13.6854 157.336 53.7908 153.822 65.4341 150.173C68.8968 149.09 59.4514 127.115 55.7088 126.102C52.5914 125.257 35.3061 130.367 34.9701 129.369C34.5921 128.239 39.2401 121.991 45.1481 108.453C51.9614 92.8379 43.4401 96.3845 38.8248 100.104Z" fill="#EB9481"/>
<path d="M74.5854 124.267C82.5701 125.201 84.4788 126.652 91.6328 123.852C96.3275 122.018 99.5148 124.225 96.0801 128.187C90.4801 134.669 79.9148 135.654 76.1581 134.926L74.5854 124.267Z" fill="#EB9481"/>
<path d="M52.1899 126.382C52.1899 126.382 62.0973 123.82 70.7026 123.96C76.6573 124.058 89.5839 125.714 98.3573 141.166C100.439 144.829 100.807 151.53 95.2306 146.766C91.2733 143.392 89.7846 140.055 87.1246 138.51C87.1246 138.51 86.5786 147.083 82.8266 149.029C79.545 150.726 76.1469 152.187 72.6579 153.402C72.2883 152.814 71.9578 152.203 71.6686 151.572C71.6686 151.572 67.9913 153.056 62.3353 150.998L52.1899 126.382Z" fill="#EB9481"/>
<path d="M76.3726 124.963C78.7059 127.054 83.5219 131.562 86.1726 136.63C89.1406 142.258 93.3406 153.896 89.1639 156.048C86.1026 157.625 84.1052 153.318 84.1052 153.318C84.1052 153.318 84.8286 158.498 81.7719 159.314C78.9719 160.061 77.6232 156.636 77.6232 156.636C77.6232 156.636 77.5206 159.851 74.6832 160.052C71.2672 160.285 72.0419 153.518 68.3739 150.76C67.5479 150.14 76.3726 124.963 76.3726 124.963Z" fill="#EB9481"/>
<path d="M79.7234 138.799C81.5901 141.133 84.4414 147.479 84.1987 153.233C84.1987 153.364 84.0914 153.429 84.0727 153.308C83.1973 148.325 81.7196 143.467 79.672 138.841C79.6665 138.834 79.6638 138.826 79.6647 138.817C79.6656 138.808 79.6699 138.8 79.6767 138.795C79.6835 138.789 79.6923 138.786 79.701 138.787C79.7098 138.788 79.7178 138.792 79.7234 138.799V138.799Z" fill="#263238"/>
<path d="M74.1283 141.936C75.5283 144.106 78.1836 150.802 77.7356 156.612C77.7356 156.743 77.6189 156.799 77.6049 156.678C76.9882 151.653 75.803 146.716 74.0723 141.959C74.0722 141.952 74.074 141.946 74.0776 141.941C74.0812 141.935 74.0863 141.931 74.0924 141.928C74.0984 141.926 74.105 141.925 74.1114 141.926C74.1178 141.928 74.1237 141.931 74.1283 141.936Z" fill="#263238"/>
<path d="M87.1389 138.473C89.4723 139.873 90.7743 141.52 92.5103 143.541C93.3588 144.552 94.2624 145.517 95.2169 146.429C96.0943 147.246 97.3869 148.473 98.7029 147.89C99.4356 147.563 99.6363 146.686 99.697 145.958C99.7544 145.139 99.6351 144.318 99.347 143.55C99.347 143.513 99.4029 143.485 99.4169 143.527C99.7034 144.204 99.8919 144.919 99.9769 145.65C100.088 146.337 99.9886 147.041 99.6923 147.671C98.9643 148.959 97.2843 148.716 96.2296 148.039C95.6057 147.607 95.0258 147.115 94.4983 146.569C93.9803 146.061 93.4856 145.529 93.0049 144.987C92.0203 143.867 91.1009 142.696 90.1303 141.571C89.179 140.499 88.1596 139.489 87.0783 138.547C87.0363 138.51 87.0923 138.445 87.1389 138.473Z" fill="#263238"/>
<path d="M90.1069 148.675C89.8315 147.074 87.8529 140.195 87.0689 138.52C87.0639 138.511 87.0626 138.501 87.0652 138.492C87.0678 138.482 87.0742 138.474 87.0829 138.469C87.0915 138.464 87.1018 138.463 87.1114 138.465C87.1211 138.468 87.1292 138.474 87.1342 138.483C88.6135 140.849 90.4802 146.593 90.8069 148.362C91.1335 150.131 91.4462 152.319 90.9935 154.06C90.3122 156.683 88.4455 156.729 87.7689 156.692C86.9695 156.634 86.2139 156.305 85.6269 155.759C84.9582 155.061 84.4375 154.236 84.0962 153.332C84.0962 153.29 84.1382 153.253 84.1615 153.295C84.8055 154.564 86.0515 155.978 87.5262 156.16C87.8527 156.211 88.1861 156.196 88.5067 156.115C88.8272 156.035 89.1285 155.892 89.3929 155.693C89.9467 155.163 90.2899 154.45 90.3589 153.687C90.5624 152.014 90.4771 150.319 90.1069 148.675V148.675Z" fill="#263238"/>
<path d="M77.7352 156.612C78.0199 157.018 78.4912 158.302 79.6252 158.843C80.0196 159.068 80.4626 159.193 80.9163 159.209C81.3699 159.224 81.8205 159.129 82.2292 158.932C83.0087 158.448 83.5694 157.679 83.7925 156.79C83.9811 155.651 84.0825 154.5 84.0959 153.346C84.0959 153.29 84.1659 153.285 84.1705 153.346C84.3159 154.597 84.2718 155.864 84.0399 157.102C83.9303 157.587 83.7248 158.046 83.4354 158.451C83.1461 158.855 82.7789 159.198 82.3552 159.459C81.9065 159.704 81.3988 159.82 80.8881 159.795C80.3775 159.769 79.8839 159.603 79.4619 159.314C79.0372 159.02 77.8052 157.69 77.5952 156.645C77.5999 156.612 77.7212 156.594 77.7352 156.612Z" fill="#263238"/>
<path d="M68.7335 150.35C69.071 150.724 69.3638 151.136 69.6062 151.577C69.8815 152.044 70.1429 152.487 70.3902 152.954C70.8818 153.897 71.2743 154.888 71.5615 155.912C71.8602 156.939 72.0935 158.059 72.7982 158.904C73.128 159.321 73.5809 159.624 74.0927 159.77C74.6045 159.916 75.1492 159.897 75.6495 159.716C76.1792 159.505 76.6195 159.118 76.8955 158.619C77.2155 158.081 77.4293 157.487 77.5255 156.869C77.5234 156.863 77.5227 156.857 77.5235 156.851C77.5243 156.845 77.5265 156.84 77.5299 156.835C77.5333 156.83 77.5379 156.826 77.5433 156.823C77.5486 156.82 77.5545 156.819 77.5605 156.819C77.5666 156.819 77.5725 156.82 77.5778 156.823C77.5832 156.826 77.5878 156.83 77.5912 156.835C77.5946 156.84 77.5968 156.845 77.5976 156.851C77.5983 156.857 77.5976 156.863 77.5955 156.869C77.5557 157.43 77.4587 157.985 77.3062 158.526C77.1298 159.012 76.8289 159.443 76.4335 159.776C76.0191 160.093 75.5255 160.289 75.0068 160.343C74.4882 160.398 73.9646 160.308 73.4935 160.084C72.4482 159.618 71.8602 158.563 71.4962 157.518C71.0902 156.356 70.8195 155.156 70.3575 154.008C70.1195 153.402 69.8909 152.795 69.6015 152.212C69.3122 151.628 68.9109 151.022 68.6682 150.396C68.6402 150.359 68.6962 150.308 68.7335 150.35Z" fill="#263238"/>
<path d="M65.0886 151.797C66.5639 152.01 68.0561 152.083 69.5453 152.016C69.5919 152.016 69.6199 152.151 69.5733 152.161C68.835 152.299 68.084 152.357 67.3333 152.333C66.5722 152.301 65.8202 152.155 65.1026 151.899C65.0419 151.867 65.0419 151.787 65.0886 151.797Z" fill="#263238"/>
<path d="M19.2668 134.367C21.7614 133.163 24.3394 132.14 26.9808 131.305C29.5945 130.488 32.2649 129.864 34.9701 129.439C36.5148 129.182 38.0641 129 39.6368 128.809C39.6834 128.809 39.6928 128.874 39.6368 128.879C36.9185 129.319 34.2277 129.914 31.5774 130.661C28.9392 131.38 26.3165 132.147 23.7094 132.962C22.2348 133.429 20.7788 133.951 19.3181 134.46C19.2668 134.497 19.2201 134.399 19.2668 134.367Z" fill="#263238"/>
<path d="M16.9941 120.371L39.1095 122.774C39.1095 122.774 44.7515 112.507 47.6868 103.048C50.6221 93.5887 42.2875 95.4274 32.5481 104.597C22.8088 113.767 16.9941 120.371 16.9941 120.371Z" fill="#44779D"/>
<path d="M16.9941 120.371L39.1095 122.774C39.1095 122.774 44.7515 112.507 47.6868 103.048C50.6221 93.5887 42.2875 95.4274 32.5481 104.597C22.8088 113.767 16.9941 120.371 16.9941 120.371Z" fill="#44779D"/>
<path d="M41.1163 98.1999C41.1186 98.2232 41.1186 98.2466 41.1163 98.2699C40.9979 99.0779 40.9728 99.8969 41.0416 100.711C41.3316 99.9454 41.5274 99.1477 41.625 98.3353C41.625 98.1953 41.6623 98.0599 41.6763 97.9199L41.1163 98.1999ZM29.5336 120.133C29.3311 120.642 29.1749 121.169 29.067 121.706L29.5336 121.753C29.5849 121.214 29.5849 120.672 29.5336 120.133V120.133ZM21.8616 115.154L21.647 115.378C21.8896 115.378 22.1136 115.378 22.3796 115.336C22.2023 115.266 22.0343 115.205 21.8616 115.154ZM41.709 116.708C41.8396 116.759 41.975 116.811 42.1103 116.853C42.1345 116.792 42.1625 116.732 42.1943 116.675C42.0356 116.68 41.8723 116.689 41.709 116.708V116.708ZM34.7743 110.464C34.2874 109.808 33.7286 109.208 33.1083 108.677C33.4365 109.427 33.8583 110.132 34.3636 110.777C34.8471 111.431 35.4063 112.027 36.0296 112.55C35.6875 111.811 35.2666 111.112 34.7743 110.464V110.464Z" fill="white"/>
<path d="M38.2133 122.569C38.3347 122.569 39.1467 122.569 39.1467 122.569C39.2447 122.284 41.1487 117.902 41.6153 116.969C42.5767 115.051 43.65 113.184 44.6953 111.313C44.728 111.252 44.8213 111.313 44.7887 111.355C44.0513 112.988 43.342 114.621 42.5907 116.264C42.7773 116.045 42.964 115.825 43.146 115.601C43.5147 115.135 43.8507 114.668 44.2007 114.173C44.2333 114.131 44.2987 114.173 44.2753 114.225C43.9413 114.9 43.5192 115.527 43.02 116.091C42.8081 116.339 42.5788 116.571 42.334 116.787C42.2733 116.922 42.2127 117.062 42.1473 117.193C41.6807 118.126 39.38 122.83 39.296 122.825L38.232 122.695C38.1527 122.713 38.1527 122.564 38.2133 122.569Z" fill="#263238"/>
<path d="M21.1613 116.614C25.9587 116.936 30.742 117.594 35.4973 118.341C36.8476 118.556 38.1884 118.8 39.52 119.074C39.5573 119.074 39.5573 119.139 39.52 119.134C37.1307 118.924 34.746 118.616 32.3613 118.322C29.9767 118.028 27.5733 117.711 25.1887 117.333C23.8447 117.128 22.496 116.922 21.1567 116.694C21.1007 116.698 21.1007 116.61 21.1613 116.614Z" fill="#263238"/>
<path d="M46.5806 96.8463C46.6646 97.8169 50.2766 104.565 54.6026 104.98C56.0026 105.111 57.0806 97.4529 57.0806 97.4529L57.2859 96.9069L60.1932 89.2443L51.7466 81.9409L50.5192 80.9609C50.5192 80.9609 49.8612 83.1076 49.0726 85.7909C49.0352 85.9169 48.9932 86.0429 48.9559 86.1736C48.9186 86.3043 48.8626 86.4676 48.8206 86.6076C48.6992 87.0089 48.5732 87.4149 48.4612 87.8256C48.3726 88.1383 48.2839 88.4416 48.1999 88.7589C48.1159 89.0763 48.0319 89.4123 47.9386 89.7389C47.3246 92.0744 46.8709 94.449 46.5806 96.8463V96.8463Z" fill="#EB9481"/>
<path d="M49.0728 85.7909C49.5537 88.1286 50.5375 90.3336 51.9557 92.2531C53.374 94.1726 55.1928 95.7606 57.2861 96.9069L60.1934 89.2443L51.7468 81.9409L50.5194 80.9609C50.5194 80.9609 49.8614 83.1076 49.0728 85.7909Z" fill="#263238"/>
<path d="M62.7508 77.4747C63.4928 80.7414 66.4328 82.8927 69.3168 82.2441C72.2008 81.5954 73.9321 78.3987 73.1901 75.1134C72.4481 71.8281 69.5081 69.6907 66.6241 70.3441C63.7401 70.9974 62.0088 74.1847 62.7508 77.4747Z" fill="#455A64"/>
<path d="M61.1034 78.0632C61.9341 81.7172 65.2008 84.0925 68.4114 83.3692C71.6221 82.6459 73.5448 79.0945 72.7188 75.4359C71.8928 71.7772 68.6214 69.4065 65.4154 70.1299C62.2094 70.8532 60.2774 74.3999 61.1034 78.0632Z" fill="#C7C7C7"/>
<path d="M70.5394 73.3869C74.4594 87.2236 66.6148 91.1203 63.6281 91.9789C60.9168 92.7443 51.5928 95.0029 46.2634 81.6423C40.9341 68.2816 46.1281 62.0843 52.2321 60.0076C58.3361 57.9309 66.6194 59.5456 70.5394 73.3869Z" fill="#EB9481"/>
<path d="M65.7235 71.6462C65.3947 71.6788 65.0644 71.6929 64.7341 71.6882C64.3868 71.7545 64.0274 71.7036 63.7121 71.5436C63.6224 71.4742 63.5581 71.377 63.5294 71.2673C63.5007 71.1575 63.5092 71.0413 63.5535 70.9369C63.6725 70.7446 63.841 70.5878 64.0412 70.4827C64.2415 70.3776 64.4663 70.3282 64.6921 70.3396C65.1518 70.2885 65.6142 70.4099 65.9895 70.6802C66.0704 70.748 66.1302 70.8376 66.1617 70.9384C66.1932 71.0392 66.195 71.1469 66.167 71.2487C66.1389 71.3505 66.0822 71.4421 66.0036 71.5126C65.925 71.5831 65.8277 71.6295 65.7235 71.6462V71.6462Z" fill="#263238"/>
<path d="M56.6003 74.8659C56.9174 74.7677 57.2289 74.6524 57.5336 74.5206C57.8791 74.4443 58.1904 74.2575 58.4203 73.9886C58.4748 73.8892 58.4952 73.7746 58.4783 73.6625C58.4615 73.5504 58.4083 73.4469 58.327 73.3679C58.1419 73.2377 57.9254 73.159 57.6998 73.1402C57.4743 73.1213 57.2478 73.1629 57.0436 73.2606C56.601 73.3938 56.2235 73.6864 55.9843 74.0819C55.9351 74.1752 55.9141 74.2808 55.9236 74.3858C55.9332 74.4908 55.9729 74.5908 56.0381 74.6737C56.1032 74.7566 56.191 74.8189 56.2907 74.853C56.3905 74.8871 56.498 74.8916 56.6003 74.8659V74.8659Z" fill="#263238"/>
<path d="M59.4003 77.3069C59.4003 77.2695 59.3396 77.3722 59.3536 77.4095C59.6523 78.3429 59.8203 79.4629 59.0736 80.0182C59.0503 80.0182 59.0736 80.0789 59.097 80.0695C60.0863 79.6262 59.825 78.1329 59.4003 77.3069Z" fill="#263238"/>
<path d="M58.2709 76.5603C56.7216 76.8776 57.4683 79.9483 58.9056 79.6543C60.3429 79.3603 59.5683 76.2943 58.2709 76.5603Z" fill="#263238"/>
<path d="M57.7063 76.868C57.4823 77.1107 57.291 77.4794 56.9783 77.5914C56.6657 77.7034 56.2504 77.4654 55.933 77.2134C55.9004 77.19 55.877 77.2134 55.8864 77.2647C56.0217 77.8527 56.395 78.4034 57.0484 78.338C57.7017 78.2727 57.9304 77.6567 57.9304 77.0267C57.935 76.91 57.7997 76.7747 57.7063 76.868Z" fill="#263238"/>
<path d="M64.8555 75.6225C64.8555 75.5851 64.9441 75.6505 64.9488 75.6878C65.1448 76.6491 65.5275 77.7178 66.4655 77.8298C66.4935 77.8298 66.5028 77.8811 66.4655 77.8858C65.3828 77.9838 64.8881 76.5605 64.8555 75.6225Z" fill="#263238"/>
<path d="M65.4667 74.4276C66.9694 73.9609 67.8001 76.9942 66.4001 77.4376C65.0001 77.8809 64.2114 74.8242 65.4667 74.4276Z" fill="#263238"/>
<path d="M66.1666 74.4515C66.4512 74.5448 66.7686 74.7735 67.0626 74.7128C67.3566 74.6522 67.5572 74.2462 67.6832 73.8682C67.6832 73.8308 67.7299 73.8682 67.7392 73.8682C67.9166 74.4468 67.8932 75.1048 67.3612 75.3708C66.8292 75.6368 66.3672 75.2168 66.0686 74.6755C66.0126 74.6008 66.0499 74.4002 66.1666 74.4515Z" fill="#263238"/>
<path d="M61.556 84.9792C61.8267 85.1612 62.116 85.4458 62.4894 85.3852C62.8464 85.3078 63.1833 85.1568 63.4787 84.9419C63.4843 84.935 63.4923 84.9307 63.5011 84.9299C63.5098 84.929 63.5185 84.9316 63.5254 84.9372C63.5322 84.9428 63.5365 84.9508 63.5373 84.9596C63.5382 84.9683 63.5356 84.977 63.53 84.9838C63.4289 85.1996 63.2716 85.3841 63.0745 85.518C62.8774 85.6519 62.6478 85.7301 62.41 85.7445C62.2018 85.7341 62.0014 85.6613 61.835 85.5357C61.6686 85.41 61.5438 85.2373 61.4767 85.0399C61.444 84.9885 61.514 84.9559 61.556 84.9792Z" fill="#263238"/>
<path d="M64.6874 80.238C64.6874 80.238 65.2427 81.6053 65.4154 82.2727C65.4154 82.338 63.1194 83.458 61.6354 82.086C61.6199 82.0755 61.6092 82.0593 61.6057 82.0409C61.6022 82.0225 61.6062 82.0035 61.6167 81.988C61.6272 81.9725 61.6435 81.9619 61.6618 81.9584C61.6802 81.9549 61.6992 81.9588 61.7147 81.9693C62.7155 82.3339 63.8074 82.365 64.8274 82.058C64.8274 81.862 63.7914 79.748 63.894 79.7247C64.4247 79.6374 64.9646 79.6217 65.4994 79.678C64.4167 76.7987 62.886 74.1153 61.8547 71.2267C61.8456 71.2053 61.8447 71.1813 61.8524 71.1593C61.86 71.1374 61.8756 71.1191 61.896 71.108C61.9164 71.0969 61.9403 71.0938 61.9628 71.0994C61.9854 71.1049 62.0051 71.1187 62.018 71.138C63.824 73.84 65.14 77.13 66.33 80.0747C66.4887 80.434 65 80.2847 64.6874 80.238Z" fill="#263238"/>
<path d="M64.8228 82.3798C64.5749 82.9992 64.1734 83.5452 63.6561 83.9665C63.3657 84.1844 63.0156 84.3081 62.6528 84.3212C61.8548 84.3212 61.6448 83.6632 61.6168 83.0425C61.6055 82.7139 61.6321 82.385 61.6961 82.0625C62.6775 82.5001 63.7734 82.6113 64.8228 82.3798V82.3798Z" fill="#263238"/>
<path d="M63.656 83.9659C63.3656 84.1838 63.0155 84.3075 62.6527 84.3206C61.8547 84.3206 61.6447 83.6626 61.6167 83.0419C62.4334 82.8972 63.3667 83.2146 63.656 83.9659Z" fill="#FF99BA"/>
<path d="M46.931 81.1803C49.6096 81.353 49.9176 75.2256 49.9176 75.2256C49.9176 75.2256 61.1176 72.617 61.519 63.3396C61.519 63.3396 63.8196 69.0983 69.919 71.3943C69.919 71.3943 68.9063 61.3143 60.777 59.8396C60.777 59.8396 50.613 56.8249 45.503 65.0569C40.393 73.2889 45.1343 81.0636 46.931 81.1803Z" fill="#263238"/>
<path d="M61.5186 62.6533C61.7398 64.0688 61.6555 65.5152 61.2713 66.8953C60.9087 68.2979 60.257 69.6093 59.3579 70.7453C59.1375 71.0309 58.899 71.3022 58.6439 71.5573L58.2706 71.954C58.1399 72.0753 57.9999 72.1873 57.8599 72.304C57.5799 72.528 57.3093 72.7707 57.0199 72.9807C56.7306 73.1907 56.4133 73.3633 56.0866 73.55C55.9326 73.6387 55.7833 73.7367 55.6199 73.8207L55.1533 74.0447L54.1779 74.488C53.5059 74.7213 52.8246 74.9173 52.1479 75.104C52.7779 74.782 53.4313 74.5253 54.0519 74.2033L54.9619 73.69L55.4286 73.4333C55.5733 73.34 55.7086 73.2327 55.8486 73.13C56.1286 72.9247 56.4086 72.724 56.6933 72.528C56.9779 72.332 57.2066 72.0613 57.4633 71.8513L57.8506 71.5107L58.1959 71.128C58.4333 70.883 58.6562 70.6244 58.8633 70.3533C59.7114 69.2713 60.3694 68.0531 60.8093 66.7507C61.0344 66.0968 61.2061 65.4257 61.3226 64.744C61.4467 64.0539 61.5123 63.3545 61.5186 62.6533V62.6533Z" fill="#263238"/>
<path d="M48.928 81.0359C48.928 81.0359 44.9986 77.2139 43.2113 78.7026C41.424 80.1913 44.966 86.1366 47.4813 86.5566C47.8 86.6332 48.131 86.6446 48.4542 86.5901C48.7775 86.5355 49.0864 86.4162 49.3623 86.2392C49.6383 86.0622 49.8756 85.8312 50.06 85.5602C50.2443 85.2891 50.372 84.9836 50.4353 84.6619L48.928 81.0359Z" fill="#EB9481"/>
<path d="M44.271 80.378C44.2623 80.378 44.254 80.3815 44.2479 80.3876C44.2417 80.3937 44.2383 80.4021 44.2383 80.4107C44.2383 80.4194 44.2417 80.4277 44.2479 80.4338C44.254 80.4399 44.2623 80.4434 44.271 80.4434C46.049 80.7934 47.2063 82.156 48.121 83.6214C47.5143 83.108 46.7816 82.9027 46.0769 83.6214C46.0396 83.6634 46.077 83.7194 46.1376 83.7007C46.4102 83.5539 46.7214 83.4948 47.0288 83.5315C47.3362 83.5683 47.6247 83.6991 47.8549 83.906C48.2381 84.2535 48.5823 84.6416 48.8816 85.0634C48.9843 85.1987 49.2363 85.0634 49.1476 84.9094L49.1243 84.872C48.7603 82.8 46.5623 80.1587 44.271 80.378Z" fill="#263238"/>
<path d="M46.2403 79.0894C46.2403 79.0894 43.6923 72.2994 44.5743 67.866C45.5543 62.9287 51.6723 57.296 58.6676 59.4053C58.6676 59.4053 50.3469 60.6513 47.4069 67.3387C46.0536 70.4187 48.6109 78.5714 48.6109 78.5714L46.2403 79.0894Z" fill="#C7C7C7"/>
<path d="M50.1699 88.767C53.2581 87.8051 54.8725 84.1708 53.7758 80.6495C52.679 77.1282 49.2864 75.0533 46.1982 76.0152C43.1099 76.9771 41.4955 80.6114 42.5923 84.1327C43.6891 87.654 47.0817 89.7289 50.1699 88.767Z" fill="#C7C7C7"/>
<path d="M52.0921 80.9332C53.0768 84.0972 51.6255 87.3638 48.8255 88.2272C46.0255 89.0905 43.0015 87.2285 42.0122 84.0645C41.0228 80.9005 42.4788 77.6338 45.2788 76.7658C48.0788 75.8978 51.1075 77.7878 52.0921 80.9332Z" fill="#455A64"/>
<path d="M57.2534 96.9541L54.6868 103.431L46.6134 95.2881L44.3501 97.9201C44.3501 97.9201 52.2834 110.884 52.3114 110.296L54.9528 104.696L58.8168 108.555L58.4668 98.8394L57.2534 96.9541Z" fill="#EBEBEB"/>
<path d="M58.9334 103.748C58.8167 102.147 58.7514 100.523 58.5647 98.9275C58.5647 98.8715 58.4667 98.8481 58.4527 98.9275C58.1401 100.477 58.6021 106.613 58.6021 108.083C58.4434 107.915 55.0227 104.686 54.9901 104.737C54.4161 105.624 52.4794 109.693 52.3487 110.062C51.0934 108.004 45.7827 99.8888 44.3034 97.9288C44.2946 97.9199 44.283 97.9141 44.2706 97.9126C44.2581 97.911 44.2455 97.9136 44.2347 97.9201C44.2239 97.9266 44.2157 97.9365 44.2112 97.9482C44.2067 97.9599 44.2063 97.9728 44.2101 97.9848C45.3161 100.159 52.1761 110.869 52.2741 110.841C53.2946 108.922 54.2167 106.952 55.0367 104.938C55.6154 105.643 59.0687 109.287 59.0781 109.049C59.1214 107.281 59.0731 105.512 58.9334 103.748Z" fill="#263238"/>
<path d="M103.958 53.7966C103.677 56.4811 102.657 59.0349 101.01 61.1731C99.3628 63.3113 97.1539 64.9498 94.6299 65.9057C92.1058 66.8616 89.3657 67.0973 86.7154 66.5866C84.0652 66.0759 81.609 64.8387 79.6209 63.0133L72.3315 64.0819L75.9809 57.7819C75.1549 55.7327 74.806 53.5225 74.9605 51.3185C75.115 49.1145 75.769 46.9746 76.8728 45.0606C77.9766 43.1467 79.5014 41.509 81.3317 40.2715C83.162 39.034 85.2498 38.2291 87.4372 37.9178C89.6245 37.6065 91.854 37.7968 93.9569 38.4745C96.0598 39.1522 97.981 40.2994 99.575 41.8294C101.169 43.3593 102.394 45.2318 103.157 47.3051C103.921 49.3785 104.202 51.5983 103.981 53.7966H103.958Z" fill="white"/>
<path d="M103.957 53.7957C103.675 56.4816 102.658 59.0378 101.017 61.183C100.212 62.2546 99.2487 63.1986 98.1614 63.983C97.0878 64.7967 95.9048 65.455 94.6474 65.9384C93.389 66.4306 92.068 66.7448 90.7227 66.8717C90.0509 66.9331 89.3756 66.9456 88.702 66.909C88.0255 66.893 87.3513 66.8228 86.686 66.699C83.9981 66.2152 81.4981 64.9919 79.4667 63.1664L79.6394 63.2177L72.3594 64.3377L71.832 64.417L72.098 63.9504L75.7334 57.6364V57.8884C74.8786 55.8001 74.5153 53.5432 74.6714 51.2921C74.8276 49.0411 75.4991 46.856 76.634 44.9057C77.7673 42.9627 79.3261 41.3018 81.1934 40.0477C83.0591 38.8122 85.1803 38.015 87.398 37.716C89.6157 37.4169 91.8723 37.6238 93.9987 38.321C96.0991 39.0387 98.0125 40.217 99.5987 41.7697C101.187 43.3143 102.405 45.199 103.16 47.282C103.915 49.365 104.187 51.5921 103.957 53.7957ZM103.957 53.7957C104.19 51.6019 103.916 49.3839 103.156 47.3127C102.397 45.2415 101.172 43.3724 99.5757 41.8494C97.9796 40.3264 96.0552 39.1901 93.9507 38.5282C91.8462 37.8663 89.6179 37.6965 87.4374 38.0317C85.2771 38.3562 83.2195 39.1703 81.422 40.4117C79.6419 41.6605 78.1546 43.2815 77.0634 45.1624C75.9896 47.0501 75.3578 49.1566 75.2155 51.3237C75.0732 53.4907 75.4242 55.6619 76.242 57.6737L76.2934 57.8044L76.2234 57.921L72.5554 64.2117L72.294 63.8244L79.588 62.8024H79.6907L79.7607 62.8724C81.7152 64.6967 84.139 65.9409 86.7607 66.4657C87.4115 66.5963 88.0715 66.6759 88.7347 66.7037C89.3981 66.7504 90.064 66.7504 90.7274 66.7037C92.0579 66.5999 93.3676 66.3125 94.6194 65.8497C95.8783 65.3962 97.0627 64.7577 98.1334 63.955C99.2277 63.1758 100.194 62.2312 100.999 61.155C102.644 59.0214 103.668 56.4746 103.957 53.7957V53.7957Z" fill="#263238"/>
<path d="M95.828 54.487C96.8022 54.487 97.592 53.6972 97.592 52.723C97.592 51.7488 96.8022 50.959 95.828 50.959C94.8537 50.959 94.064 51.7488 94.064 52.723C94.064 53.6972 94.8537 54.487 95.828 54.487Z" fill="#263238"/>
<path d="M89.5047 54.487C90.479 54.487 91.2687 53.6972 91.2687 52.723C91.2687 51.7488 90.479 50.959 89.5047 50.959C88.5305 50.959 87.7407 51.7488 87.7407 52.723C87.7407 53.6972 88.5305 54.487 89.5047 54.487Z" fill="#263238"/>
<path d="M83.1859 54.487C84.1601 54.487 84.9499 53.6972 84.9499 52.723C84.9499 51.7488 84.1601 50.959 83.1859 50.959C82.2116 50.959 81.4219 51.7488 81.4219 52.723C81.4219 53.6972 82.2116 54.487 83.1859 54.487Z" fill="#263238"/>
<path d="M248.867 53.7961C248.587 56.4806 247.566 59.0344 245.919 61.1726C244.272 63.3108 242.063 64.9493 239.539 65.9052C237.015 66.8611 234.275 67.0968 231.625 66.5861C228.974 66.0754 226.518 64.8382 224.53 63.0128L217.241 64.0814L220.885 57.7814C220.056 55.7312 219.704 53.519 219.857 51.3125C220.009 49.1061 220.662 46.9634 221.766 45.0467C222.87 43.1301 224.395 41.49 226.227 40.2506C228.059 39.0112 230.149 38.2051 232.338 37.8934C234.528 37.5818 236.76 37.7727 238.865 38.4518C240.969 39.1309 242.892 40.2802 244.487 41.8128C246.081 43.3453 247.306 45.2208 248.068 47.2971C248.83 49.3733 249.11 51.5958 248.885 53.7961H248.867Z" fill="white"/>
<path d="M248.866 53.7965C248.582 56.4819 247.565 59.0374 245.926 61.1838C245.517 61.715 245.076 62.2214 244.606 62.7005C244.12 63.1658 243.605 63.6006 243.066 64.0025C241.993 64.8181 240.81 65.4765 239.552 65.9578C238.295 66.4503 236.976 66.7644 235.632 66.8911C234.959 66.9526 234.282 66.9651 233.606 66.9285C232.93 66.9122 232.256 66.8419 231.59 66.7185C228.905 66.2253 226.41 64.9939 224.385 63.1625L224.558 63.2138L217.278 64.3338L216.75 64.4131L217.016 63.9465L220.643 57.6325V57.8845C219.788 55.7963 219.425 53.5398 219.58 51.2889C219.735 49.038 220.405 46.8528 221.538 44.9018C222.673 42.9586 224.234 41.2977 226.102 40.0438C227.968 38.8083 230.089 38.0111 232.307 37.7121C234.525 37.413 236.781 37.6199 238.908 38.3171C241.009 39.0342 242.922 40.2126 244.508 41.7658C246.098 43.3103 247.316 45.1957 248.071 47.2797C248.826 49.3637 249.098 51.592 248.866 53.7965V53.7965ZM248.866 53.7965C249.099 51.6027 248.825 49.3847 248.066 47.3135C247.306 45.2423 246.081 43.3732 244.485 41.8501C242.889 40.3271 240.964 39.1909 238.86 38.529C236.755 37.8671 234.527 37.6972 232.346 38.0325C230.186 38.357 228.129 39.171 226.331 40.4125C224.551 41.6612 223.064 43.2823 221.972 45.1631C220.891 47.05 220.253 49.158 220.106 51.3278C219.969 53.4931 220.318 55.6617 221.128 57.6745L221.184 57.8051L221.114 57.9218L217.446 64.2125L217.184 63.8251L224.478 62.8031H224.581L224.651 62.8731C226.599 64.6937 229.014 65.9376 231.628 66.4665C232.279 66.5971 232.939 66.6767 233.602 66.7045C234.265 66.7511 234.931 66.7511 235.594 66.7045C236.925 66.6007 238.235 66.3133 239.487 65.8505C240.745 65.3961 241.929 64.7576 243 63.9558C244.092 63.1749 245.057 62.2305 245.861 61.1558C247.525 59.0283 248.566 56.4806 248.866 53.7965Z" fill="#263238"/>
<path d="M240.714 54.487C241.688 54.487 242.478 53.6972 242.478 52.723C242.478 51.7488 241.688 50.959 240.714 50.959C239.74 50.959 238.95 51.7488 238.95 52.723C238.95 53.6972 239.74 54.487 240.714 54.487Z" fill="#263238"/>
<path d="M234.395 54.487C235.37 54.487 236.159 53.6972 236.159 52.723C236.159 51.7488 235.37 50.959 234.395 50.959C233.421 50.959 232.631 51.7488 232.631 52.723C232.631 53.6972 233.421 54.487 234.395 54.487Z" fill="#263238"/>
<path d="M229.84 52.7232C229.841 53.0723 229.739 53.4138 229.545 53.7045C229.352 53.9952 229.077 54.222 228.755 54.3563C228.433 54.4905 228.078 54.5261 227.735 54.4585C227.393 54.391 227.078 54.2234 226.831 53.9769C226.584 53.7303 226.415 53.416 226.347 53.0737C226.278 52.7314 226.313 52.3765 226.446 52.0539C226.58 51.7313 226.806 51.4555 227.096 51.2615C227.386 51.0674 227.727 50.9639 228.076 50.9639C228.544 50.9639 228.991 51.1491 229.322 51.4789C229.653 51.8087 229.839 52.2562 229.84 52.7232V52.7232Z" fill="#263238"/>
<path d="M79.8403 157.079H76.7183V159.118H79.8403V157.079Z" fill="#455A64"/>
<path d="M83.8906 156.943H80.7686V158.983H83.8906V156.943Z" fill="#455A64"/>
<path d="M87.9413 156.809H84.8193V158.848H87.9413V156.809Z" fill="#455A64"/>
<path d="M91.9872 156.673H88.8652V158.712H91.9872V156.673Z" fill="#455A64"/>
<path d="M96.038 156.538H92.916V158.577H96.038V156.538Z" fill="#455A64"/>
<path d="M100.089 156.407H96.9668V158.447H100.089V156.407Z" fill="#455A64"/>
<path d="M104.135 156.271H101.013V158.311H104.135V156.271Z" fill="#455A64"/>
<path d="M108.185 156.137H105.063V158.176H108.185V156.137Z" fill="#455A64"/>
<path d="M112.231 156.001H109.109V158.04H112.231V156.001Z" fill="#455A64"/>
<path d="M112.997 160.289H75.9526V157.807L112.997 156.775V160.289Z" fill="#37474F"/>
<path d="M149.154 150.508H88.002L97.7273 104.98H158.879L149.154 150.508Z" fill="#455A64"/>
<path d="M151.417 150.508H90.2607L99.9861 104.98H161.143L151.417 150.508Z" fill="#37474F"/>
<path d="M130.987 125.108C130.799 126.144 130.262 127.085 129.464 127.773C128.667 128.461 127.658 128.854 126.605 128.888C126.13 128.902 125.658 128.809 125.224 128.615C124.79 128.421 124.405 128.132 124.1 127.768C123.794 127.404 123.574 126.976 123.458 126.515C123.341 126.054 123.331 125.573 123.427 125.108C123.612 124.071 124.148 123.129 124.945 122.44C125.742 121.751 126.751 121.357 127.804 121.323C128.28 121.307 128.753 121.4 129.188 121.594C129.623 121.788 130.008 122.078 130.315 122.442C130.621 122.807 130.841 123.236 130.957 123.698C131.074 124.159 131.084 124.641 130.987 125.108V125.108Z" fill="#263238"/>
<path d="M134.123 162.399H104.046V160.061L134.123 159.091V162.399Z" fill="#455A64"/>
<path d="M142.299 162.394H126.147L116.422 136.882H132.573L142.299 162.394Z" fill="#455A64"/>
<path d="M144.954 162.394H128.807L119.082 136.882H135.229L144.954 162.394Z" fill="#263238"/>
<path d="M74.8001 163.02H43.8041C41.1581 163.02 44.9848 155.483 54.6448 152.594C64.3048 149.706 77.8568 160.192 74.8001 163.02Z" fill="#37474F"/>
<path d="M62.667 163.019C62.6879 162.161 62.8292 161.309 63.087 160.49C63.3358 159.662 63.6853 158.867 64.1277 158.124C64.5711 157.376 65.1267 156.701 65.775 156.122C66.4179 155.547 67.1573 155.091 67.959 154.773C67.6277 155.044 67.2497 155.24 66.9463 155.534L66.4797 155.94L66.041 156.407C65.4677 157.007 64.9651 157.671 64.543 158.385C64.1138 159.1 63.7454 159.849 63.4417 160.625C63.1304 161.405 62.8716 162.205 62.667 163.019V163.019Z" fill="#263238"/>
<path d="M66.3159 155.847C68.1604 156.43 69.9054 157.291 71.4912 158.399C72.2938 158.954 73.0202 159.611 73.6519 160.355C74.3145 161.094 74.7176 162.03 74.7999 163.019C74.543 162.107 74.0505 161.278 73.3719 160.616C72.7107 159.943 71.9872 159.333 71.2112 158.796C70.4412 158.241 69.6339 157.741 68.8126 157.251C67.9912 156.761 67.1653 156.299 66.3159 155.847Z" fill="#263238"/>
<path d="M223.041 157.079H219.919V159.118H223.041V157.079Z" fill="#455A64"/>
<path d="M227.092 156.943H223.97V158.983H227.092V156.943Z" fill="#455A64"/>
<path d="M231.143 156.809H228.021V158.848H231.143V156.809Z" fill="#455A64"/>
<path d="M235.189 156.673H232.067V158.712H235.189V156.673Z" fill="#455A64"/>
<path d="M239.239 156.538H236.117V158.577H239.239V156.538Z" fill="#455A64"/>
<path d="M243.29 156.407H240.168V158.447H243.29V156.407Z" fill="#455A64"/>
<path d="M247.336 156.271H244.214V158.311H247.336V156.271Z" fill="#455A64"/>
<path d="M251.387 156.137H248.265V158.176H251.387V156.137Z" fill="#455A64"/>
<path d="M255.437 156.001H252.315V158.04H255.437V156.001Z" fill="#455A64"/>
<path d="M256.203 160.289H219.159V157.807L256.203 156.775V160.289Z" fill="#37474F"/>
<path d="M292.356 150.508H231.204L240.929 104.98H302.081L292.356 150.508Z" fill="#455A64"/>
<path d="M294.619 150.508H233.467L243.192 104.98H304.344L294.619 150.508Z" fill="#37474F"/>
<path d="M274.188 125.108C274.001 126.143 273.464 127.083 272.667 127.771C271.871 128.459 270.863 128.853 269.811 128.888C269.335 128.903 268.863 128.811 268.428 128.617C267.994 128.423 267.609 128.134 267.302 127.77C266.996 127.406 266.776 126.977 266.659 126.516C266.542 126.055 266.532 125.574 266.628 125.108C266.814 124.071 267.351 123.13 268.147 122.441C268.944 121.752 269.953 121.358 271.005 121.323C271.481 121.307 271.955 121.4 272.389 121.594C272.824 121.788 273.21 122.078 273.516 122.442C273.822 122.807 274.042 123.236 274.159 123.698C274.275 124.159 274.285 124.641 274.188 125.108V125.108Z" fill="#263238"/>
<path d="M277.324 162.399H247.248V160.061L277.324 159.091V162.399Z" fill="#455A64"/>
<path d="M285.5 162.394H269.349L259.624 136.882H275.775L285.5 162.394Z" fill="#455A64"/>
<path d="M288.16 162.394H272.009L262.284 136.882H278.435L288.16 162.394Z" fill="#263238"/>
<path d="M218.015 163.02H187.005C184.359 163.02 188.186 155.483 197.846 152.594C207.506 149.706 221.058 160.192 218.015 163.02Z" fill="#37474F"/>
<path d="M205.845 163.019C205.868 162.161 206.009 161.31 206.265 160.49C206.516 159.663 206.865 158.868 207.305 158.124C207.752 157.379 208.307 156.704 208.953 156.122C209.596 155.547 210.335 155.091 211.137 154.773C210.805 155.044 210.427 155.24 210.124 155.534L209.657 155.94L209.219 156.407C208.643 157.006 208.138 157.67 207.716 158.385C207.287 159.1 206.918 159.849 206.615 160.625C206.305 161.405 206.048 162.205 205.845 163.019V163.019Z" fill="#263238"/>
<path d="M209.518 155.847C211.362 156.43 213.107 157.291 214.693 158.399C215.496 158.955 216.224 159.612 216.858 160.355C217.519 161.089 217.925 162.017 218.016 163.001C217.757 162.088 217.263 161.259 216.583 160.597C215.922 159.924 215.198 159.315 214.422 158.777C213.657 158.222 212.845 157.723 212.024 157.233C211.202 156.743 210.372 156.299 209.518 155.847Z" fill="#263238"/>
</svg>
