<svg width="50" height="50" viewBox="0 0 50 50" fill="none" xmlns="http://www.w3.org/2000/svg">
<circle opacity="0.2" cx="25" cy="25" r="25" fill="#44779D"/>
<path d="M37 16.9732C32.56 16.5332 28.0933 16.3065 23.64 16.3065C21 16.3065 18.36 16.4398 15.72 16.7065L13 16.9732M20.3333 15.6265L20.6267 13.8798C20.84 12.6132 21 11.6665 23.2533 11.6665H26.7467C29 11.6665 29.1733 12.6665 29.3733 13.8932L29.6667 15.6265M34.1333 21.1865L33.2667 34.6132C33.12 36.7065 33 38.3332 29.28 38.3332H20.72C17 38.3332 16.88 36.7065 16.7333 34.6132L15.8667 21.1865M22.7733 30.9998H27.2133M21.6667 25.6665H28.3333" stroke="#D46B8D" stroke-width="2" stroke-linecap="round" stroke-linejoin="round"/>
</svg>
