<svg width="46" height="46" viewBox="0 0 46 46" fill="none" xmlns="http://www.w3.org/2000/svg">
<circle cx="23" cy="23" r="19.5" fill="#ABABAB" stroke="white"/>
<g clip-path="url(#clip0_4263_8509)">
<path d="M23.0002 3.83325C12.4202 3.83325 3.8335 12.4199 3.8335 22.9999C3.8335 33.5799 12.4202 42.1666 23.0002 42.1666C33.5802 42.1666 42.1668 33.5799 42.1668 22.9999C42.1668 12.4199 33.5802 3.83325 23.0002 3.83325ZM23.0002 9.58325C26.1818 9.58325 28.7502 12.1516 28.7502 15.3333C28.7502 18.5149 26.1818 21.0833 23.0002 21.0833C19.8185 21.0833 17.2502 18.5149 17.2502 15.3333C17.2502 12.1516 19.8185 9.58325 23.0002 9.58325ZM23.0002 36.7999C18.2085 36.7999 13.9727 34.3466 11.5002 30.6283C11.5577 26.8141 19.1668 24.7249 23.0002 24.7249C26.8143 24.7249 34.4427 26.8141 34.5002 30.6283C32.0277 34.3466 27.7918 36.7999 23.0002 36.7999Z" fill="#EBEBEB"/>
</g>
<defs>
<clipPath id="clip0_4263_8509">
<rect width="46" height="46" fill="white"/>
</clipPath>
</defs>
</svg>
