<svg width="3" height="13" viewBox="0 0 3 13" fill="none" xmlns="http://www.w3.org/2000/svg">
<path d="M1.5 0C0.915625 0 0.4375 0.478125 0.4375 1.0625C0.4375 1.64687 0.915625 2.125 1.5 2.125C2.08437 2.125 2.5625 1.64687 2.5625 1.0625C2.5625 0.478125 2.08437 0 1.5 0ZM1.5 10.625C0.915625 10.625 0.4375 11.1031 0.4375 11.6875C0.4375 12.2719 0.915625 12.75 1.5 12.75C2.08437 12.75 2.5625 12.2719 2.5625 11.6875C2.5625 11.1031 2.08437 10.625 1.5 10.625ZM1.5 5.3125C0.915625 5.3125 0.4375 5.79062 0.4375 6.375C0.4375 6.95937 0.915625 7.4375 1.5 7.4375C2.08437 7.4375 2.5625 6.95937 2.5625 6.375C2.5625 5.79062 2.08437 5.3125 1.5 5.3125Z" fill="black"/>
</svg>
