<svg width="54" height="70" viewBox="0 0 54 70" fill="none" xmlns="http://www.w3.org/2000/svg">
<g opacity="0.25" filter="url(#filter0_f_1643_15030)">
<path d="M9 32C9 22.0589 17.0589 14 27 14C36.9411 14 45 22.0589 45 32V43.5714C45 53.5125 36.9411 61.5714 27 61.5714C17.0589 61.5714 9 53.5125 9 43.5714V32Z" fill="#FFC24C"/>
</g>
<circle cx="27" cy="27" r="27" fill="#FFC24D"/>
<path d="M18.3337 35.6668C17.7378 35.6668 17.2279 35.4549 16.804 35.0309C16.3793 34.6062 16.167 34.096 16.167 33.5002V20.5002C16.167 19.9043 16.3793 19.3944 16.804 18.9705C17.2279 18.5458 17.7378 18.3335 18.3337 18.3335H35.667C36.2628 18.3335 36.7731 18.5458 37.1977 18.9705C37.6217 19.3944 37.8337 19.9043 37.8337 20.5002V33.5002C37.8337 34.096 37.6217 34.6062 37.1977 35.0309C36.7731 35.4549 36.2628 35.6668 35.667 35.6668H18.3337ZM27.0003 27.8939C27.0906 27.8939 27.1852 27.8802 27.2842 27.8527C27.3838 27.826 27.4788 27.7856 27.5691 27.7314L35.2337 22.9377C35.3781 22.8474 35.4864 22.7347 35.5587 22.5997C35.6309 22.4639 35.667 22.3147 35.667 22.1522C35.667 21.7911 35.5135 21.5203 35.2066 21.3397C34.8996 21.1592 34.5837 21.1682 34.2587 21.3668L27.0003 25.9168L19.742 21.3668C19.417 21.1682 19.101 21.1635 18.7941 21.3527C18.4871 21.5427 18.3337 21.8092 18.3337 22.1522C18.3337 22.3328 18.3698 22.4906 18.442 22.6257C18.5142 22.7614 18.6225 22.8654 18.767 22.9377L26.4316 27.7314C26.5219 27.7856 26.6168 27.826 26.7165 27.8527C26.8154 27.8802 26.91 27.8939 27.0003 27.8939Z" fill="white"/>
<defs>
<filter id="filter0_f_1643_15030" x="1" y="6" width="52" height="63.5713" filterUnits="userSpaceOnUse" color-interpolation-filters="sRGB">
<feFlood flood-opacity="0" result="BackgroundImageFix"/>
<feBlend mode="normal" in="SourceGraphic" in2="BackgroundImageFix" result="shape"/>
<feGaussianBlur stdDeviation="4" result="effect1_foregroundBlur_1643_15030"/>
</filter>
</defs>
</svg>
