<svg width="54" height="70" viewBox="0 0 54 70" fill="none" xmlns="http://www.w3.org/2000/svg">
<g opacity="0.25" filter="url(#filter0_f_1558_15007)">
<path d="M9 32C9 22.0589 17.0589 14 27 14C36.9411 14 45 22.0589 45 32V43.5714C45 53.5125 36.9411 61.5714 27 61.5714C17.0589 61.5714 9 53.5125 9 43.5714V32Z" fill="#007FFF"/>
</g>
<circle cx="27" cy="27" r="27" fill="#007FFF"/>
<path fill-rule="evenodd" clip-rule="evenodd" d="M27.0018 15C20.2423 15 15 19.952 15 26.642C15 30.1411 16.4345 33.1638 18.7683 35.2513C18.9623 35.427 19.0809 35.6697 19.0901 35.9345L19.1563 38.0707C19.1611 38.2278 19.2044 38.3813 19.2824 38.5176C19.3605 38.6541 19.4708 38.7692 19.6038 38.8528C19.7368 38.9364 19.8884 38.9861 20.0451 38.9975C20.2018 39.0088 20.3589 38.9814 20.5025 38.9177L22.8851 37.8675C23.0883 37.7792 23.3136 37.7618 23.5251 37.8188C24.6193 38.1194 25.7844 38.2823 26.9982 38.2823C33.7577 38.2823 39 33.3312 39 26.6411C39 19.952 33.7586 15 27.0018 15ZM33.3035 24.0948L30.2984 28.861C30.1853 29.0404 30.0362 29.1945 29.8607 29.3135C29.6851 29.4324 29.4869 29.5137 29.2783 29.5523C29.0698 29.5908 28.8556 29.5856 28.649 29.5373C28.4425 29.4889 28.2484 29.3983 28.0787 29.2712L25.6878 27.4797C25.5814 27.4002 25.452 27.3572 25.319 27.3572C25.1862 27.3572 25.0568 27.4002 24.9504 27.4797L21.7246 29.9286C21.297 30.2551 20.7315 29.7392 21.0184 29.2849L24.0234 24.5187C24.1365 24.3393 24.2856 24.1852 24.4611 24.0663C24.6367 23.9473 24.835 23.866 25.0435 23.8275C25.2521 23.789 25.4663 23.794 25.6728 23.8424C25.8793 23.8908 26.0735 23.9814 26.2432 24.1086L28.634 25.9C28.7405 25.9794 28.8698 26.0225 29.0028 26.0225C29.1356 26.0225 29.265 25.9794 29.3714 25.9L32.5973 23.4511C33.0294 23.12 33.595 23.6359 33.3035 24.0948Z" fill="white"/>
<defs>
<filter id="filter0_f_1558_15007" x="1" y="6" width="52" height="63.5713" filterUnits="userSpaceOnUse" color-interpolation-filters="sRGB">
<feFlood flood-opacity="0" result="BackgroundImageFix"/>
<feBlend mode="normal" in="SourceGraphic" in2="BackgroundImageFix" result="shape"/>
<feGaussianBlur stdDeviation="4" result="effect1_foregroundBlur_1558_15007"/>
</filter>
</defs>
</svg>
