<svg width="112" height="108" viewBox="0 0 112 108" fill="none" xmlns="http://www.w3.org/2000/svg">
<path d="M97.5 90.5H0V80.75H4.875V46.7761C4.875 22.4596 24.5213 2.75 48.75 2.75C72.9787 2.75 92.625 22.4596 92.625 46.7761V80.75H97.5V90.5ZM36.5625 95.375H60.9375C60.9375 98.6073 59.6535 101.707 57.3679 103.993C55.0823 106.278 51.9823 107.562 48.75 107.562C45.5177 107.562 42.4177 106.278 40.1321 103.993C37.8465 101.707 36.5625 98.6073 36.5625 95.375Z" fill="url(#paint0_linear_4360_4664)"/>
<path d="M75.25 26V24.8362L84.2453 13.8667L84.6308 14.461H75.4042V13H86.0701V14.139L77.1005 25.1333L76.6379 24.539H86.25V26H75.25Z" fill="#9DB4D3"/>
<path d="M95.25 19V17.299L108.334 1.26667L108.895 2.13524H95.4743V0H110.988V1.66476L97.9416 17.7333L97.2687 16.8648H111.25V19H95.25Z" fill="#9DB4D3"/>
<defs>
<linearGradient id="paint0_linear_4360_4664" x1="48.75" y1="2.75" x2="48.75" y2="107.562" gradientUnits="userSpaceOnUse">
<stop stop-color="#CDDEF1"/>
<stop offset="1" stop-color="#E9F3FC"/>
</linearGradient>
</defs>
</svg>
