<svg width="137" height="136" viewBox="0 0 137 136" fill="none" xmlns="http://www.w3.org/2000/svg">
<circle cx="68" cy="68" r="68" fill="#E4EAF2"/>
<path d="M31 44V103.943C31 105.756 33.2188 106.634 34.4589 105.311L44.9063 94.1704C45.2844 93.7672 45.8125 93.5385 46.3652 93.5385H109C110.105 93.5385 111 92.643 111 91.5385V44C111 42.8954 110.105 42 109 42H33C31.8954 42 31 42.8954 31 44Z" fill="white" stroke="#44779D" stroke-width="2"/>
<mask id="path-3-inside-1_3081_3697" fill="white">
<path d="M66.2943 55.2353C66.2943 56.3168 66.0813 57.3877 65.6674 58.3868C65.2536 59.386 64.647 60.2938 63.8823 61.0585C63.1175 61.8232 62.2097 62.4299 61.2105 62.8437C60.2114 63.2576 59.1405 63.4706 58.059 63.4706C56.9776 63.4706 55.9067 63.2576 54.9075 62.8437C53.9084 62.4299 53.0005 61.8232 52.2358 61.0585C51.4711 60.2938 50.8645 59.386 50.4506 58.3868C50.0367 57.3877 49.8237 56.3168 49.8237 55.2353H51.4844C51.4844 56.0987 51.6545 56.9536 51.9849 57.7513C52.3153 58.5489 52.7996 59.2737 53.4101 59.8842C54.0206 60.4947 54.7454 60.979 55.543 61.3094C56.3407 61.6398 57.1956 61.8099 58.059 61.8099C58.9224 61.8099 59.7773 61.6398 60.575 61.3094C61.3727 60.979 62.0974 60.4947 62.708 59.8842C63.3185 59.2737 63.8027 58.5489 64.1331 57.7513C64.4635 56.9536 64.6336 56.0987 64.6336 55.2353H66.2943Z"/>
</mask>
<path d="M66.2943 55.2353C66.2943 56.3168 66.0813 57.3877 65.6674 58.3868C65.2536 59.386 64.647 60.2938 63.8823 61.0585C63.1175 61.8232 62.2097 62.4299 61.2105 62.8437C60.2114 63.2576 59.1405 63.4706 58.059 63.4706C56.9776 63.4706 55.9067 63.2576 54.9075 62.8437C53.9084 62.4299 53.0005 61.8232 52.2358 61.0585C51.4711 60.2938 50.8645 59.386 50.4506 58.3868C50.0367 57.3877 49.8237 56.3168 49.8237 55.2353H51.4844C51.4844 56.0987 51.6545 56.9536 51.9849 57.7513C52.3153 58.5489 52.7996 59.2737 53.4101 59.8842C54.0206 60.4947 54.7454 60.979 55.543 61.3094C56.3407 61.6398 57.1956 61.8099 58.059 61.8099C58.9224 61.8099 59.7773 61.6398 60.575 61.3094C61.3727 60.979 62.0974 60.4947 62.708 59.8842C63.3185 59.2737 63.8027 58.5489 64.1331 57.7513C64.4635 56.9536 64.6336 56.0987 64.6336 55.2353H66.2943Z" fill="white" stroke="#44779D" stroke-width="2" mask="url(#path-3-inside-1_3081_3697)"/>
<mask id="path-4-inside-2_3081_3697" fill="white">
<path d="M93.3529 55.2353C93.3529 56.3168 93.1399 57.3877 92.726 58.3868C92.3122 59.386 91.7056 60.2938 90.9409 61.0585C90.1761 61.8232 89.2683 62.4299 88.2691 62.8437C87.27 63.2576 86.1991 63.4706 85.1176 63.4706C84.0361 63.4706 82.9653 63.2576 81.9661 62.8437C80.967 62.4299 80.0591 61.8232 79.2944 61.0585C78.5297 60.2938 77.9231 59.386 77.5092 58.3868C77.0953 57.3877 76.8823 56.3168 76.8823 55.2353H78.543C78.543 56.0987 78.7131 56.9536 79.0435 57.7513C79.3739 58.5489 79.8582 59.2737 80.4687 59.8842C81.0792 60.4947 81.804 60.979 82.6016 61.3094C83.3993 61.6398 84.2542 61.8099 85.1176 61.8099C85.981 61.8099 86.8359 61.6398 87.6336 61.3094C88.4313 60.979 89.156 60.4947 89.7665 59.8842C90.3771 59.2737 90.8613 58.5489 91.1917 57.7513C91.5221 56.9536 91.6922 56.0987 91.6922 55.2353H93.3529Z"/>
</mask>
<path d="M93.3529 55.2353C93.3529 56.3168 93.1399 57.3877 92.726 58.3868C92.3122 59.386 91.7056 60.2938 90.9409 61.0585C90.1761 61.8232 89.2683 62.4299 88.2691 62.8437C87.27 63.2576 86.1991 63.4706 85.1176 63.4706C84.0361 63.4706 82.9653 63.2576 81.9661 62.8437C80.967 62.4299 80.0591 61.8232 79.2944 61.0585C78.5297 60.2938 77.9231 59.386 77.5092 58.3868C77.0953 57.3877 76.8823 56.3168 76.8823 55.2353H78.543C78.543 56.0987 78.7131 56.9536 79.0435 57.7513C79.3739 58.5489 79.8582 59.2737 80.4687 59.8842C81.0792 60.4947 81.804 60.979 82.6016 61.3094C83.3993 61.6398 84.2542 61.8099 85.1176 61.8099C85.981 61.8099 86.8359 61.6398 87.6336 61.3094C88.4313 60.979 89.156 60.4947 89.7665 59.8842C90.3771 59.2737 90.8613 58.5489 91.1917 57.7513C91.5221 56.9536 91.6922 56.0987 91.6922 55.2353H93.3529Z" fill="white" stroke="#44779D" stroke-width="2" mask="url(#path-4-inside-2_3081_3697)"/>
<ellipse cx="71.5884" cy="74.9707" rx="6.5" ry="8.5" fill="#44779D"/>
<path d="M71.5592 33.9774V35.254H63V34.2562L69.4377 26.2595H63.1024V24.9829H71.369V25.9807L64.9606 33.9774H71.5592Z" fill="#44779D"/>
<path d="M87 25.5923V27.3795H74.9829V25.9826L84.0214 14.7872H75.1267V13H86.733V14.3969L77.7355 25.5923H87Z" fill="#44779D"/>
<circle cx="108.5" cy="43.5" r="8.5" fill="#FF5F5F"/>
<line x1="5" y1="120.5" x2="63" y2="120.5" stroke="#8C8C8C"/>
<line x1="79" y1="120.5" x2="137" y2="120.5" stroke="#8C8C8C"/>
<line x1="67" y1="120.5" x2="76" y2="120.5" stroke="#8C8C8C"/>
</svg>
