<svg width="74" height="74" viewBox="0 0 74 74" fill="none" xmlns="http://www.w3.org/2000/svg">
<path d="M30.2938 67.1394C28.4952 66.7283 26.7603 66.1887 25.0892 65.5207C23.418 64.8526 21.7869 64.0047 20.1959 62.9769C19.3737 62.463 18.9246 61.7436 18.8485 60.8186C18.7725 59.8936 19.0931 59.0713 19.8105 58.3519C20.3244 57.838 20.9801 57.542 21.7777 57.4639C22.5752 57.3858 23.307 57.5533 23.973 57.9665C25.1036 58.6859 26.2722 59.2903 27.4788 59.7795C28.6854 60.2687 29.9321 60.6665 31.2188 60.9727C31.9383 61.1783 32.5426 61.5771 33.0318 62.1691C33.5211 62.7611 33.7647 63.4158 33.7626 64.1332C33.7626 65.1609 33.4162 65.9708 32.7235 66.5628C32.0308 67.1548 31.2209 67.347 30.2938 67.1394ZM15.4168 53.9581C14.6973 54.6776 13.8874 54.9993 12.9871 54.9232C12.0868 54.8472 11.3807 54.4227 10.8688 53.6498C9.84107 52.1595 8.98082 50.5798 8.2881 48.9107C7.59538 47.2416 7.04243 45.481 6.62926 43.629C6.37232 42.704 6.53985 41.8818 7.13185 41.1623C7.72385 40.4429 8.53271 40.0831 9.55843 40.0831C10.2779 40.0831 10.9459 40.3401 11.5626 40.854C12.1793 41.3679 12.5904 41.9845 12.7959 42.704C13.1043 44.0401 13.5154 45.2991 14.0293 46.4811C14.5432 47.663 15.1341 48.8193 15.8022 49.9498C16.2133 50.5665 16.3808 51.2602 16.3048 52.0311C16.2287 52.8019 15.9327 53.4443 15.4168 53.9581ZM9.63551 33.9165C8.60774 33.9165 7.78551 33.5568 7.16885 32.8373C6.55218 32.1179 6.34663 31.2956 6.55218 30.3706C6.96329 28.572 7.52857 26.8115 8.24801 25.0889C8.96746 23.3663 9.84107 21.761 10.8688 20.2727C11.3827 19.5019 12.0898 19.0908 12.9902 19.0394C13.8905 18.988 14.6994 19.322 15.4168 20.0415C15.9307 20.5554 16.2267 21.1977 16.3048 21.9686C16.3829 22.7394 16.2153 23.4331 15.8022 24.0498C15.1341 25.129 14.5432 26.2719 14.0293 27.4785C13.5154 28.6851 13.1043 29.9575 12.7959 31.2956C12.5904 32.0151 12.1916 32.6318 11.5996 33.1457C11.0076 33.6595 10.3529 33.9165 9.63551 33.9165ZM43.3209 67.0623C42.3959 67.2679 41.5994 67.088 40.9313 66.5227C40.2633 65.9575 39.9293 65.1866 39.9293 64.2102C39.9293 63.4908 40.1739 62.8227 40.6631 62.2061C41.1523 61.5894 41.7556 61.1783 42.473 60.9727C47.9716 59.5338 52.4938 56.618 56.0397 52.2253C59.5855 47.8326 61.3584 42.7574 61.3584 36.9998C61.3584 31.2443 59.5855 26.1311 56.0397 21.6602C52.4938 17.1894 47.9716 14.2859 42.473 12.9498C41.7536 12.7443 41.1492 12.3455 40.66 11.7535C40.1708 11.1615 39.9272 10.5068 39.9293 9.7894C39.9293 8.81301 40.2767 8.02984 40.9714 7.4399C41.6662 6.84995 42.4751 6.65673 43.398 6.86023C50.4383 8.4019 56.2195 11.9734 60.7418 17.5748C65.264 23.1762 67.5251 29.6512 67.5251 36.9998C67.5251 44.297 65.2517 50.7206 60.7048 56.2707C56.1579 61.8207 50.3633 65.4179 43.3209 67.0623ZM23.7418 16.1102C23.0737 16.5213 22.3666 16.6755 21.6204 16.5727C20.8743 16.47 20.2453 16.1616 19.7334 15.6477C19.014 14.9283 18.6923 14.1061 18.7683 13.1811C18.8444 12.2561 19.2946 11.5366 20.1188 11.0227C21.7119 9.99495 23.3563 9.14704 25.0522 8.47898C26.748 7.81092 28.4952 7.27134 30.2938 6.86023C31.2188 6.65467 32.0287 6.8479 32.7235 7.4399C33.4183 8.0319 33.7647 8.81506 33.7626 9.7894C33.7626 10.5088 33.5057 11.1646 32.9918 11.7566C32.4779 12.3486 31.8612 12.7463 31.1418 12.9498C29.857 13.2581 28.598 13.6826 27.3647 14.2232C26.1313 14.7638 24.9237 15.3949 23.7418 16.1102Z" fill="white"/>
<path d="M43.8 27.0833C43.8 25.9327 44.7402 25 45.9 25C47.0598 25 48 25.9327 48 27.0833V47.9167C48 49.0673 47.0598 50 45.9 50C44.7402 50 43.8 49.0673 43.8 47.9167V27.0833ZM27 27.0833C27 25.9327 27.9402 25 29.1 25C30.2598 25 31.2 25.9327 31.2 27.0833V47.9167C31.2 49.0673 30.2598 50 29.1 50C27.9402 50 27 49.0673 27 47.9167V27.0833Z" fill="white"/>
</svg>
