<svg width="50" height="50" viewBox="0 0 50 50" fill="none" xmlns="http://www.w3.org/2000/svg">
<rect width="50" height="50" rx="25" fill="#44779D"/>
<path d="M17.095 33.055L20.266 31.9975L20.821 32.275C22.096 32.911 23.5135 33.25 25 33.25C29.965 33.25 34 29.341 34 25C34 20.659 29.965 16.75 25 16.75C20.035 16.75 16 20.659 16 25C16 26.62 16.585 28.264 17.6605 29.6695L18.178 30.3445L17.0935 33.0535L17.095 33.055ZM16.0345 34.99C15.8988 35.0355 15.7528 35.0412 15.614 35.0064C15.4751 34.9716 15.3491 34.8978 15.2508 34.7937C15.1526 34.6896 15.0861 34.5595 15.0594 34.4189C15.0327 34.2782 15.0468 34.1329 15.1 34L16.468 30.58C15.22 28.945 14.5 26.989 14.5 25C14.5 20.029 19 15.25 25 15.25C31 15.25 35.5 20.029 35.5 25C35.5 29.971 31 34.75 25 34.75C23.3173 34.7547 21.6567 34.3664 20.1505 33.616L16.0345 34.9885V34.99Z" fill="white"/>
<path d="M25 26.1998C24.8425 26.1998 24.6864 26.1688 24.5408 26.1085C24.3952 26.0482 24.263 25.9598 24.1515 25.8483C24.0401 25.7369 23.9517 25.6046 23.8914 25.459C23.8311 25.3134 23.8 25.1574 23.8 24.9998C23.8 24.8422 23.8311 24.6862 23.8914 24.5406C23.9517 24.395 24.0401 24.2627 24.1515 24.1513C24.263 24.0398 24.3952 23.9515 24.5408 23.8911C24.6864 23.8308 24.8425 23.7998 25 23.7998C25.3183 23.7998 25.6235 23.9262 25.8486 24.1513C26.0736 24.3763 26.2 24.6815 26.2 24.9998C26.2 25.3181 26.0736 25.6233 25.8486 25.8483C25.6235 26.0734 25.3183 26.1998 25 26.1998ZM29.5 26.1998C29.3425 26.1998 29.1864 26.1688 29.0408 26.1085C28.8952 26.0482 28.763 25.9598 28.6515 25.8483C28.5401 25.7369 28.4517 25.6046 28.3914 25.459C28.3311 25.3134 28.3 25.1574 28.3 24.9998C28.3 24.8422 28.3311 24.6862 28.3914 24.5406C28.4517 24.395 28.5401 24.2627 28.6515 24.1513C28.763 24.0398 28.8952 23.9515 29.0408 23.8911C29.1864 23.8308 29.3425 23.7998 29.5 23.7998C29.8183 23.7998 30.1235 23.9262 30.3486 24.1513C30.5736 24.3763 30.7 24.6815 30.7 24.9998C30.7 25.3181 30.5736 25.6233 30.3486 25.8483C30.1235 26.0734 29.8183 26.1998 29.5 26.1998ZM20.5 26.1998C20.3425 26.1998 20.1864 26.1688 20.0408 26.1085C19.8952 26.0482 19.763 25.9598 19.6515 25.8483C19.5401 25.7369 19.4517 25.6046 19.3914 25.459C19.3311 25.3134 19.3 25.1574 19.3 24.9998C19.3 24.8422 19.3311 24.6862 19.3914 24.5406C19.4517 24.395 19.5401 24.2627 19.6515 24.1513C19.763 24.0398 19.8952 23.9515 20.0408 23.8911C20.1864 23.8308 20.3425 23.7998 20.5 23.7998C20.8183 23.7998 21.1235 23.9262 21.3486 24.1513C21.5736 24.3763 21.7 24.6815 21.7 24.9998C21.7 25.3181 21.5736 25.6233 21.3486 25.8483C21.1235 26.0734 20.8183 26.1998 20.5 26.1998Z" fill="white"/>
</svg>
