<svg width="51" height="50" viewBox="0 0 51 50" fill="none" xmlns="http://www.w3.org/2000/svg">
<rect x="0.5" width="50" height="50" rx="25" fill="#60D669"/>
<g clip-path="url(#clip0_5115_7482)">
<path d="M14.1012 24.8563C14.1006 26.8728 14.6275 28.8417 15.6294 30.5771L14.0054 36.5066L20.0735 34.9156C21.7518 35.8292 23.6323 36.308 25.5432 36.3081H25.5483C31.8566 36.3081 36.9918 31.1748 36.9945 24.8653C36.9957 21.8079 35.8061 18.9329 33.6448 16.77C31.4839 14.6072 28.6099 13.4155 25.5478 13.4141C19.2387 13.4141 14.1039 18.5471 14.1013 24.8563" fill="url(#paint0_linear_5115_7482)"/>
<path d="M13.6926 24.8527C13.6919 26.9417 14.2377 28.981 15.2753 30.7786L13.593 36.9207L19.8787 35.2726C21.6106 36.2168 23.5606 36.7147 25.5447 36.7154H25.5499C32.0846 36.7154 37.4042 31.3975 37.407 24.8621C37.4081 21.6949 36.1757 18.7166 33.9372 16.4761C31.6984 14.2359 28.7217 13.0013 25.5499 13C19.014 13 13.6952 18.3172 13.6926 24.8527ZM17.4358 30.469L17.2011 30.0965C16.2145 28.5277 15.6938 26.7149 15.6945 24.8534C15.6966 19.4213 20.1175 15.0019 25.5536 15.0019C28.1861 15.003 30.6602 16.0292 32.521 17.8912C34.3818 19.7533 35.4057 22.2287 35.405 24.8614C35.4026 30.2935 30.9817 34.7135 25.5499 34.7135H25.5459C23.7773 34.7126 22.0427 34.2376 20.5299 33.34L20.1699 33.1265L16.4399 34.1045L17.4358 30.4689V30.469Z" fill="url(#paint1_linear_5115_7482)"/>
<path d="M22.5863 19.8977C22.3643 19.4044 22.1308 19.3945 21.9197 19.3858C21.7469 19.3784 21.5493 19.3789 21.3519 19.3789C21.1543 19.3789 20.8333 19.4532 20.5619 19.7495C20.2903 20.0461 19.5249 20.7627 19.5249 22.2203C19.5249 23.678 20.5866 25.0866 20.7346 25.2845C20.8828 25.482 22.7842 28.5689 25.7955 29.7564C28.2982 30.7433 28.8075 30.547 29.3507 30.4975C29.8939 30.4482 31.1036 29.7811 31.3504 29.0892C31.5974 28.3975 31.5974 27.8046 31.5233 27.6807C31.4493 27.5572 31.2517 27.4831 30.9554 27.335C30.659 27.1868 29.2025 26.4701 28.9309 26.3712C28.6593 26.2724 28.4618 26.2231 28.2643 26.5198C28.0667 26.8159 27.4993 27.4831 27.3264 27.6807C27.1536 27.8787 26.9807 27.9034 26.6845 27.7552C26.3881 27.6065 25.4339 27.2941 24.3019 26.2849C23.4212 25.4996 22.8266 24.5298 22.6537 24.2331C22.4809 23.937 22.6352 23.7764 22.7838 23.6288C22.9169 23.496 23.0802 23.2828 23.2284 23.1099C23.3762 22.9369 23.4255 22.8134 23.5243 22.6158C23.6231 22.4181 23.5736 22.2451 23.4997 22.0969C23.4255 21.9487 22.8497 20.4835 22.5863 19.8977Z" fill="white"/>
</g>
<defs>
<linearGradient id="paint0_linear_5115_7482" x1="1163.46" y1="2322.67" x2="1163.46" y2="13.4141" gradientUnits="userSpaceOnUse">
<stop stop-color="#1FAF38"/>
<stop offset="1" stop-color="#60D669"/>
</linearGradient>
<linearGradient id="paint1_linear_5115_7482" x1="1204.29" y1="2405.07" x2="1204.29" y2="13" gradientUnits="userSpaceOnUse">
<stop stop-color="#F9F9F9"/>
<stop offset="1" stop-color="white"/>
</linearGradient>
<clipPath id="clip0_5115_7482">
<rect width="23.814" height="24" fill="white" transform="translate(13.593 13)"/>
</clipPath>
</defs>
</svg>
