<svg width="16" height="9" viewBox="0 0 16 9" fill="none" xmlns="http://www.w3.org/2000/svg">
<path d="M1.175 0.362304C1.3625 0.174804 1.5845 0.0810541 1.841 0.0810541C2.097 0.0810541 2.31875 0.174804 2.50625 0.362304L8 5.85605L13.5125 0.343555C13.6875 0.168555 13.9062 0.0810546 14.1687 0.0810546C14.4312 0.0810547 14.6562 0.174805 14.8437 0.362305C15.0312 0.549805 15.125 0.771805 15.125 1.0283C15.125 1.2843 15.0312 1.50605 14.8437 1.69355L8.525 7.99356C8.45 8.06856 8.36875 8.1218 8.28125 8.1533C8.19375 8.1843 8.1 8.1998 8 8.1998C7.9 8.1998 7.80625 8.1843 7.71875 8.1533C7.63125 8.1218 7.55 8.06856 7.475 7.99356L1.15625 1.6748C0.98125 1.4998 0.893749 1.2843 0.893749 1.0283C0.893749 0.771804 0.987499 0.549804 1.175 0.362304Z" fill="black"/>
</svg>
