<svg width="54" height="70" viewBox="0 0 54 70" fill="none" xmlns="http://www.w3.org/2000/svg">
<g opacity="0.25" filter="url(#filter0_f_1558_15001)">
<path d="M9 32C9 22.0589 17.0589 14 27 14C36.9411 14 45 22.0589 45 32V43.5714C45 53.5125 36.9411 61.5714 27 61.5714C17.0589 61.5714 9 53.5125 9 43.5714V32Z" fill="#00ACEE"/>
</g>
<circle cx="27" cy="27" r="27" fill="#00ACEE"/>
<g clip-path="url(#clip0_1558_15001)">
<path d="M40 18.606C39.2481 19.7278 38.3257 20.6841 37.2327 21.4748C37.2435 21.6869 37.2489 21.9266 37.2489 22.1939C37.2489 23.6793 37.033 25.1664 36.6013 26.6553C36.1695 28.1443 35.5099 29.5695 34.6226 30.9309C33.7353 32.2923 32.6783 33.4984 31.4517 34.5492C30.2252 35.6 28.7507 36.4378 27.0285 37.0627C25.3062 37.6876 23.4604 38 21.4911 38C18.4176 38 15.5873 37.1677 13 35.5032C13.4592 35.5544 13.8996 35.5801 14.3213 35.5801C16.8889 35.5801 19.1822 34.7868 21.2012 33.2002C20.004 33.1782 18.9319 32.8085 17.9847 32.0912C17.0376 31.3739 16.3858 30.4573 16.0293 29.3414C16.3816 29.4088 16.7294 29.4424 17.0725 29.4424C17.5665 29.4424 18.0525 29.3778 18.5306 29.2486C17.253 28.9919 16.1931 28.3536 15.351 27.3337C14.5089 26.3138 14.0878 25.1366 14.0878 23.8022V23.7334C14.872 24.1689 15.7085 24.4006 16.5972 24.4284C15.8404 23.9223 15.2403 23.2623 14.797 22.4484C14.3537 21.6346 14.132 20.7538 14.132 19.8062C14.132 18.8068 14.3817 17.8761 14.8811 17.0142C16.2704 18.7245 17.954 20.0913 19.9316 21.1148C21.9093 22.1384 24.031 22.7068 26.2967 22.8202C26.2001 22.4162 26.1517 21.9946 26.1515 21.5555C26.1515 20.0221 26.6924 18.7129 27.7744 17.6277C28.8563 16.5426 30.1616 16 31.6902 16C33.2906 16 34.6387 16.5845 35.7344 17.7536C36.9862 17.5049 38.1584 17.055 39.2509 16.404C38.83 17.7326 38.019 18.7576 36.8178 19.4789C37.9218 19.3473 38.9825 19.0563 40 18.606H40Z" fill="white"/>
</g>
<defs>
<filter id="filter0_f_1558_15001" x="1" y="6" width="52" height="63.5713" filterUnits="userSpaceOnUse" color-interpolation-filters="sRGB">
<feFlood flood-opacity="0" result="BackgroundImageFix"/>
<feBlend mode="normal" in="SourceGraphic" in2="BackgroundImageFix" result="shape"/>
<feGaussianBlur stdDeviation="4" result="effect1_foregroundBlur_1558_15001"/>
</filter>
<clipPath id="clip0_1558_15001">
<rect width="27" height="22" fill="white" transform="translate(13 16)"/>
</clipPath>
</defs>
</svg>
