<svg width="62" height="62" viewBox="0 0 62 62" fill="none" xmlns="http://www.w3.org/2000/svg">
<path d="M28.0451 41.7622C27.0173 42.4302 25.9639 42.4816 24.8847 41.9164C23.8055 41.3511 23.266 40.4518 23.266 39.2184V22.7226C23.266 21.4893 23.8055 20.59 24.8847 20.0247C25.9639 19.4594 27.0173 19.5108 28.0451 20.1788L40.841 28.3497C41.3035 28.658 41.6508 29.0434 41.8831 29.5059C42.1154 29.9684 42.2305 30.4566 42.2285 30.9705C42.2285 31.4844 42.1133 31.9726 41.8831 32.4351C41.6529 32.8976 41.3055 33.283 40.841 33.5914L28.0451 41.7622ZM24.3451 61.1101C22.5465 60.699 20.8116 60.1594 19.1405 59.4913C17.4693 58.8233 15.8382 57.9754 14.2472 56.9476C13.425 56.4337 12.9758 55.7143 12.8998 54.7893C12.8237 53.8643 13.1444 53.042 13.8618 52.3226C14.3757 51.8087 15.0314 51.5127 15.829 51.4346C16.6265 51.3565 17.3583 51.524 18.0243 51.9372C19.1548 52.6566 20.3234 53.261 21.53 53.7502C22.7366 54.2394 23.9833 54.6372 25.2701 54.9434C25.9896 55.149 26.5939 55.5478 27.0831 56.1398C27.5723 56.7318 27.8159 57.3865 27.8139 58.1038C27.8139 59.1316 27.4675 59.9415 26.7748 60.5335C26.0821 61.1255 25.2722 61.3177 24.3451 61.1101ZM9.46803 47.9288C8.74859 48.6483 7.9387 48.97 7.03837 48.8939C6.13803 48.8179 5.43195 48.3934 4.92012 47.6205C3.89234 46.1302 3.03209 44.5505 2.33937 42.8814C1.64664 41.2123 1.0937 39.4517 0.680534 37.5997C0.42359 36.6747 0.591117 35.8525 1.18312 35.133C1.77512 34.4136 2.58398 34.0538 3.6097 34.0538C4.32914 34.0538 4.9972 34.3108 5.61387 34.8247C6.23053 35.3386 6.64165 35.9552 6.8472 36.6747C7.15553 38.0108 7.56665 39.2698 8.08053 40.4518C8.59442 41.6337 9.1854 42.79 9.85345 43.9205C10.2646 44.5372 10.4321 45.2309 10.356 46.0018C10.28 46.7726 9.98398 47.415 9.46803 47.9288ZM3.68678 27.8872C2.65901 27.8872 1.83678 27.5275 1.22012 26.808C0.603451 26.0886 0.397895 25.2663 0.603451 24.3413C1.01456 22.5427 1.57984 20.7822 2.29928 19.0596C3.01873 17.337 3.89234 15.7317 4.92012 14.2434C5.43401 13.4726 6.14112 13.0615 7.04145 13.0101C7.94178 12.9587 8.75065 13.2927 9.46803 14.0122C9.98192 14.5261 10.2779 15.1684 10.356 15.9393C10.4341 16.7101 10.2666 17.4038 9.85345 18.0205C9.1854 19.0997 8.59442 20.2426 8.08053 21.4492C7.56665 22.6558 7.15553 23.9282 6.8472 25.2663C6.64165 25.9858 6.24287 26.6025 5.65087 27.1164C5.05887 27.6302 4.40417 27.8872 3.68678 27.8872ZM37.3722 61.033C36.4472 61.2386 35.6507 61.0587 34.9826 60.4934C34.3146 59.9282 33.9805 59.1573 33.9805 58.1809C33.9805 57.4615 34.2251 56.7934 34.7144 56.1768C35.2036 55.5601 35.8069 55.149 36.5243 54.9434C42.0229 53.5045 46.5451 50.5887 50.091 46.196C53.6368 41.8033 55.4097 36.7281 55.4097 30.9705C55.4097 25.215 53.6368 20.1018 50.091 15.6309C46.5451 11.1601 42.0229 8.25663 36.5243 6.92051C35.8048 6.71496 35.2005 6.31618 34.7113 5.72418C34.2221 5.13218 33.9785 4.47749 33.9805 3.7601C33.9805 2.78371 34.3279 2.00054 35.0227 1.4106C35.7175 0.820655 36.5263 0.627432 37.4493 0.830932C44.4896 2.3726 50.2708 5.94413 54.793 11.5455C59.3153 17.1469 61.5764 23.6219 61.5764 30.9705C61.5764 38.2677 59.3029 44.6913 54.756 50.2413C50.2091 55.7913 44.4145 59.3886 37.3722 61.033ZM17.793 10.0809C17.125 10.492 16.4179 10.6462 15.6717 10.5434C14.9255 10.4407 14.2965 10.1323 13.7847 9.61843C13.0653 8.89899 12.7436 8.07677 12.8196 7.15177C12.8957 6.22677 13.3458 5.50732 14.1701 4.99343C15.7632 3.96565 17.4076 3.11774 19.1035 2.44968C20.7993 1.78163 22.5465 1.24204 24.3451 0.830932C25.2701 0.625377 26.08 0.818599 26.7748 1.4106C27.4696 2.0026 27.8159 2.78577 27.8139 3.7601C27.8139 4.47954 27.5569 5.13527 27.043 5.72727C26.5291 6.31927 25.9125 6.71701 25.193 6.92051C23.9083 7.22885 22.6493 7.65332 21.416 8.19393C20.1826 8.73454 18.975 9.3656 17.793 10.0809Z" fill="white"/>
</svg>
