<svg width="24" height="24" viewBox="0 0 24 24" fill="none" xmlns="http://www.w3.org/2000/svg">
<g clip-path="url(#clip0_4393_6844)">
<path d="M24 18.3286C24 17.9403 23.6852 17.6255 23.2969 17.6255H22.5465V5.22359C23.3649 4.93335 23.9527 4.15182 23.9527 3.23526V0.704081C23.9527 0.31578 23.6379 0.000976562 23.2496 0.000976562H0.750306C0.362005 0.000976562 0.0472017 0.31578 0.0472017 0.704081V3.2353C0.0472017 4.15187 0.635044 4.93339 1.45341 5.22364V17.6255H0.703104C0.314803 17.6255 0 17.9403 0 18.3286C0 18.652 0.218619 18.9237 0.515938 19.0057V23.2971C0.515938 23.6854 0.830741 24.0002 1.21904 24.0002C1.60734 24.0002 1.92215 23.6854 1.92215 23.2971V19.0317H22.2184V23.2971C22.2184 23.6854 22.5332 24.0002 22.9215 24.0002C23.3098 24.0002 23.6246 23.6854 23.6246 23.2971V18.9504C23.8478 18.8326 24 18.5985 24 18.3286ZM22.5465 3.2353C22.5465 3.623 22.2311 3.93836 21.8434 3.93836C21.4557 3.93836 21.1403 3.62295 21.1403 3.2353V1.40719H22.5465V3.2353ZM19.7341 3.2353C19.7341 3.623 19.4187 3.93836 19.031 3.93836C18.6437 3.93836 18.3286 3.6236 18.3279 3.23652C18.3279 3.2361 18.328 3.23573 18.328 3.2353V1.40719H19.7341V3.2353ZM15.5155 1.40719H16.9217V3.2353C16.9217 3.23573 16.9217 3.2361 16.9217 3.23652C16.9211 3.62365 16.606 3.93836 16.2186 3.93836C15.831 3.93836 15.5155 3.62295 15.5155 3.2353V1.40719ZM14.1093 3.2353C14.1093 3.623 13.7939 3.93836 13.4062 3.93836C13.0187 3.93836 12.7035 3.62328 12.7031 3.23591C12.7031 3.23573 12.7031 3.23554 12.7031 3.2353V1.40719H14.1093V3.2353ZM9.89071 1.40719H11.2969V3.2353V3.23558C11.2967 3.62314 10.9814 3.93836 10.5938 3.93836C10.2061 3.93836 9.89071 3.62295 9.89071 3.2353V1.40719ZM8.4845 3.2353C8.4845 3.623 8.16909 3.93836 7.7814 3.93836C7.3938 3.93836 7.07843 3.62314 7.07829 3.23558C7.07829 3.23549 7.07829 3.2354 7.07829 3.2353V1.40719H8.4845V3.2353ZM4.26587 1.40719H5.67208V3.2353V3.23558C5.6719 3.62314 5.35658 3.93836 4.96898 3.93836C4.58129 3.93836 4.26587 3.62295 4.26587 3.2353V1.40719ZM1.45341 1.40719H2.85962V3.2353C2.85962 3.623 2.54421 3.93836 2.15651 3.93836C1.76882 3.93836 1.45341 3.62295 1.45341 3.2353V1.40719ZM2.85962 5.22359C3.12155 5.13069 3.35981 4.98763 3.56272 4.80571C3.93621 5.14044 4.42909 5.34452 4.96893 5.34452C5.50878 5.34452 6.00165 5.14044 6.37514 4.80571C6.74863 5.14044 7.24151 5.34452 7.78135 5.34452C8.32119 5.34452 8.81407 5.14044 9.18756 4.80571C9.56105 5.14044 10.0539 5.34452 10.5938 5.34452C11.1336 5.34452 11.6265 5.14044 12 4.80571C12.3735 5.14044 12.8663 5.34452 13.4061 5.34452C13.946 5.34452 14.4389 5.14044 14.8124 4.80571C15.1859 5.14044 15.6788 5.34452 16.2186 5.34452C16.7584 5.34452 17.2513 5.14048 17.6248 4.80576C17.9983 5.14048 18.4911 5.34452 19.031 5.34452C19.5708 5.34452 20.0637 5.14044 20.4372 4.80571C20.6401 4.98763 20.8784 5.13069 21.1403 5.22359V17.6255H17.3435V14.9537C17.3435 13.2979 16.0925 11.9294 14.4861 11.7421C14.9243 11.196 15.1873 10.5037 15.1873 9.75069C15.1873 7.99316 13.7575 6.56328 11.9999 6.56328C10.2424 6.56328 8.81252 7.99316 8.81252 9.75069C8.81252 10.5037 9.07558 11.196 9.5138 11.7421C7.90739 11.9294 6.65634 13.2979 6.65634 14.9537V17.6255H2.85957L2.85962 5.22359ZM10.2188 9.75069C10.2188 8.76855 11.0178 7.96949 12 7.96949C12.9821 7.96949 13.7812 8.76855 13.7812 9.75069C13.7812 10.7328 12.9821 11.5319 12 11.5319C11.0178 11.5319 10.2188 10.7328 10.2188 9.75069ZM10.6406 13.1256H13.3594V14.813H10.6406V13.1256ZM9.93754 16.2193H14.0625C14.4508 16.2193 14.7656 15.9044 14.7656 15.5161V13.2479C15.4502 13.5123 15.9374 14.177 15.9374 14.9537V17.6255H8.06259V14.9537C8.06259 14.177 8.54975 13.5123 9.23439 13.2479V15.5161C9.23443 15.9044 9.54924 16.2193 9.93754 16.2193Z" fill="#44779D"/>
<path d="M19.2186 21.8437C18.8309 21.8437 18.5154 21.5283 18.5154 21.1406C18.5154 20.7523 18.2006 20.4375 17.8123 20.4375H6.32831C5.94001 20.4375 5.6252 20.7523 5.6252 21.1406C5.6252 21.5283 5.30979 21.8437 4.9221 21.8437C4.5338 21.8437 4.21899 22.1585 4.21899 22.5468V23.2964C4.21899 23.6847 4.5338 23.9995 4.9221 23.9995C5.3104 23.9995 5.6252 23.6847 5.6252 23.2964V23.1294C6.22369 22.9172 6.6987 22.4421 6.9109 21.8437H17.2297C17.4419 22.4421 17.917 22.9172 18.5154 23.1294V23.2964C18.5154 23.6847 18.8303 23.9995 19.2186 23.9995C19.6069 23.9995 19.9217 23.6847 19.9217 23.2964V22.5468C19.9217 22.1585 19.6069 21.8437 19.2186 21.8437Z" fill="#44779D"/>
</g>
<defs>
<clipPath id="clip0_4393_6844">
<rect width="24" height="24" fill="white"/>
</clipPath>
</defs>
</svg>
