<svg width="54" height="70" viewBox="0 0 54 70" fill="none" xmlns="http://www.w3.org/2000/svg">
<g opacity="0.25" filter="url(#filter0_f_1558_15024)">
<path d="M9 32C9 22.0589 17.0589 14 27 14C36.9411 14 45 22.0589 45 32V43.5714C45 53.5125 36.9411 61.5714 27 61.5714C17.0589 61.5714 9 53.5125 9 43.5714V32Z" fill="#4AC959"/>
</g>
<circle cx="27" cy="27" r="27" fill="#4AC959"/>
<path fill-rule="evenodd" clip-rule="evenodd" d="M23.8247 21.9765C23.5865 21.4872 23.3358 21.4774 23.1092 21.4688C22.9238 21.4615 22.7117 21.4619 22.4999 21.4619C22.2879 21.4619 21.9434 21.5355 21.652 21.8296C21.3605 22.1237 20.5391 22.8345 20.5391 24.2802C20.5391 25.7261 21.6785 27.1232 21.8374 27.3194C21.9964 27.5154 24.037 30.5771 27.2688 31.755C29.9547 32.7338 30.5012 32.5391 31.0842 32.4901C31.6672 32.4412 32.9653 31.7794 33.2303 31.0932C33.4953 30.4072 33.4953 29.8191 33.4158 29.6961C33.3363 29.5737 33.1243 29.5002 32.8063 29.3533C32.4883 29.2063 30.9252 28.4953 30.6337 28.3974C30.3422 28.2994 30.1302 28.2504 29.9182 28.5446C29.7062 28.8385 29.0972 29.5002 28.9117 29.6961C28.7262 29.8925 28.5407 29.917 28.2228 29.7701C27.9048 29.6227 26.8807 29.3127 25.6659 28.3116C24.7207 27.5328 24.0825 26.5709 23.897 26.2767C23.7115 25.9828 23.8772 25.8236 24.0367 25.6771C24.1794 25.5455 24.3547 25.3341 24.5136 25.1625C24.6723 24.9909 24.7253 24.8684 24.8313 24.6725C24.9373 24.4763 24.8843 24.3047 24.8048 24.1578C24.7253 24.0108 24.1074 22.5576 23.8247 21.9765Z" fill="white"/>
<path d="M35.5032 18.4877C33.2469 16.2399 30.2467 15.0014 27.0502 15C20.4633 15 15.103 20.3347 15.1003 26.8919C15.0995 28.988 15.6497 31.034 16.6953 32.8375L15 39L21.3348 37.3463C23.0801 38.2939 25.0453 38.7933 27.0451 38.7941H27.0502H27.0502C33.636 38.7941 38.9972 33.4584 39 26.9015C39.0011 23.7237 37.7592 20.7356 35.5032 18.4877ZM27.0502 36.7855H27.0464C25.2638 36.7846 23.5158 36.3082 21.9911 35.4075L21.6283 35.1933L17.8691 36.1745L18.8727 32.5271L18.6363 32.1531C17.642 30.5792 17.1171 28.7603 17.1179 26.8927C17.12 21.4426 21.5754 17.0087 27.054 17.0087C29.707 17.0098 32.2005 18.0393 34.0759 19.9076C35.9511 21.7758 36.9831 24.2594 36.9823 26.9008C36.98 32.351 32.5245 36.7855 27.0502 36.7855Z" fill="white"/>
<defs>
<filter id="filter0_f_1558_15024" x="1" y="6" width="52" height="63.5713" filterUnits="userSpaceOnUse" color-interpolation-filters="sRGB">
<feFlood flood-opacity="0" result="BackgroundImageFix"/>
<feBlend mode="normal" in="SourceGraphic" in2="BackgroundImageFix" result="shape"/>
<feGaussianBlur stdDeviation="4" result="effect1_foregroundBlur_1558_15024"/>
</filter>
</defs>
</svg>
