<svg width="60" height="60" viewBox="0 0 60 60" fill="none" xmlns="http://www.w3.org/2000/svg">
<circle cx="30" cy="30" r="30" fill="#EAF6FC"/>
<path d="M39.5977 12.0877C39.1477 12.2916 39.007 12.5377 38.5852 13.9018L38.1844 15.1885L31.4766 15.2236C24.8391 15.2588 24.7547 15.2658 24.2203 15.4135C22.1812 15.99 20.7609 17.1572 19.875 18.9853C19.2211 20.3213 19.1719 20.7783 19.1719 25.3979V28.9908L17.7445 29.0189C15.8039 29.0471 16.05 28.8994 13.9828 31.29C13.0828 32.3377 12.2742 33.315 12.1898 33.4697L12.0352 33.751L12.0141 40.4869L12 47.2229L12.2039 47.4338L12.4078 47.6377H30H47.5922L47.7961 47.4338L48 47.2229L47.9859 40.4869C47.9648 34.0252 47.9578 33.7439 47.8312 33.5049C47.7609 33.3713 47.3531 32.858 46.9383 32.3729L46.1789 31.4869L46.1578 26.0447C46.1297 20.6096 46.1297 20.6025 45.975 20.0752C45.4758 18.4299 44.3578 16.9744 43.0148 16.201L42.593 15.9619L42.5859 14.5627C42.5859 13.29 42.5719 13.1283 42.4383 12.8611C42.2344 12.4322 41.9531 12.2846 41.025 12.1299C40.0969 11.9682 39.8859 11.9611 39.5977 12.0877ZM40.5187 13.2549C40.7437 13.2971 41.0391 13.3463 41.1656 13.3674L41.3977 13.4025L41.3766 15.2447L41.3555 17.0869L40.8352 18.7744C40.5469 19.7025 40.3078 20.4689 40.2937 20.483C40.2727 20.5111 39.2461 20.3705 39.0492 20.3143C38.9367 20.2791 38.9297 20.1525 38.9719 18.4369L39.0211 16.5947L39.3305 15.5752C39.8719 13.7963 40.0617 13.1846 40.0828 13.1846C40.0898 13.1846 40.2867 13.2197 40.5187 13.2549ZM37.8047 17.0166V17.6143H31.6383C24.7336 17.6143 24.9234 17.6072 23.9039 18.1064C22.9617 18.5705 22.2234 19.4072 21.8227 20.4689C21.668 20.8838 21.668 20.8908 21.6328 26.7549L21.5977 32.626H21H20.4023V26.8604C20.4023 20.4338 20.3812 20.7291 20.8945 19.6041C21.6398 17.9869 23.0953 16.8479 24.832 16.5244C25.2117 16.4541 26.7727 16.433 31.568 16.426L37.8047 16.4189V17.0166ZM43.0359 17.6775C43.8164 18.3314 44.3648 19.126 44.7234 20.1244L44.9414 20.7432L44.9625 25.4119L44.9836 30.0807L44.6672 29.7291C44.4984 29.5393 44.2242 29.3213 44.0695 29.251L43.7812 29.1244V25.1799C43.7812 20.8486 43.7812 20.8557 43.3523 19.9486C43.2188 19.6744 42.9516 19.3018 42.6492 18.9924L42.1711 18.4791L42.3469 17.9096C42.4383 17.5932 42.5437 17.333 42.5719 17.333C42.6 17.333 42.8039 17.4947 43.0359 17.6775ZM37.7344 19.815C37.7344 20.5955 37.6852 21.1439 37.5234 22.1916C37.4039 22.9439 37.2984 23.5908 37.2844 23.633C37.2633 23.6752 37.1437 23.7314 37.0031 23.7596C36.7148 23.8158 36.3703 24.083 36.2227 24.3713C36.1523 24.4979 36.1172 24.7932 36.1172 25.2221C36.1102 25.5807 36.068 26.115 36.0187 26.4033C35.9273 26.9166 35.6391 27.7744 35.5828 27.7182C35.5687 27.7041 35.1961 26.2486 34.7531 24.4768C34.0359 21.5799 33.9375 21.2424 33.7547 21.0455C33.4805 20.7643 33.2273 20.6377 32.918 20.6377C32.6016 20.6377 27.9047 21.7908 27.6164 21.9314C27.3422 22.0791 27.1312 22.3533 27.0398 22.6908C26.9766 22.9439 27.0398 23.2533 27.6797 25.8619C28.0664 27.458 28.4039 28.815 28.425 28.8783C28.4602 28.9979 28.2984 29.0049 25.6406 29.0049H22.8211L22.8422 25.0111L22.8633 21.0244L23.0883 20.5604C23.4891 19.7377 24.3609 19.0557 25.2188 18.8869C25.3945 18.8518 28.2773 18.8236 31.6383 18.8166L37.7344 18.8096V19.815ZM42.0867 20.1736C42.1992 20.3354 42.3609 20.6658 42.4383 20.9049C42.5789 21.3197 42.5859 21.4814 42.5859 25.1729V29.0049H41.925C41.1516 29.0049 41.1797 29.0471 41.1797 28.0768C41.1797 27.4018 41.3062 26.6564 41.5242 26.0236C41.6086 25.7916 41.6719 25.5033 41.6719 25.3697C41.6719 24.9338 41.3273 24.4557 40.8914 24.2799C40.8633 24.2658 40.9477 23.5908 41.0742 22.7822C41.2992 21.3479 41.7 19.7588 41.8195 19.8361C41.8547 19.8572 41.9742 20.0049 42.0867 20.1736ZM40.0195 21.6924C40.0266 21.6924 39.9492 22.2127 39.8508 22.8525L39.675 24.0127H39.4852C39.2672 24.0127 38.5711 23.8861 38.5219 23.8369C38.4867 23.8088 38.7609 21.8541 38.8312 21.615C38.8594 21.5096 38.9227 21.5096 39.443 21.5939C39.7594 21.6502 40.0195 21.6924 40.0195 21.6924ZM34.0781 26.7338C34.7391 29.4338 35.3719 32.0002 35.4844 32.4291L35.6812 33.2236H34.1062H32.5312V33.0549C32.5312 32.8439 32.2289 32.5908 31.9758 32.5908C31.8773 32.5908 31.5398 32.6541 31.2305 32.7244C30.9211 32.8018 30.6609 32.858 30.6539 32.851C30.6328 32.8229 30.3586 31.7189 30.3727 31.7049C30.3797 31.7049 30.675 31.6275 31.0195 31.5432C31.3922 31.4518 31.7156 31.3252 31.8141 31.2408C32.0109 31.051 32.018 30.7064 31.8211 30.4533C31.6453 30.2283 31.3781 30.2143 30.6328 30.4111C30.3445 30.4814 30.0984 30.5307 30.0844 30.5166C30.0562 30.4955 29.7891 29.4971 29.7891 29.4197C29.7891 29.3916 30.0633 29.3072 30.4078 29.2229C30.7453 29.1385 31.0898 29.0189 31.1742 28.9627C31.3852 28.8291 31.4555 28.4213 31.3148 28.2033C31.118 27.915 30.8789 27.8799 30.1547 28.0557L29.5078 28.2104L29.4305 27.9221C29.3953 27.7604 29.332 27.5213 29.2898 27.3877C29.2547 27.2541 29.2266 27.1205 29.2266 27.0994C29.2266 27.0713 29.5148 26.9799 29.8664 26.8955C30.225 26.8041 30.5695 26.6775 30.6398 26.6072C30.9492 26.2979 30.8648 25.8338 30.4641 25.6439C30.2953 25.5596 30.1898 25.5666 29.6766 25.6932C29.3531 25.7775 29.0508 25.8408 29.0016 25.8408C28.9383 25.8408 28.7906 25.3768 28.5586 24.4205C28.2633 23.2252 28.2211 23.0002 28.3125 22.965C28.4602 22.9158 32.6859 21.8471 32.7844 21.84C32.8336 21.833 33.3469 23.7807 34.0781 26.7338ZM38.7891 25.1377C39.5273 25.2502 40.2094 25.3486 40.3078 25.3486C40.3992 25.3486 40.4766 25.3557 40.4766 25.3627C40.4766 25.3768 40.4062 25.5596 40.3289 25.7705C39.9562 26.7408 39.9141 27.6268 40.132 29.9189C40.2797 31.5291 40.2586 32.2252 40.0477 32.9424L39.9633 33.2236H38.4445H36.9258L36.4898 31.4799L36.0539 29.7361L36.4336 28.8502C37.1086 27.2822 37.3125 26.5018 37.3125 25.5174C37.3125 25.1939 37.3406 24.9268 37.3758 24.9268C37.4109 24.9268 38.0508 25.0182 38.7891 25.1377ZM19.1719 31.4307V32.6611H18.6867C18.1594 32.6611 17.8781 32.7947 17.5969 33.1744C17.4562 33.3643 17.4492 33.4557 17.4492 35.1783V36.9854L17.6742 37.4635C17.9695 38.0893 18.525 38.6447 19.1508 38.94L19.6289 39.165H21.007H22.3781L22.9125 38.8979C23.7281 38.4971 24.2133 37.9064 24.4805 37.0064C24.5719 36.676 24.593 36.3314 24.5719 34.9885C24.5508 33.4768 24.5437 33.3643 24.4031 33.1744C24.1219 32.7947 23.8406 32.6611 23.3133 32.6611H22.8281V31.4307V30.2002H24.0164C24.6773 30.2002 25.2961 30.2354 25.4156 30.2775C25.5633 30.3268 26.0414 30.833 27.0258 31.9791C27.7922 32.8721 28.5023 33.7088 28.6148 33.8424L28.8047 34.0885V40.2619V46.4424H21H13.1953V40.2549V34.0674L13.5961 33.5963C15.4945 31.3463 16.4508 30.2775 16.5914 30.2494C16.6758 30.2354 17.2945 30.2143 17.9625 30.2072L19.1719 30.2002V31.4307ZM29.093 31.5502C29.2687 32.2814 29.4094 32.8721 29.3953 32.8721C29.3742 32.8721 27.4125 30.601 27.1945 30.3197C27.1031 30.2002 27.1383 30.1932 27.9258 30.2143L28.7625 30.2354L29.093 31.5502ZM43.4156 30.2775C43.5633 30.3268 43.9992 30.7838 44.8289 31.7471C45.4898 32.5205 46.0312 33.1674 46.0312 33.1885C46.0312 33.2096 44.9484 33.2236 43.6336 33.2236H41.2359L41.2781 33.0057C41.4047 32.3588 41.468 31.4307 41.4328 30.8471L41.3836 30.2002H42.2906C42.7898 30.2002 43.2961 30.2354 43.4156 30.2775ZM23.3906 35.1713C23.3906 35.9025 23.3555 36.6127 23.3203 36.7533C23.2078 37.1541 22.8352 37.59 22.4133 37.808C22.0547 37.9979 21.9984 38.0049 21 38.0049C20.0016 38.0049 19.9453 37.9979 19.5867 37.808C19.1648 37.59 18.7922 37.1541 18.6797 36.7533C18.6445 36.6127 18.6094 35.9025 18.6094 35.1713V33.8564H21H23.3906V35.1713ZM46.8047 40.4307V46.4424H38.4023H30V40.4307V34.4189H38.4023H46.8047V40.4307Z" fill="url(#paint0_linear_195_3215)"/>
<path d="M30.7031 23.612C30.4781 23.7245 30.3235 24.0409 30.3797 24.2659C30.4992 24.7159 31.0477 24.8706 31.3711 24.5401C31.8211 24.0971 31.2586 23.3237 30.7031 23.612Z" fill="url(#paint1_linear_195_3215)"/>
<path d="M31.3992 35.8182C31.2867 35.9307 31.1953 36.0924 31.1953 36.1768C31.1953 36.3807 31.3781 36.7111 31.5117 36.7674C31.575 36.7885 31.9898 36.8096 32.4328 36.8096C33.1992 36.8096 33.2484 36.8025 33.4102 36.6338C33.6703 36.3807 33.6492 36.0291 33.368 35.7971C33.1641 35.6213 33.1078 35.6143 32.3766 35.6143C31.6172 35.6143 31.6031 35.6143 31.3992 35.8182Z" fill="url(#paint2_linear_195_3215)"/>
<path d="M35.168 35.6846C34.9711 35.7619 34.8586 35.9025 34.8094 36.1557C34.7813 36.3174 34.8094 36.4088 34.9571 36.5846L35.1469 36.8096H40.1883C45.1594 36.8096 45.2367 36.8096 45.3844 36.6689C45.7078 36.3666 45.6446 35.9025 45.2578 35.7057C45.1242 35.6354 43.9711 35.6143 40.1953 35.6213C37.5094 35.6213 35.2453 35.6494 35.168 35.6846Z" fill="url(#paint3_linear_195_3215)"/>
<defs>
<linearGradient id="paint0_linear_195_3215" x1="30" y1="47.6377" x2="30" y2="11.9999" gradientUnits="userSpaceOnUse">
<stop stop-color="#44779D"/>
<stop offset="1" stop-color="#003156"/>
</linearGradient>
<linearGradient id="paint1_linear_195_3215" x1="30.9514" y1="24.7173" x2="30.9514" y2="23.5492" gradientUnits="userSpaceOnUse">
<stop stop-color="#44779D"/>
<stop offset="1" stop-color="#003156"/>
</linearGradient>
<linearGradient id="paint2_linear_195_3215" x1="32.394" y1="36.8096" x2="32.394" y2="35.6143" gradientUnits="userSpaceOnUse">
<stop stop-color="#44779D"/>
<stop offset="1" stop-color="#003156"/>
</linearGradient>
<linearGradient id="paint3_linear_195_3215" x1="40.1959" y1="36.8096" x2="40.1959" y2="35.62" gradientUnits="userSpaceOnUse">
<stop stop-color="#44779D"/>
<stop offset="1" stop-color="#003156"/>
</linearGradient>
</defs>
</svg>
