<svg width="60" height="60" viewBox="0 0 60 60" fill="none" xmlns="http://www.w3.org/2000/svg">
<circle cx="30" cy="30" r="30" fill="#EAF6FC"/>
<g clip-path="url(#clip0_195_3189)">
<path d="M23.4834 10.0533C21.122 10.3809 19.0502 11.8738 17.999 13.999C17.4201 15.1797 17.3363 15.5834 17.2982 17.4877C17.2601 18.9426 17.2449 19.1559 17.1306 19.1939C16.1252 19.5139 15.3787 20.1232 14.9674 20.9611C14.7388 21.441 14.7236 21.5096 14.7236 22.3398C14.7236 23.1625 14.7388 23.2463 14.9597 23.7186C15.3711 24.5869 16.0261 25.1658 16.9097 25.4324L17.3439 25.5695L17.4353 25.9885C17.9457 28.4488 19.6367 30.673 21.8685 31.7928L22.455 32.0898V32.7297V33.3619L20.9925 33.4076C19.3396 33.4457 18.7226 33.5676 17.74 34.0322C15.8433 34.9311 14.4646 36.7363 14.1142 38.7625C14.0152 39.349 14 40.0727 14.0152 43.2566C14.0381 46.9814 14.0381 47.0652 14.2056 47.4156C14.4342 47.9184 15.0054 48.5049 15.5158 48.7486L15.9424 48.9619H33.5381H51.1338L51.4918 48.7943C51.9945 48.5658 52.5049 48.0631 52.7486 47.5604C52.9238 47.2023 52.9543 47.0348 52.9619 46.4863C52.9619 45.8846 52.9466 45.8084 52.6877 45.3438C52.5353 45.0695 50.692 42.1064 48.5972 38.7549C45.9845 34.5807 44.6591 32.524 44.3773 32.2346C43.6841 31.5033 42.6558 31.2748 41.6732 31.648C40.9648 31.9146 40.6373 32.3184 38.832 35.2053C37.9332 36.6449 37.1715 37.8561 37.1486 37.8941C37.1258 37.9246 37.0115 37.7266 36.8972 37.4447C36.3945 36.2184 35.2976 34.9615 34.1474 34.3064C32.9515 33.6209 31.8927 33.3848 30.0265 33.3848H28.9297V32.7525V32.1203L29.3715 31.907C31.6338 30.8025 33.3095 28.7002 33.9037 26.217L34.0636 25.5619L34.475 25.4324C35.6252 25.082 36.4631 24.1223 36.6992 22.8883C36.8896 21.9285 36.524 20.7859 35.7775 20.0395C35.4195 19.6814 34.5968 19.2168 34.3226 19.2168C34.2008 19.2168 34.1855 19.1254 34.1855 18.318C34.1855 16.2232 33.957 15.0578 33.3019 13.8238C32.2584 11.8434 30.4074 10.5027 28.1908 10.1143C27.7109 10.0305 27.0254 10 25.6238 10.0076C24.5726 10.0152 23.6129 10.0381 23.4834 10.0533ZM28.0308 11.4016C30.8644 11.95 32.8144 14.2885 32.8144 17.1373C32.8144 17.5639 32.7992 17.9219 32.7763 17.9219C32.7535 17.9219 32.4564 17.8076 32.1136 17.6629C30.1256 16.8479 28.2746 16.5127 25.6543 16.5203C23.2015 16.5203 21.5105 16.8174 19.4996 17.5867C19.0197 17.7695 18.616 17.9219 18.5931 17.9219C18.5017 17.9219 18.6388 16.0252 18.7531 15.5986C19.3396 13.4887 21.1144 11.8586 23.2929 11.4092C24.0013 11.2645 27.2843 11.2568 28.0308 11.4016ZM28.2822 17.96C29.5238 18.1504 30.8949 18.5465 32.0832 19.0645L32.464 19.2244L32.0451 19.6434C31.291 20.4051 30.872 20.4965 29.5847 20.1689C28.4269 19.8719 27.2539 19.75 25.6695 19.75C24.0927 19.75 23.0187 19.8719 21.8533 20.1613C20.5279 20.4965 20.0937 20.4051 19.3396 19.6434L18.9283 19.2244L19.2254 19.1025C20.8402 18.4094 22.4474 17.9904 24.0318 17.8457C25.0449 17.7543 27.3453 17.8152 28.2822 17.96ZM17.2449 24.1451C17.2297 24.1604 17.0773 24.107 16.9097 24.0232C16.1633 23.6424 15.7976 22.6369 16.0718 21.7229C16.1785 21.3496 16.5974 20.8545 16.9631 20.6717L17.2373 20.527L17.2601 22.317C17.2677 23.3072 17.2601 24.1299 17.2449 24.1451ZM34.8177 20.9611C35.1681 21.2887 35.2976 21.5172 35.4043 21.9895C35.5642 22.7055 35.1605 23.6043 34.5131 23.9928L34.1855 24.1832V22.3475V20.5041L34.3607 20.5955C34.4521 20.6412 34.6578 20.8088 34.8177 20.9611ZM19.53 21.4105C19.6976 21.4943 20.0404 21.601 20.2918 21.6467C20.7869 21.7381 21.0535 21.7076 22.1656 21.4258C24.1461 20.9154 27.2386 20.9154 29.2191 21.4258C29.5695 21.5096 30.0265 21.6162 30.2474 21.6543C30.9711 21.799 31.9232 21.5096 32.5478 20.9611L32.8144 20.725V22.9416C32.8144 24.6707 32.784 25.2953 32.6925 25.7447C32.1517 28.3727 30.1103 30.4979 27.4367 31.2215C26.7054 31.4195 24.6945 31.4271 23.9861 31.2291C21.4572 30.5359 19.5758 28.7307 18.8293 26.2627C18.6236 25.5924 18.616 25.5391 18.5855 23.1473L18.555 20.7174L18.8902 20.984C19.0654 21.1363 19.3549 21.3268 19.53 21.4105ZM25.0297 32.7068C25.7 32.7754 26.6445 32.7297 27.391 32.5773L27.6347 32.524V33.5066C27.6347 34.5807 27.5586 34.8549 27.132 35.3576C26.4312 36.1955 24.9154 36.165 24.207 35.3043C23.849 34.8701 23.75 34.4664 23.75 33.4381V32.524L24.0394 32.5773C24.1918 32.6078 24.6412 32.6611 25.0297 32.7068ZM43.3109 32.9811C43.5394 33.1486 51.4918 45.7551 51.6365 46.174C51.8117 46.6996 51.5222 47.3242 50.9967 47.5832C50.7529 47.6898 49.9759 47.7051 42.6025 47.7051C35.2291 47.7051 34.4521 47.6898 34.2084 47.5832C33.8275 47.4004 33.5609 47.0043 33.5228 46.5777C33.4771 46.1436 33.1496 46.6996 38.0474 38.9072C40.8429 34.4664 41.7494 33.0801 41.955 32.943C42.1759 32.7906 42.2902 32.7678 42.6634 32.7906C42.9453 32.8135 43.1738 32.882 43.3109 32.9811ZM20.4898 36.8354L20.5127 38.9986L20.7183 39.3033C21.122 39.9203 20.9545 39.8975 25.7381 39.8975H29.9656L30.2931 39.6842C30.872 39.2957 30.9101 39.151 30.9101 36.7516V34.6721L31.3519 34.7178C31.5881 34.7406 32.0146 34.832 32.3041 34.9158L32.8144 35.0682V39.9355V44.8105L32.6316 45.1C32.1974 45.7855 32.0984 46.5777 32.3498 47.3014L32.4869 47.7051H30.7121H28.9373L29.3486 47.1338C30.0875 46.0979 30.217 45.5646 30.2246 43.5842C30.2246 42.1521 30.217 42.076 30.0494 41.8322C29.958 41.6951 29.7599 41.4971 29.6228 41.4057L29.3638 41.2305H25.7152C21.6705 41.2305 21.8152 41.2152 21.4115 41.7408L21.1982 42.015L21.1754 43.4775C21.1601 44.5896 21.1754 45.0619 21.2668 45.4428C21.4115 46.0521 21.8076 46.8672 22.1808 47.3166C22.3332 47.4994 22.455 47.6594 22.455 47.6746C22.455 47.6898 21.5791 47.7051 20.5127 47.7051H18.5703V41.3904V35.0758L18.9588 34.9463C19.3244 34.8244 19.9109 34.7102 20.2994 34.6873L20.467 34.6797L20.4898 36.8354ZM22.6074 35.0301C22.8359 35.8375 23.5367 36.6145 24.405 37.0182C24.8088 37.2086 24.9383 37.2314 25.6924 37.2314C26.4769 37.2314 26.5607 37.2162 27.0406 36.9877C27.749 36.6525 28.267 36.1498 28.5793 35.4871C28.724 35.19 28.8611 34.8854 28.884 34.8092C28.9144 34.7102 29.0058 34.6797 29.2724 34.6797H29.6152V36.6221V38.5645H25.6924H21.7695V36.6754C21.7695 35.6318 21.7924 34.7559 21.8228 34.733C21.8457 34.7025 22.0133 34.6797 22.1884 34.6797C22.5084 34.6797 22.516 34.6873 22.6074 35.0301ZM17.2754 41.8018V47.7051H16.8183C16.567 47.7051 16.247 47.6594 16.1099 47.5984C15.8129 47.4766 15.4853 47.1338 15.3787 46.8443C15.3254 46.6996 15.2949 45.3971 15.2949 43.051C15.2949 38.9453 15.3177 38.732 15.8662 37.6123C16.1785 36.9648 17.0164 35.8984 17.2068 35.8984C17.2449 35.8984 17.2754 38.2979 17.2754 41.8018ZM35.2062 37.041C35.6099 37.6504 35.8994 38.3588 36.0136 39.0443L36.105 39.5547L35.1758 41.04C34.6654 41.8551 34.2388 42.5254 34.216 42.5254C34.2008 42.5254 34.1855 41.0248 34.1855 39.1967V35.868L34.5359 36.2031C34.7263 36.3936 35.031 36.7668 35.2062 37.041ZM28.9297 43.7365C28.9297 44.7268 28.8992 45.0391 28.7849 45.4275C28.4193 46.6006 27.4519 47.4309 26.1951 47.6441C24.8011 47.8803 23.3843 47.1033 22.7369 45.7475C22.4931 45.2371 22.4931 45.2143 22.4703 43.8736L22.4398 42.5254H25.6847H28.9297V43.7365Z" fill="url(#paint0_linear_195_3189)"/>
<path d="M22.676 27.131C22.5541 27.2529 22.4551 27.4357 22.4551 27.5424C22.4551 28.0375 23.392 28.9363 24.268 29.2791C24.8545 29.5152 26.3779 29.5381 27.0254 29.3248C27.9318 29.0277 28.9297 28.0984 28.9297 27.55C28.9297 27.1996 28.6479 26.9101 28.3127 26.9101C28.1223 26.9101 27.9928 26.9939 27.6424 27.3595C27.0406 27.9918 26.6902 28.1517 25.8447 28.1898C24.9002 28.2279 24.4813 28.0679 23.8109 27.4052C23.2244 26.834 23.0264 26.7806 22.676 27.131Z" fill="url(#paint1_linear_195_3189)"/>
<path d="M42.2064 36.5612C41.9474 36.7974 40.1574 39.5929 40.0431 39.9356C39.9441 40.2175 40.066 40.6897 40.3021 40.9106C40.5763 41.1696 40.9039 41.2306 41.9703 41.2306H42.9453L41.9779 42.5788C41.4523 43.3253 40.9877 43.9651 40.9572 44.0032C40.9267 44.0413 40.8582 43.9271 40.8125 43.7595C40.7211 43.3938 40.4925 43.211 40.1422 43.211C39.8222 43.211 39.5175 43.5005 39.5252 43.7976C39.5252 43.9118 39.6547 44.4907 39.807 45.0696C40.0431 45.9685 40.1193 46.1513 40.2945 46.2808L40.5002 46.4331L41.2466 46.2655C41.658 46.1741 42.2293 46.0294 42.5111 45.9456C42.9758 45.8085 43.0443 45.7628 43.1433 45.5343C43.349 45.0392 43.0215 44.6278 42.4578 44.6735C42.2597 44.6888 42.1074 44.6812 42.1074 44.6659C42.1074 44.6507 42.6406 43.889 43.2957 42.9749C44.5754 41.1772 44.682 40.9487 44.4383 40.4917C44.1793 39.9813 44.0422 39.9356 42.7472 39.9356C42.0998 39.9356 41.5742 39.9204 41.5742 39.8976C41.5742 39.8747 41.955 39.2577 42.4121 38.5341C42.9148 37.7419 43.25 37.1325 43.25 37.0183C43.25 36.7517 42.9605 36.4394 42.6711 36.386C42.473 36.3479 42.3892 36.3784 42.2064 36.5612Z" fill="url(#paint2_linear_195_3189)"/>
<path d="M24.7783 44.5211C24.3898 44.7268 24.306 45.2676 24.6107 45.557C24.7707 45.7094 24.8697 45.7246 25.7 45.7246C26.5531 45.7246 26.6293 45.7094 26.774 45.5494C26.8578 45.458 26.9568 45.3057 26.9797 45.2143C27.0482 44.9934 26.8578 44.6354 26.6064 44.5211C26.3551 44.4068 24.984 44.4068 24.7783 44.5211Z" fill="url(#paint3_linear_195_3189)"/>
</g>
<defs>
<linearGradient id="paint0_linear_195_3189" x1="33.486" y1="48.9619" x2="33.486" y2="10.0065" gradientUnits="userSpaceOnUse">
<stop stop-color="#44779D"/>
<stop offset="1" stop-color="#003156"/>
</linearGradient>
<linearGradient id="paint1_linear_195_3189" x1="25.6924" y1="29.4714" x2="25.6924" y2="26.9101" gradientUnits="userSpaceOnUse">
<stop stop-color="#44779D"/>
<stop offset="1" stop-color="#003156"/>
</linearGradient>
<linearGradient id="paint2_linear_195_3189" x1="42.034" y1="46.4331" x2="42.034" y2="36.3716" gradientUnits="userSpaceOnUse">
<stop stop-color="#44779D"/>
<stop offset="1" stop-color="#003156"/>
</linearGradient>
<linearGradient id="paint3_linear_195_3189" x1="25.7099" y1="45.7246" x2="25.7099" y2="44.4354" gradientUnits="userSpaceOnUse">
<stop stop-color="#44779D"/>
<stop offset="1" stop-color="#003156"/>
</linearGradient>
<clipPath id="clip0_195_3189">
<rect width="39" height="39" fill="white" transform="translate(14 10)"/>
</clipPath>
</defs>
</svg>
