<svg width="60" height="60" viewBox="0 0 60 60" fill="none" xmlns="http://www.w3.org/2000/svg">
<circle cx="30" cy="30" r="30" fill="#EAF6FC"/>
<g clip-path="url(#clip0_195_3226)">
<path d="M24.7601 12.1483C24.1515 12.3042 19.7133 14.4936 18.9191 15.028C18.6371 15.2136 18.1844 15.5921 17.9023 15.8667C17.3902 16.3788 11.809 23.8972 11.5121 24.4909C11.2969 24.8991 11.2969 25.5819 11.5047 26.0347C11.5863 26.2128 12.4992 27.4151 13.5308 28.6991C15.7277 31.4229 15.7945 31.4823 16.7148 31.4823C17.6277 31.4823 17.7094 31.4155 19.6539 29.0331L19.8394 28.8104L19.8098 31.1112C19.7875 33.271 19.7801 33.4417 19.6168 33.9315C19.0676 35.6163 18.1027 36.4624 16.4773 36.6702C15.8539 36.7518 15.698 36.7964 15.5867 36.9374C15.3863 37.1897 15.416 37.5089 15.6683 37.7612C15.8539 37.9393 15.9504 37.9764 16.2473 37.9764C16.4476 37.9764 16.8039 38.0284 17.034 38.0878C18.3031 38.4218 19.1269 39.2679 19.6168 40.7597C19.7801 41.2643 19.7875 41.3757 19.832 44.9159L19.8691 48.5526L20.0695 48.9311C20.1808 49.1464 20.3961 49.421 20.5519 49.5472C21.1383 50.0296 20.2254 49.9999 34.0152 49.9999C46.3355 49.9999 46.5433 49.9999 47.0035 49.8515C48.6363 49.3393 49.4453 47.4987 48.718 45.9698C48.5992 45.7175 48.3765 45.3835 48.2281 45.2202L47.9609 44.9307L48.2058 44.6636C48.9035 43.8917 49.1484 42.9565 48.8961 42.0214C48.7625 41.5167 48.5992 41.2124 48.243 40.8264L47.9387 40.4999L48.2578 40.1585C48.4285 39.9729 48.6586 39.6315 48.7625 39.4014C48.9332 39.0378 48.9629 38.8819 48.9629 38.2733C48.9629 37.6276 48.9406 37.5237 48.7254 37.0784C48.4359 36.4847 47.9015 35.9651 47.3078 35.6905L46.8848 35.4901L43.5301 35.4679L40.168 35.4456V32.128V28.8104L40.3461 29.0331C42.1644 31.2968 42.3871 31.4823 43.2777 31.4823C43.916 31.4823 44.2723 31.3339 44.6656 30.9108C45.341 30.1909 48.473 26.1608 48.5547 25.9085C48.7031 25.4706 48.6734 24.8397 48.4879 24.4909C48.191 23.8972 42.6097 16.3788 42.0976 15.8667C41.348 15.1245 40.8211 14.8128 38.0898 13.4546C36.1973 12.512 35.4773 12.1929 35.084 12.1112C34.6609 12.0222 33.6812 11.9999 29.9258 12.0073C25.6508 12.0073 25.2426 12.0222 24.7601 12.1483ZM34.891 13.3729C34.943 13.4249 34.8984 13.603 34.7426 13.9296C34.4234 14.6124 33.6367 15.362 32.8203 15.7702C31.8406 16.2526 31.1875 16.3936 30 16.3936C28.8125 16.3936 28.1594 16.2526 27.1797 15.7702C26.4375 15.3991 25.5988 14.6272 25.3019 14.0409C25.0348 13.5065 25.0273 13.3952 25.25 13.3284C25.5469 13.2393 34.8019 13.2839 34.891 13.3729ZM24.1664 14.5456C24.7082 15.696 26.0219 16.7647 27.5062 17.2768C28.1742 17.5069 29.3469 17.7147 30 17.7147C30.6531 17.7147 31.8258 17.5069 32.4937 17.2768C33.9781 16.7722 35.2695 15.7034 35.8336 14.5456C35.9894 14.2116 36.1453 13.937 36.1824 13.9296C36.2121 13.9296 36.4719 14.0483 36.7539 14.1893C37.2363 14.4343 37.266 14.4565 37.1992 14.6347C36.8281 15.5995 36.0117 16.6311 35.0469 17.3362C32.3156 19.3401 28.5082 19.5034 25.5469 17.7444C24.3297 17.0171 23.2387 15.785 22.8008 14.6347C22.734 14.464 22.7637 14.4343 23.2312 14.1968C23.5058 14.0557 23.7656 13.937 23.8027 13.937C23.8473 13.937 24.0031 14.2042 24.1664 14.5456ZM21.7691 15.4288C22.8379 17.737 25.1758 19.4366 28.1519 20.0675C28.9164 20.2233 30.8906 20.2456 31.6699 20.1046C34.557 19.5776 36.9246 17.9448 38.0973 15.6737C38.268 15.3472 38.4164 15.0725 38.4238 15.0577C38.4683 15.0057 40.0195 15.8296 40.4277 16.119C40.6726 16.2972 41.0808 16.6534 41.3258 16.9132C41.8305 17.4253 45.7566 22.7393 45.7121 22.8581C45.7047 22.8952 44.7472 24.1569 43.5894 25.6636L41.489 28.3948L41.1551 28.0311C40.784 27.6155 40.45 27.4745 39.9676 27.5339C39.4406 27.5932 39.0324 27.9718 38.9062 28.521C38.8691 28.6768 38.832 30.3022 38.832 32.128V35.4456L34.5125 35.4679L30.1855 35.4901L29.7773 35.6831C28.9164 36.0913 28.3152 36.878 28.1445 37.8132C28.0035 38.6147 28.2484 39.4682 28.8199 40.1511L29.1242 40.5073L28.857 40.7968C27.8699 41.8952 27.8773 43.6097 28.8793 44.6413L29.1687 44.9382L28.857 45.2425L28.5453 45.5468H24.8566H21.168V43.6616C21.168 41.5761 21.2273 41.1011 21.6133 40.1807C22.1402 38.9042 23.1793 38.1175 24.4633 38.0061C25.1238 37.9468 25.2277 37.9171 25.3984 37.7389C25.6062 37.5163 25.5914 37.1229 25.3762 36.9077C25.2426 36.7741 25.0867 36.7296 24.634 36.685C22.9863 36.5366 21.9769 35.6608 21.3832 33.8573C21.2273 33.3749 21.2125 33.1745 21.1754 30.8886C21.1234 28.1722 21.1234 28.1573 20.6113 27.7639C20.307 27.5339 19.8172 27.4522 19.4312 27.5858C19.2754 27.6378 19.0379 27.8233 18.8449 28.0386L18.5183 28.4097L16.418 25.6636C15.2527 24.1569 14.2953 22.8952 14.2879 22.8581C14.2433 22.7393 18.1695 17.4253 18.6742 16.9132C19.2902 16.2823 19.7133 15.9706 20.6855 15.4733C21.1308 15.2358 21.5242 15.0503 21.5465 15.0429C21.5687 15.0429 21.6652 15.221 21.7691 15.4288ZM15.5348 26.5913C16.6555 28.046 17.598 29.2854 17.6277 29.3374C17.7019 29.471 17.2121 30.0722 16.9301 30.1909C16.8113 30.2354 16.6406 30.2577 16.5367 30.228C16.418 30.1983 15.7648 29.4339 14.4957 27.853C12.3285 25.144 12.4101 25.337 13.0187 24.4835C13.2266 24.194 13.4195 23.9491 13.4492 23.9491C13.4715 23.9491 14.4141 25.1366 15.5348 26.5913ZM46.9812 24.4835C47.5972 25.3296 47.6715 25.1589 45.5488 27.8085C44.5469 29.0554 43.6637 30.1167 43.582 30.1761C43.3223 30.3542 42.9734 30.2206 42.6246 29.8124C42.4168 29.5675 42.3351 29.4116 42.3722 29.3374C42.5133 29.1073 46.5062 23.9491 46.5508 23.9491C46.5805 23.9491 46.7734 24.1866 46.9812 24.4835ZM20.7969 35.6757C21.064 36.1432 21.7914 36.93 22.1476 37.1452C22.259 37.212 22.3555 37.2862 22.3555 37.3159C22.3555 37.3382 22.1551 37.5163 21.9101 37.7018C21.4723 38.0507 20.8859 38.7557 20.6633 39.2159C20.5965 39.3495 20.5297 39.4608 20.5074 39.4608C20.4851 39.4608 20.3664 39.2679 20.2402 39.0378C20.025 38.6222 19.2605 37.7686 18.8449 37.4866L18.6371 37.3382L19.0898 36.9745C19.55 36.6034 20.1289 35.9132 20.3367 35.4679C20.4035 35.3417 20.4703 35.2304 20.4926 35.2304C20.5148 35.2304 20.6558 35.4307 20.7969 35.6757ZM46.818 36.8557C47.3301 37.0932 47.7383 37.7093 47.7383 38.2733C47.7383 38.8374 47.3672 39.4163 46.8402 39.6909C46.5656 39.8245 46.3281 39.8319 38.5351 39.8319C29.807 39.8319 30.3265 39.8542 29.8664 39.4311C29.0945 38.7335 29.2949 37.3382 30.2375 36.8706L30.5566 36.7147H38.5351C46.1351 36.7147 46.5285 36.7222 46.818 36.8557ZM47.048 41.435C47.8422 42.0733 47.9535 43.0159 47.3226 43.7581C46.8328 44.3222 47.3969 44.2925 38.409 44.2702L30.3859 44.2479L30.0668 44.0253C29.2578 43.4612 29.1539 42.2069 29.8664 41.5686C30.3265 41.1456 29.7699 41.1679 38.6242 41.1901L46.7586 41.205L47.048 41.435ZM46.9367 45.7917C47.6195 46.1925 47.909 47.0386 47.5972 47.7436C47.382 48.2186 47.2558 48.3522 46.8105 48.56L46.4394 48.7382H38.6094C33.273 48.7382 30.6902 48.7085 30.4898 48.6565C30.1262 48.56 29.5844 48.0628 29.4805 47.7288C29.1836 46.8456 29.6437 45.9104 30.4973 45.6432C30.7051 45.5764 32.7758 45.5616 38.6836 45.569L46.5879 45.5839L46.9367 45.7917ZM28.1223 47.0089C28.0629 47.3206 28.1965 47.9886 28.3894 48.3893L28.5676 48.7456L25.0125 48.7233L21.45 48.7011L21.309 48.5229C21.1902 48.3819 21.168 48.2261 21.168 47.5804V46.8085H24.6637H28.1594L28.1223 47.0089Z" fill="url(#paint0_linear_195_3226)"/>
<path d="M27.0684 22.9323C26.8902 23.0808 26.8605 23.1847 26.8012 23.7562C26.7121 24.6319 26.5563 25.2109 26.2297 25.8788C25.6582 27.0441 24.5301 27.8011 23.3426 27.8085C22.7266 27.8085 22.4371 28.0237 22.4297 28.4839C22.4297 28.8624 22.6523 29.0405 23.209 29.0999C24.352 29.2261 24.9309 29.4784 25.5617 30.1167C26.252 30.8218 26.6602 31.8386 26.8012 33.1745C26.8309 33.5159 26.8828 33.8425 26.9125 33.887C27.009 34.0429 27.4023 34.1987 27.573 34.1468C27.9367 34.0429 28.048 33.8425 28.1074 33.2413C28.3004 31.1335 29.2727 29.6788 30.7422 29.2706C30.9648 29.2038 31.3805 29.1296 31.6625 29.1073C32.0559 29.0702 32.2117 29.0183 32.3453 28.8847C32.5754 28.6546 32.5754 28.3206 32.3527 28.0683C32.2043 27.8902 32.1004 27.8605 31.5512 27.8011C30.5047 27.6972 29.8812 27.4077 29.2949 26.7546C28.6715 26.0569 28.3078 25.1589 28.1445 23.9046C28.0332 23.0437 28.0109 22.9991 27.7734 22.873C27.4766 22.7171 27.2984 22.7319 27.0684 22.9323ZM27.7066 26.7398C27.9812 27.2222 28.716 28.0312 29.0797 28.2612C29.2207 28.3429 29.332 28.4394 29.332 28.4691C29.332 28.4987 29.2355 28.573 29.1168 28.6472C28.7457 28.8698 28.0406 29.6343 27.7363 30.1464L27.4543 30.6362L27.2242 30.2058C27.0016 29.7976 26.148 28.855 25.7695 28.6027L25.584 28.4839L25.8066 28.3206C26.2371 28.0089 26.9199 27.237 27.1797 26.7843C27.3207 26.5319 27.4469 26.3241 27.4543 26.3241C27.4617 26.3241 27.573 26.5097 27.7066 26.7398Z" fill="url(#paint1_linear_195_3226)"/>
</g>
<defs>
<linearGradient id="paint0_linear_195_3226" x1="30.1713" y1="50.0002" x2="30.1713" y2="12.006" gradientUnits="userSpaceOnUse">
<stop stop-color="#44779D"/>
<stop offset="1" stop-color="#003156"/>
</linearGradient>
<linearGradient id="paint1_linear_195_3226" x1="27.4742" y1="34.157" x2="27.4742" y2="22.7676" gradientUnits="userSpaceOnUse">
<stop stop-color="#44779D"/>
<stop offset="1" stop-color="#003156"/>
</linearGradient>
<clipPath id="clip0_195_3226">
<rect width="38" height="38" fill="white" transform="translate(11 12)"/>
</clipPath>
</defs>
</svg>
