<svg width="60" height="60" viewBox="0 0 60 60" fill="none" xmlns="http://www.w3.org/2000/svg">
<circle cx="30" cy="30" r="30" fill="#EAF6FC"/>
<g clip-path="url(#clip0_195_3201)">
<path d="M35.9941 8.13129C35.6824 8.28716 27.5367 16.4082 27.3645 16.7282C27.2824 16.8922 27.2496 17.1137 27.2742 17.4254C27.307 17.8028 27.4055 18.0571 27.8566 18.8446C28.152 19.3778 28.3816 19.8125 28.357 19.8125C28.3324 19.8125 27.8895 19.5747 27.3563 19.2793C25.7074 18.3606 25.6336 18.377 23.8945 20.1079L22.6313 21.3711L21.5156 21.4532C16.2 21.8633 12.8121 22.8559 12.1641 24.2012C12.0164 24.5047 12 24.7016 12 26.1782C12 27.9664 12.0656 28.2454 12.525 28.6637L12.7383 28.8606V37.843C12.7383 47.8754 12.6891 47.1125 13.3289 47.6622C14.2559 48.4497 16.159 49.0813 18.7676 49.4668C23.9027 50.2215 30.7605 50.0821 35.0098 49.1305C37.241 48.6383 38.5617 47.9985 39.0867 47.1454L39.2754 46.8418L39.3 40.6075L39.3164 34.3731L40.5715 33.118C41.9578 31.7235 41.8758 31.7645 42.5977 32.1747C43.4918 32.6996 44.1727 33.5856 45.2309 35.6036C45.8707 36.834 46.5105 37.8594 46.9699 38.3926C47.3391 38.811 48.0363 39.2293 48.6434 39.3934C49.234 39.5493 50.1856 39.5 50.7434 39.2786C51.6293 38.9258 53.0731 37.5805 53.5816 36.6372C54.2789 35.3329 54.0574 33.684 53.0484 32.6668C52.548 32.1582 51.3832 31.3871 50.3004 30.8375C48.2086 29.7875 47.134 28.9672 46.6336 28.0239C46.4859 27.7614 46.3711 27.4907 46.3711 27.425C46.3711 27.3676 47.0602 26.6375 47.8969 25.8008C48.7336 24.9641 49.5293 24.1192 49.6605 23.9223C49.9148 23.5286 49.9723 23.0528 49.8164 22.6262C49.718 22.3637 45.0504 17.6469 44.7141 17.4664C44.591 17.409 44.3367 17.3352 44.1398 17.3188L43.7953 17.286L40.6699 12.8317C37.8234 8.76294 37.5199 8.35278 37.1836 8.18051C36.757 7.96723 36.3387 7.95082 35.9941 8.13129ZM39.4805 13.5782C41.0719 15.8586 42.4418 17.8192 42.5238 17.934L42.6715 18.1391L37.6512 23.1594L32.6227 28.1797L28.2832 25.1446C25.8961 23.4711 23.9273 22.093 23.9191 22.0766C23.9109 22.0684 24.3539 21.609 24.9035 21.0594L25.9043 20.0668L27.9551 21.2071C29.1527 21.8715 30.0961 22.3555 30.2273 22.3555C30.3504 22.3555 30.5473 22.2653 30.6703 22.1586C31.0723 21.8141 31.0066 21.6172 29.7598 19.3778L28.6277 17.3352L30.1453 15.8176L31.6629 14.3L33.6973 16.7528C36.2402 19.8125 36.3223 19.8946 36.675 19.8946C37.0359 19.8946 37.3477 19.5829 37.3477 19.2137C37.3477 18.9758 37.0441 18.5821 35.0016 16.1293L32.6555 13.3075L34.6078 11.3551C35.6824 10.2805 36.5684 9.41098 36.5766 9.41919C36.5766 9.42739 37.8891 11.2977 39.4805 13.5782ZM46.3137 20.9446L48.5039 23.1348L43.0652 28.5735L37.6348 34.0039L35.4199 31.7891L33.2051 29.5743L38.6191 24.1602C41.5969 21.1825 44.0496 18.7461 44.0742 18.7461C44.0988 18.7461 45.0996 19.7305 46.3137 20.9446ZM22.7953 22.9379C22.8773 23.0364 23.2383 23.3235 23.5992 23.5696C24.034 23.8813 24.2063 24.0372 24.1324 24.0782C24.0668 24.111 23.4434 24.1602 22.7461 24.1848C19.8832 24.2997 16.0359 24.8739 14.6906 25.3825C14.4609 25.4645 14.0754 25.3332 13.657 25.0133C13.3125 24.7426 13.3781 24.6442 14.2148 24.2586C15.593 23.6188 19.3172 22.9543 22.4672 22.7739C22.5574 22.7739 22.7051 22.8477 22.7953 22.9379ZM27.2496 26.1289C27.7664 26.4899 28.2094 26.8098 28.234 26.8344C28.316 26.9164 22.2047 26.8016 21.2695 26.7114C20.0555 26.5801 18.5297 26.3832 17.9063 26.2766L17.373 26.1782L17.7422 26.1125C18.5625 25.9649 20.6461 25.727 21.8438 25.6368C23.7059 25.5055 23.8207 25.5055 25.125 25.4891L26.3145 25.4727L27.2496 26.1289ZM14.3789 26.8672C15.7242 27.3676 17.8898 27.7778 20.6953 28.0649C21.7699 28.1797 22.902 28.2125 26.1504 28.2207L30.252 28.2289L31.0148 28.7621C31.425 29.0493 31.7695 29.3118 31.7695 29.3364C31.7695 29.402 31.1461 29.4594 29.3496 29.5825C27.5367 29.7055 22.5 29.6317 20.7773 29.4594C17.5863 29.1313 15.3141 28.6555 14.1082 28.0567C13.4355 27.7204 13.3945 27.6547 13.3945 27.0477C13.3945 26.5801 13.4109 26.5227 13.5422 26.5637C13.616 26.5883 13.9934 26.7278 14.3789 26.8672ZM45.5098 28.9262C46.1086 29.9434 47.2078 30.7965 49.3898 31.945C50.9402 32.7571 51.6785 33.2411 52.1051 33.725C52.6383 34.3321 52.7449 35.2262 52.3676 35.9563C52.1707 36.3336 50.7844 37.7036 50.3906 37.9086C50.1856 38.0153 49.923 38.0645 49.4883 38.0645C48.9633 38.0645 48.8156 38.0317 48.4793 37.8348C47.9707 37.5313 47.4047 36.7274 46.4859 34.9883C46.0922 34.2418 45.5754 33.3395 45.3375 32.9704C44.8371 32.2157 43.8855 31.2723 43.3195 30.9688L42.9258 30.7637L44.0496 29.6399C44.673 29.0164 45.198 28.5079 45.2227 28.5079C45.2473 28.5079 45.3785 28.6965 45.5098 28.9262ZM16.1918 30.1813C17.4141 30.452 18.9234 30.6817 20.6953 30.8622C22.6969 31.0672 29.1281 31.0672 31.0723 30.8704L32.3848 30.7309L34.6406 32.9704C35.8793 34.209 36.9785 35.259 37.077 35.3082C37.1754 35.3575 37.3887 35.3985 37.5445 35.3985H37.8398V40.9684V46.5383L37.5938 46.7434C36.7898 47.4243 33.6727 48.1133 30.1453 48.4004C27.9961 48.5809 23.9766 48.5809 21.8273 48.4004C18.3082 48.1133 15.1746 47.4161 14.3707 46.7434L14.1328 46.5383V38.0645V29.5907L14.6906 29.7793C15.0023 29.886 15.675 30.0664 16.1918 30.1813Z" fill="url(#paint0_linear_195_3201)"/>
<path d="M40.8586 23.8976C38.2254 26.5226 37.9219 26.8589 37.9219 27.0886C37.9219 27.4824 38.2254 27.7859 38.6109 27.7859C38.9227 27.7859 39.0211 27.6957 41.8348 24.882C44.5992 22.1175 44.7469 21.9535 44.7551 21.6582C44.7633 21.2726 44.4516 20.9609 44.0496 20.9609C43.8199 20.9609 43.4836 21.2644 40.8586 23.8976Z" fill="url(#paint1_linear_195_3201)"/>
<path d="M35.8957 28.8607C35.3953 29.3693 35.3297 29.6646 35.6578 30.0337C35.8055 30.206 35.9203 30.2634 36.1582 30.2634C36.4207 30.2634 36.5192 30.1978 36.9047 29.8041C37.2492 29.4431 37.3477 29.2873 37.3477 29.0822C37.3477 28.7212 37.036 28.4259 36.6422 28.4259C36.3879 28.4259 36.2731 28.4916 35.8957 28.8607Z" fill="url(#paint2_linear_195_3201)"/>
<path d="M15.7324 31.9941C15.552 32.1664 15.5273 32.2648 15.5273 32.839C15.5273 33.4051 15.552 33.5035 15.716 33.6594C15.9621 33.8972 16.4461 33.9054 16.6758 33.6758C16.8891 33.4625 16.9465 33.1918 16.9055 32.634C16.8727 32.2566 16.8234 32.1336 16.643 31.9777C16.3477 31.7316 15.9867 31.7316 15.7324 31.9941Z" fill="url(#paint3_linear_195_3201)"/>
<path d="M25.5598 33.5199C25.0348 33.6758 24.7969 34.0367 24.1899 35.5625C23.8781 36.35 23.3121 37.7527 22.9266 38.6797C22.0899 40.7305 21.9422 41.3293 22.0735 42.248C22.2539 43.4457 22.9348 44.5449 23.9028 45.1684C25.0922 45.9312 26.9379 45.9312 28.0945 45.1602C29.4399 44.266 30.1781 42.5187 29.8664 40.9766C29.7434 40.3859 27.3973 34.4633 27.1184 34.0285C26.8313 33.5937 26.093 33.3559 25.5598 33.5199ZM27.2496 37.966C27.8895 39.5328 28.4473 40.993 28.4965 41.2062C28.7344 42.2809 28.111 43.5934 27.1184 44.0937C26.7903 44.266 26.6098 44.2988 25.9863 44.2988C25.125 44.2988 24.6492 44.1102 24.1653 43.5769C23.6895 43.0437 23.4516 42.4367 23.4516 41.7148C23.4516 41.116 23.4844 41.0258 24.4524 38.6387C25.9863 34.8406 25.9699 34.8816 26.0274 35.0047C26.0602 35.0621 26.6098 36.3992 27.2496 37.966Z" fill="url(#paint4_linear_195_3201)"/>
<path d="M15.7078 35.5052L15.5273 35.6939V40.5337V45.3818L15.716 45.554C15.9047 45.7345 16.2738 45.7919 16.5527 45.6853C16.9137 45.5458 16.9219 45.431 16.9219 40.5255C16.9219 35.62 16.9137 35.5052 16.5527 35.3658C16.2574 35.2591 15.8801 35.3165 15.7078 35.5052Z" fill="url(#paint5_linear_195_3201)"/>
</g>
<defs>
<linearGradient id="paint0_linear_195_3201" x1="32.993" y1="49.9509" x2="32.993" y2="8.00722" gradientUnits="userSpaceOnUse">
<stop stop-color="#44779D"/>
<stop offset="1" stop-color="#003156"/>
</linearGradient>
<linearGradient id="paint1_linear_195_3201" x1="41.3386" y1="27.7859" x2="41.3386" y2="20.9609" gradientUnits="userSpaceOnUse">
<stop stop-color="#44779D"/>
<stop offset="1" stop-color="#003156"/>
</linearGradient>
<linearGradient id="paint2_linear_195_3201" x1="36.4017" y1="30.2634" x2="36.4017" y2="28.4259" gradientUnits="userSpaceOnUse">
<stop stop-color="#44779D"/>
<stop offset="1" stop-color="#003156"/>
</linearGradient>
<linearGradient id="paint3_linear_195_3201" x1="16.2226" y1="33.843" x2="16.2226" y2="31.7951" gradientUnits="userSpaceOnUse">
<stop stop-color="#44779D"/>
<stop offset="1" stop-color="#003156"/>
</linearGradient>
<linearGradient id="paint4_linear_195_3201" x1="25.9844" y1="45.7395" x2="25.9844" y2="33.4678" gradientUnits="userSpaceOnUse">
<stop stop-color="#44779D"/>
<stop offset="1" stop-color="#003156"/>
</linearGradient>
<linearGradient id="paint5_linear_195_3201" x1="16.2246" y1="45.7388" x2="16.2246" y2="35.3126" gradientUnits="userSpaceOnUse">
<stop stop-color="#44779D"/>
<stop offset="1" stop-color="#003156"/>
</linearGradient>
<clipPath id="clip0_195_3201">
<rect width="42" height="42" fill="white" transform="translate(12 8)"/>
</clipPath>
</defs>
</svg>
