<svg width="60" height="60" viewBox="0 0 60 60" fill="none" xmlns="http://www.w3.org/2000/svg">
<circle cx="30" cy="30" r="30" fill="#EAF6FC"/>
<g clip-path="url(#clip0_195_3178)">
<path d="M36.4013 12.3658C36.2423 12.4381 35.9894 12.6259 35.8449 12.7777C34.8982 13.7677 35.3173 15.4226 36.6109 15.8056C36.8855 15.8851 37.3769 15.914 38.6416 15.914C39.8412 15.914 40.3326 15.9357 40.3976 16.0007C40.5132 16.1164 40.506 16.3838 40.3904 16.4777C40.3398 16.5211 39.6099 16.5644 38.497 16.5789L36.6904 16.6006L36.3002 16.8173C34.9488 17.5689 35.0283 19.4839 36.4375 20.1343C36.7337 20.2716 36.9433 20.2861 38.6054 20.3222L40.4482 20.3584L40.4699 20.5752C40.5132 20.9509 40.4193 20.9726 38.5043 20.9726C36.8349 20.9726 36.7482 20.9798 36.4013 21.1461C35.9966 21.3267 35.6064 21.7314 35.4474 22.1216C35.3029 22.4541 35.3029 23.1767 35.4474 23.5091C35.6064 23.8994 35.9966 24.3041 36.4013 24.4847C36.7482 24.6509 36.8349 24.6582 38.5043 24.6582C40.4193 24.6582 40.5132 24.6798 40.4699 25.0556L40.4482 25.2724L38.6054 25.3086C36.5531 25.3519 36.3652 25.3953 35.8666 25.8939C34.8621 26.8984 35.3679 28.6906 36.7482 28.9941C36.9361 29.0302 37.8177 29.0664 38.6994 29.0664C40.3904 29.0664 40.4843 29.0808 40.4843 29.3916C40.4843 29.7023 40.3976 29.7168 38.6416 29.7168C36.7771 29.7168 36.4447 29.7746 35.9894 30.1504C35.6064 30.4683 35.3318 31.0754 35.3318 31.5884C35.339 32.0943 35.498 32.4845 35.8449 32.8531C36.3435 33.3734 36.4664 33.4023 38.4031 33.4023C39.3425 33.4023 40.1953 33.4312 40.2964 33.4746C40.5349 33.5613 40.5638 33.9371 40.347 34.0527C40.2603 34.0961 39.5304 34.125 38.4826 34.125C36.8277 34.125 36.7482 34.1322 36.4013 34.2984C35.9677 34.5007 35.6209 34.8476 35.4546 35.2451C35.3029 35.6064 35.3029 36.3146 35.4474 36.6615C35.5919 37.0156 35.9677 37.4275 36.3218 37.6154C36.6037 37.7672 36.7265 37.7744 38.4609 37.7961C39.6171 37.8105 40.3326 37.8466 40.3904 37.8972C40.441 37.9406 40.4843 38.0634 40.4843 38.1791C40.4843 38.338 40.441 38.3959 40.3253 38.4248C40.2314 38.4392 39.3931 38.4681 38.4609 38.4754C36.9216 38.497 36.7337 38.5115 36.4375 38.6488C34.797 39.4004 35.0427 41.7634 36.7988 42.1392C37.0011 42.1826 37.8755 42.2187 38.7355 42.2187C40.3904 42.2187 40.4843 42.2332 40.4843 42.5439C40.4843 42.8547 40.3976 42.8691 38.6054 42.8691C36.6976 42.8691 36.4519 42.9125 35.9605 43.3316C35.3752 43.8302 35.1656 44.7263 35.4619 45.4562C35.6209 45.8392 36.2134 46.3812 36.5964 46.4824C36.7843 46.5402 37.955 46.5547 40.0724 46.5402C43.1943 46.5113 43.281 46.5113 43.7724 46.3451C46.0199 45.5935 47.523 43.888 47.9205 41.6117C47.9638 41.3732 48 40.3687 48 39.3859V37.5865L47.8193 37.413C47.5953 37.1818 47.3207 37.1818 47.0966 37.413L46.916 37.5865V39.3787C46.916 41.4888 46.8509 41.8791 46.374 42.8547C45.8175 43.9748 44.8853 44.7914 43.6496 45.2394L43.122 45.4345L39.9929 45.4562L36.8638 45.4779L36.6543 45.2611C36.2568 44.8709 36.3869 44.206 36.8855 44.0326C37.0228 43.982 37.7816 43.9531 38.7789 43.9531C40.5927 43.9531 40.824 43.9097 41.207 43.5123C41.7996 42.8908 41.6623 41.7923 40.9396 41.3371C40.6722 41.1781 40.6 41.1709 38.7861 41.1347C36.7843 41.0986 36.6904 41.0769 36.5025 40.7156C36.3363 40.4193 36.4013 40.058 36.647 39.805L36.871 39.581L38.7716 39.5449C40.7662 39.5088 40.9107 39.4798 41.2142 39.1402C41.5611 38.75 41.6767 38.0996 41.496 37.6298C41.3804 37.3263 41.0769 37.0228 40.7373 36.8638C40.4843 36.7482 40.2459 36.7265 38.7138 36.7265C37.124 36.7265 36.9578 36.7121 36.7482 36.582C36.3291 36.3291 36.3074 35.6931 36.7048 35.3752C36.8855 35.2234 36.9722 35.2162 38.7427 35.1945C40.7589 35.1728 40.8095 35.1584 41.2214 34.7248C41.4744 34.4574 41.5683 34.1972 41.5683 33.7564C41.5683 33.3806 41.3949 32.947 41.1636 32.7447C40.7517 32.3834 40.6216 32.3617 38.6705 32.3183C37.1746 32.2894 36.7988 32.2605 36.6904 32.1738C36.5169 32.0293 36.358 31.6318 36.4085 31.4728C36.6181 30.8297 36.7193 30.8007 38.7861 30.8007C40.6433 30.8007 40.7806 30.7791 41.1781 30.3816C41.4671 30.0853 41.5755 29.8107 41.5755 29.3843C41.5755 28.9002 41.366 28.4955 40.9685 28.2209L40.6794 28.0185L38.7933 27.9824C36.7843 27.9463 36.6904 27.9246 36.5025 27.5705C36.2857 27.1586 36.4953 26.6455 36.9505 26.4865C37.1095 26.4287 37.7744 26.3998 38.88 26.3998C40.3832 26.3925 40.5927 26.3781 40.8312 26.2552C41.1347 26.0963 41.2865 25.9445 41.4527 25.6193C41.5972 25.3375 41.6044 24.7377 41.4671 24.4197C41.3443 24.1089 40.9179 23.7476 40.5783 23.6537C40.4265 23.6103 39.581 23.5742 38.656 23.5742C37.3263 23.5742 36.965 23.5525 36.7988 23.4658C36.5386 23.3357 36.423 23.1261 36.423 22.8154C36.423 22.5047 36.5386 22.2951 36.7988 22.165C36.965 22.0783 37.3263 22.0566 38.656 22.0566C39.581 22.0566 40.4265 22.0205 40.5783 21.9771C40.9179 21.8832 41.3443 21.5218 41.4671 21.2111C41.6839 20.698 41.5322 19.9175 41.1636 19.5923C40.7878 19.2599 40.6433 19.2382 38.88 19.231C37.7744 19.231 37.1095 19.2021 36.9505 19.1443C36.4953 18.9853 36.2857 18.4722 36.5025 18.0603C36.6904 17.7062 36.7843 17.6845 38.7933 17.6484L40.6794 17.6123L40.9685 17.4099C41.5177 17.0269 41.7345 16.2898 41.4671 15.69C41.3298 15.3793 41.2359 15.2636 40.9179 15.0468C40.665 14.8662 40.6361 14.8662 38.7789 14.83C37.2541 14.8011 36.8638 14.7722 36.7554 14.6855C36.4375 14.4398 36.3363 14.1002 36.4736 13.775C36.6759 13.2908 36.5892 13.3052 40.0291 13.3269C42.9919 13.3486 43.1437 13.3558 43.5918 13.5076C45.2466 14.0713 46.5257 15.5382 46.8365 17.2437C46.8943 17.54 46.916 20.539 46.916 26.7322V35.7943L47.0966 35.9677C47.3207 36.199 47.5953 36.199 47.8193 35.9677L48 35.7943V26.6961C48 16.8101 48.0072 17.0197 47.6025 15.9863C46.9377 14.2808 45.6007 13.0523 43.7724 12.4381C43.2738 12.2718 43.2015 12.2718 39.9785 12.2502C36.8783 12.2285 36.6759 12.2357 36.4013 12.3658Z" fill="url(#paint0_linear_195_3178)"/>
<path d="M17.157 12.7343C15.7334 13.6521 15.0107 15.2853 15.2926 16.9185C15.3793 17.4171 15.531 17.8001 16.1814 19.1515C16.6078 20.0476 17.0197 20.857 17.092 20.9509C17.1931 21.0738 17.3015 21.1171 17.5039 21.1171C17.8219 21.1171 18.0097 20.9292 18.0097 20.604C18.0097 20.4956 17.6701 19.7152 17.251 18.8624C16.3765 17.0992 16.2609 16.6945 16.3621 15.8417C16.4416 15.1624 16.7451 14.5337 17.2148 14.0712C17.4099 13.8761 17.5834 13.7316 17.5978 13.7533C17.6267 13.7822 26.9418 32.7663 27.014 32.9398C27.0357 32.9831 26.884 33.0554 26.6672 33.106C26.2047 33.2072 25.4242 33.5829 25.0267 33.9009L24.7377 34.1322L24.6365 33.9298C24.5787 33.8214 23.2851 31.1909 21.7676 28.0908C20.25 24.9906 18.942 22.3818 18.8553 22.2878C18.5012 21.9048 17.9447 22.2372 18.0097 22.8009C18.017 22.8732 18.5084 23.9138 19.101 25.1134C19.6935 26.313 20.1777 27.3392 20.1777 27.4042C20.1777 27.462 19.5779 28.7339 18.848 30.2226L17.5183 32.9253L16.9474 33.0482C15.8996 33.2722 14.9312 33.872 14.2881 34.6886C13.9918 35.0644 12.1201 38.7138 11.4553 40.2169C11.1084 41.0046 10.9783 41.6839 11.0217 42.4355C11.159 44.5167 12.5103 46.1499 14.541 46.6702C15.1842 46.8365 16.4271 46.7786 17.0558 46.5618C17.7496 46.3234 18.4795 45.8464 18.9998 45.2972C19.4478 44.8275 19.5562 44.6324 20.7992 42.1031C21.5291 40.6288 22.1939 39.2124 22.2806 38.9595C22.6203 37.9333 22.5263 36.5747 22.0277 35.5486L21.7748 35.0283L22.324 33.9081L22.8732 32.788L23.408 33.9009L23.9428 35.021L23.7187 35.5124C23.1695 36.7048 23.09 37.8683 23.473 39.0173C23.5381 39.2124 24.1957 40.5999 24.94 42.1103C26.2697 44.8058 26.3058 44.8708 26.7972 45.3622C27.3754 45.9476 28.0185 46.3451 28.7412 46.5763C29.1603 46.7064 29.4133 46.7353 30.1865 46.7353C31.0176 46.7353 31.191 46.7064 31.6463 46.5474C32.3183 46.3017 33.0844 45.7814 33.5469 45.2683C33.9732 44.7913 34.4357 43.9025 34.6019 43.2304C34.7609 42.5872 34.7103 41.3443 34.4935 40.7372C34.4068 40.4988 33.7347 39.0896 32.9976 37.6009L31.6607 34.8909L31.0681 34.3056C30.3672 33.6118 29.7168 33.2505 28.8062 33.0626L28.2209 32.9398L26.8623 30.172L25.5037 27.4042L27.874 22.5841C30.3672 17.4966 30.5117 17.1425 30.5117 16.2103C30.5117 14.83 29.659 13.3413 28.4883 12.6765C28.0041 12.3947 27.7439 12.3802 27.5271 12.6259C27.4404 12.7199 26.3637 14.8661 25.1279 17.3882C23.8994 19.9103 22.866 21.9554 22.8443 21.9265C22.8154 21.8976 21.782 19.8091 20.5463 17.287C19.3105 14.765 18.2265 12.6404 18.147 12.5681C17.9086 12.373 17.6412 12.4163 17.157 12.7343ZM28.8135 14.3964C29.2254 14.9601 29.3844 15.4732 29.3916 16.2392C29.3916 16.6222 29.3482 16.9908 29.2904 17.1425C29.1603 17.4822 25.0123 25.9806 24.94 26.0601C24.8894 26.1179 24.015 24.4558 23.6465 23.5958L23.4875 23.2128L24.7738 20.5968C25.4748 19.1515 26.5226 17.0197 27.0935 15.8562L28.1269 13.7388L28.3365 13.8833C28.4521 13.9701 28.6689 14.2013 28.8135 14.3964ZM20.9004 28.7339C20.9004 28.7484 21.2039 29.3915 21.5724 30.1648L22.2517 31.5667L21.6303 32.8531L21.0088 34.1394L20.7197 33.9081C20.3512 33.6118 19.7513 33.3083 19.2021 33.1421C18.9637 33.0699 18.7541 33.0048 18.7396 32.9904C18.689 32.9542 20.7775 28.705 20.8426 28.705C20.8715 28.705 20.9004 28.7195 20.9004 28.7339ZM19.0287 34.2261C20.8426 34.862 21.8326 36.8421 21.2328 38.6271C21.1388 38.9161 20.4957 40.282 19.8092 41.6767C18.6312 44.0615 18.5373 44.2277 18.1109 44.6468C17.4244 45.3261 16.5572 45.6874 15.5888 45.6874C14.5771 45.6802 13.8689 45.3911 13.1607 44.6829C12.3224 43.8447 11.9683 42.7896 12.1418 41.6622C12.2213 41.1636 12.373 40.8023 13.5365 38.4103C14.3314 36.7915 14.9674 35.5775 15.148 35.339C15.531 34.8548 16.1381 34.4357 16.7668 34.2189C17.4461 33.9876 18.3711 33.9876 19.0287 34.2261ZM29.3844 34.3995C30.425 34.9199 30.5984 35.1583 32.0437 38.0923C33.5613 41.1853 33.5541 41.1636 33.5974 41.9368C33.6697 43.1437 33.2578 44.1337 32.3762 44.8781C31.6896 45.4562 31.032 45.6874 30.0926 45.6874C29.1025 45.6874 28.3726 45.3695 27.6211 44.6107L27.0791 44.0615L25.7928 41.4165C24.3908 38.5259 24.2463 38.1068 24.3258 37.2468C24.4703 35.7943 25.3953 34.6669 26.8261 34.1827C27.1369 34.0816 27.3898 34.0599 27.9969 34.0743C28.7412 34.096 28.799 34.1105 29.3844 34.3995Z" fill="url(#paint1_linear_195_3178)"/>
<path d="M17.157 35.6497C16.4343 35.9315 16.3259 36.0977 14.924 38.9378C13.6521 41.5104 13.6449 41.5393 13.616 42.0813C13.5798 42.7968 13.7605 43.2448 14.2664 43.7001C15.0974 44.4444 16.2609 44.4155 17.0269 43.6423C17.3521 43.3098 17.5472 42.9485 18.6601 40.6649L19.9175 38.0706V37.5575C19.9175 37.2034 19.8742 36.9505 19.7658 36.7192C19.325 35.7581 18.1326 35.2667 17.157 35.6497ZM18.5662 36.8927C18.689 37.0372 18.8191 37.2612 18.8408 37.4057C18.8986 37.6948 18.6818 38.1862 17.2003 41.1563C16.2753 43.0135 16.1597 43.1581 15.625 43.1581C15.3287 43.1581 14.9601 42.9557 14.7939 42.6956C14.5265 42.2909 14.5916 42.0813 15.849 39.5014C16.4994 38.1645 17.1136 36.9938 17.2148 36.8927C17.4677 36.6397 17.6339 36.5819 18.0097 36.6108C18.2626 36.6325 18.3783 36.6903 18.5662 36.8927Z" fill="url(#paint2_linear_195_3178)"/>
<path d="M27.3681 35.563C26.7972 35.7075 26.2625 36.1339 25.9879 36.6759C25.8216 36.9866 25.7711 37.7888 25.8867 38.1429C26.0529 38.627 28.3798 43.3315 28.575 43.5556C28.6834 43.6784 28.9363 43.8735 29.1386 43.9819C30.107 44.5095 31.3355 44.1626 31.8775 43.2159C32.1377 42.7679 32.2244 42.2042 32.1088 41.7489C32.0654 41.5755 31.4656 40.2819 30.7791 38.88C29.6373 36.5602 29.5 36.3001 29.1748 36.0183C28.6689 35.5774 28.0113 35.4112 27.3681 35.563ZM28.2714 36.6903C28.3871 36.7481 28.5388 36.8854 28.6183 36.9938C28.9218 37.4419 31.0898 41.9874 31.0898 42.1897C31.0898 42.5005 30.8586 42.8763 30.5767 43.028C30.172 43.2448 29.7457 43.1798 29.4421 42.8618C29.3482 42.7679 28.7412 41.5972 28.0908 40.2675C26.8045 37.6515 26.7539 37.4997 27.0429 37.03C27.2886 36.6253 27.8523 36.4735 28.2714 36.6903Z" fill="url(#paint3_linear_195_3178)"/>
</g>
<defs>
<linearGradient id="paint0_linear_195_3178" x1="41.6641" y1="46.5454" x2="41.6641" y2="12.2408" gradientUnits="userSpaceOnUse">
<stop stop-color="#44779D"/>
<stop offset="1" stop-color="#003156"/>
</linearGradient>
<linearGradient id="paint1_linear_195_3178" x1="22.8543" y1="46.7664" x2="22.8543" y2="12.4507" gradientUnits="userSpaceOnUse">
<stop stop-color="#44779D"/>
<stop offset="1" stop-color="#003156"/>
</linearGradient>
<linearGradient id="paint2_linear_195_3178" x1="16.7645" y1="44.2407" x2="16.7645" y2="35.5192" gradientUnits="userSpaceOnUse">
<stop stop-color="#44779D"/>
<stop offset="1" stop-color="#003156"/>
</linearGradient>
<linearGradient id="paint3_linear_195_3178" x1="28.9915" y1="44.2288" x2="28.9915" y2="35.5081" gradientUnits="userSpaceOnUse">
<stop stop-color="#44779D"/>
<stop offset="1" stop-color="#003156"/>
</linearGradient>
<clipPath id="clip0_195_3178">
<rect width="37" height="37" fill="white" transform="translate(11 11)"/>
</clipPath>
</defs>
</svg>
