<svg width="135" height="45" viewBox="0 0 135 45" fill="none" xmlns="http://www.w3.org/2000/svg">
<path d="M11.9056 25.324C9.97963 25.324 8.23363 24.91 6.66763 24.082C5.11963 23.236 3.89563 22.075 2.99563 20.599C2.11363 19.105 1.67263 17.422 1.67263 15.55C1.67263 13.678 2.11363 12.004 2.99563 10.528C3.89563 9.034 5.11963 7.873 6.66763 7.045C8.23363 6.199 9.98863 5.776 11.9326 5.776C13.5706 5.776 15.0466 6.064 16.3606 6.64C17.6926 7.216 18.8086 8.044 19.7086 9.124L16.9006 11.716C15.6226 10.24 14.0386 9.502 12.1486 9.502C10.9786 9.502 9.93463 9.763 9.01663 10.285C8.09863 10.789 7.37863 11.5 6.85663 12.418C6.35263 13.336 6.10063 14.38 6.10063 15.55C6.10063 16.72 6.35263 17.764 6.85663 18.682C7.37863 19.6 8.09863 20.32 9.01663 20.842C9.93463 21.346 10.9786 21.598 12.1486 21.598C14.0386 21.598 15.6226 20.851 16.9006 19.357L19.7086 21.949C18.8086 23.047 17.6926 23.884 16.3606 24.46C15.0286 25.036 13.5436 25.324 11.9056 25.324ZM36.0902 20.95H27.3152L25.6412 25H21.1592L29.5832 6.1H33.9032L42.3542 25H37.7642L36.0902 20.95ZM34.7132 17.629L31.7162 10.393L28.7192 17.629H34.7132ZM54.4465 25.324C52.5205 25.324 50.7745 24.91 49.2085 24.082C47.6605 23.236 46.4365 22.075 45.5365 20.599C44.6545 19.105 44.2135 17.422 44.2135 15.55C44.2135 13.678 44.6545 12.004 45.5365 10.528C46.4365 9.034 47.6605 7.873 49.2085 7.045C50.7745 6.199 52.5295 5.776 54.4735 5.776C56.1115 5.776 57.5875 6.064 58.9015 6.64C60.2335 7.216 61.3495 8.044 62.2495 9.124L59.4415 11.716C58.1635 10.24 56.5795 9.502 54.6895 9.502C53.5195 9.502 52.4755 9.763 51.5575 10.285C50.6395 10.789 49.9195 11.5 49.3975 12.418C48.8935 13.336 48.6415 14.38 48.6415 15.55C48.6415 16.72 48.8935 17.764 49.3975 18.682C49.9195 19.6 50.6395 20.32 51.5575 20.842C52.4755 21.346 53.5195 21.598 54.6895 21.598C56.5795 21.598 58.1635 20.851 59.4415 19.357L62.2495 21.949C61.3495 23.047 60.2335 23.884 58.9015 24.46C57.5695 25.036 56.0845 25.324 54.4465 25.324ZM83.8872 6.1V25H79.5132V17.251H70.9272V25H66.5532V6.1H70.9272V13.552H79.5132V6.1H83.8872ZM98.8619 25.324C96.8999 25.324 95.1269 24.901 93.5429 24.055C91.9769 23.209 90.7439 22.048 89.8439 20.572C88.9619 19.078 88.5209 17.404 88.5209 15.55C88.5209 13.696 88.9619 12.031 89.8439 10.555C90.7439 9.061 91.9769 7.891 93.5429 7.045C95.1269 6.199 96.8999 5.776 98.8619 5.776C100.824 5.776 102.588 6.199 104.154 7.045C105.72 7.891 106.953 9.061 107.853 10.555C108.753 12.031 109.203 13.696 109.203 15.55C109.203 17.404 108.753 19.078 107.853 20.572C106.953 22.048 105.72 23.209 104.154 24.055C102.588 24.901 100.824 25.324 98.8619 25.324ZM98.8619 21.598C99.9779 21.598 100.986 21.346 101.886 20.842C102.786 20.32 103.488 19.6 103.992 18.682C104.514 17.764 104.775 16.72 104.775 15.55C104.775 14.38 104.514 13.336 103.992 12.418C103.488 11.5 102.786 10.789 101.886 10.285C100.986 9.763 99.9779 9.502 98.8619 9.502C97.7459 9.502 96.7379 9.763 95.8379 10.285C94.9379 10.789 94.2269 11.5 93.7049 12.418C93.2009 13.336 92.9489 14.38 92.9489 15.55C92.9489 16.72 93.2009 17.764 93.7049 18.682C94.2269 19.6 94.9379 20.32 95.8379 20.842C96.7379 21.346 97.7459 21.598 98.8619 21.598ZM122.993 25.324C121.031 25.324 119.258 24.901 117.674 24.055C116.108 23.209 114.875 22.048 113.975 20.572C113.093 19.078 112.652 17.404 112.652 15.55C112.652 13.696 113.093 12.031 113.975 10.555C114.875 9.061 116.108 7.891 117.674 7.045C119.258 6.199 121.031 5.776 122.993 5.776C124.955 5.776 126.719 6.199 128.285 7.045C129.851 7.891 131.084 9.061 131.984 10.555C132.884 12.031 133.334 13.696 133.334 15.55C133.334 17.404 132.884 19.078 131.984 20.572C131.084 22.048 129.851 23.209 128.285 24.055C126.719 24.901 124.955 25.324 122.993 25.324ZM122.993 21.598C124.109 21.598 125.117 21.346 126.017 20.842C126.917 20.32 127.619 19.6 128.123 18.682C128.645 17.764 128.906 16.72 128.906 15.55C128.906 14.38 128.645 13.336 128.123 12.418C127.619 11.5 126.917 10.789 126.017 10.285C125.117 9.763 124.109 9.502 122.993 9.502C121.877 9.502 120.869 9.763 119.969 10.285C119.069 10.789 118.358 11.5 117.836 12.418C117.332 13.336 117.08 14.38 117.08 15.55C117.08 16.72 117.332 17.764 117.836 18.682C118.358 19.6 119.069 20.32 119.969 20.842C120.869 21.346 121.877 21.598 122.993 21.598Z" fill="white"/>
<path d="M13.8539 38.2547V40.7H12.5669V38.2745L9.84437 33.77H11.2205L13.25 37.1459L15.2993 33.77H16.5665L13.8539 38.2547ZM18.8787 40.7693C18.3441 40.7693 17.8623 40.6538 17.4333 40.4228C17.0043 40.1918 16.6677 39.8717 16.4235 39.4625C16.1859 39.0467 16.0671 38.5781 16.0671 38.0567C16.0671 37.5353 16.1859 37.07 16.4235 36.6608C16.6677 36.2516 17.0043 35.9315 17.4333 35.7005C17.8623 35.4695 18.3441 35.354 18.8787 35.354C19.4199 35.354 19.905 35.4695 20.334 35.7005C20.763 35.9315 21.0963 36.2516 21.3339 36.6608C21.5781 37.07 21.7002 37.5353 21.7002 38.0567C21.7002 38.5781 21.5781 39.0467 21.3339 39.4625C21.0963 39.8717 20.763 40.1918 20.334 40.4228C19.905 40.6538 19.4199 40.7693 18.8787 40.7693ZM18.8787 39.71C19.3341 39.71 19.7103 39.5582 20.0073 39.2546C20.3043 38.951 20.4528 38.5517 20.4528 38.0567C20.4528 37.5617 20.3043 37.1624 20.0073 36.8588C19.7103 36.5552 19.3341 36.4034 18.8787 36.4034C18.4233 36.4034 18.0471 36.5552 17.7501 36.8588C17.4597 37.1624 17.3145 37.5617 17.3145 38.0567C17.3145 38.5517 17.4597 38.951 17.7501 39.2546C18.0471 39.5582 18.4233 39.71 18.8787 39.71ZM27.8039 35.4134V40.7H26.6258V40.0268C26.4278 40.2644 26.1803 40.4492 25.8833 40.5812C25.5863 40.7066 25.2662 40.7693 24.923 40.7693C24.2168 40.7693 23.6591 40.5746 23.2499 40.1852C22.8473 39.7892 22.646 39.2051 22.646 38.4329V35.4134H23.8835V38.2646C23.8835 38.7398 23.9891 39.0962 24.2003 39.3338C24.4181 39.5648 24.725 39.6803 25.121 39.6803C25.5632 39.6803 25.913 39.545 26.1704 39.2744C26.4344 38.9972 26.5664 38.6012 26.5664 38.0864V35.4134H27.8039ZM30.4043 36.1856C30.7607 35.6312 31.3877 35.354 32.2853 35.354V36.5321C32.1797 36.5123 32.084 36.5024 31.9982 36.5024C31.5164 36.5024 31.1402 36.6443 30.8696 36.9281C30.599 37.2053 30.4637 37.6079 30.4637 38.1359V40.7H29.2262V35.4134H30.4043V36.1856ZM40.9704 35.4134V39.8981C40.9704 41.7593 40.02 42.6899 38.1192 42.6899C37.611 42.6899 37.1292 42.6239 36.6738 42.4919C36.2184 42.3665 35.8422 42.1817 35.5452 41.9375L36.0996 41.0069C36.3306 41.1983 36.621 41.3501 36.9708 41.4623C37.3272 41.5811 37.6869 41.6405 38.0499 41.6405C38.6307 41.6405 39.0564 41.5085 39.327 41.2445C39.5976 40.9805 39.7329 40.5779 39.7329 40.0367V39.7595C39.5217 39.9905 39.2643 40.1654 38.9607 40.2842C38.6571 40.403 38.3238 40.4624 37.9608 40.4624C37.4592 40.4624 37.0038 40.3568 36.5946 40.1456C36.192 39.9278 35.8719 39.6242 35.6343 39.2348C35.4033 38.8454 35.2878 38.3999 35.2878 37.8983C35.2878 37.3967 35.4033 36.9545 35.6343 36.5717C35.8719 36.1823 36.192 35.882 36.5946 35.6708C37.0038 35.4596 37.4592 35.354 37.9608 35.354C38.3436 35.354 38.6901 35.4167 39.0003 35.5421C39.3171 35.6675 39.5811 35.8589 39.7923 36.1163V35.4134H40.9704ZM38.1489 39.413C38.6175 39.413 39.0003 39.2744 39.2973 38.9972C39.6009 38.7134 39.7527 38.3471 39.7527 37.8983C39.7527 37.4561 39.6009 37.0964 39.2973 36.8192C39.0003 36.542 38.6175 36.4034 38.1489 36.4034C37.6737 36.4034 37.2843 36.542 36.9807 36.8192C36.6837 37.0964 36.5352 37.4561 36.5352 37.8983C36.5352 38.3471 36.6837 38.7134 36.9807 38.9972C37.2843 39.2744 37.6737 39.413 38.1489 39.413ZM47.5177 35.4134V40.7H46.3396V40.0268C46.1416 40.2644 45.8941 40.4492 45.5971 40.5812C45.3001 40.7066 44.98 40.7693 44.6368 40.7693C43.9306 40.7693 43.3729 40.5746 42.9637 40.1852C42.5611 39.7892 42.3598 39.2051 42.3598 38.4329V35.4134H43.5973V38.2646C43.5973 38.7398 43.7029 39.0962 43.9141 39.3338C44.1319 39.5648 44.4388 39.6803 44.8348 39.6803C45.277 39.6803 45.6268 39.545 45.8842 39.2744C46.1482 38.9972 46.2802 38.6012 46.2802 38.0864V35.4134H47.5177ZM48.9399 35.4134H50.1774V40.7H48.9399V35.4134ZM49.5636 34.5422C49.3392 34.5422 49.1511 34.4729 48.9993 34.3343C48.8475 34.1891 48.7716 34.0109 48.7716 33.7997C48.7716 33.5885 48.8475 33.4136 48.9993 33.275C49.1511 33.1298 49.3392 33.0572 49.5636 33.0572C49.788 33.0572 49.9761 33.1265 50.1279 33.2651C50.2797 33.3971 50.3556 33.5654 50.3556 33.77C50.3556 33.9878 50.2797 34.1726 50.1279 34.3244C49.9827 34.4696 49.7946 34.5422 49.5636 34.5422ZM56.7814 33.3542V40.7H55.5934V40.0169C55.3888 40.2677 55.1347 40.4558 54.8311 40.5812C54.5341 40.7066 54.2041 40.7693 53.8411 40.7693C53.3329 40.7693 52.8742 40.6571 52.465 40.4327C52.0624 40.2083 51.7456 39.8915 51.5146 39.4823C51.2836 39.0665 51.1681 38.5913 51.1681 38.0567C51.1681 37.5221 51.2836 37.0502 51.5146 36.641C51.7456 36.2318 52.0624 35.915 52.465 35.6906C52.8742 35.4662 53.3329 35.354 53.8411 35.354C54.1909 35.354 54.511 35.4134 54.8014 35.5322C55.0918 35.651 55.3393 35.8292 55.5439 36.0668V33.3542H56.7814ZM53.9896 39.71C54.2866 39.71 54.5539 39.644 54.7915 39.512C55.0291 39.3734 55.2172 39.1787 55.3558 38.9279C55.4944 38.6771 55.5637 38.3867 55.5637 38.0567C55.5637 37.7267 55.4944 37.4363 55.3558 37.1855C55.2172 36.9347 55.0291 36.7433 54.7915 36.6113C54.5539 36.4727 54.2866 36.4034 53.9896 36.4034C53.6926 36.4034 53.4253 36.4727 53.1877 36.6113C52.9501 36.7433 52.762 36.9347 52.6234 37.1855C52.4848 37.4363 52.4155 37.7267 52.4155 38.0567C52.4155 38.3867 52.4848 38.6771 52.6234 38.9279C52.762 39.1787 52.9501 39.3734 53.1877 39.512C53.4253 39.644 53.6926 39.71 53.9896 39.71ZM63.172 38.0864C63.172 38.1722 63.1654 38.2943 63.1522 38.4527H59.0041C59.0767 38.8421 59.2648 39.1523 59.5684 39.3833C59.8786 39.6077 60.2614 39.7199 60.7168 39.7199C61.2976 39.7199 61.7761 39.5285 62.1523 39.1457L62.8156 39.908C62.578 40.1918 62.2777 40.4063 61.9147 40.5515C61.5517 40.6967 61.1425 40.7693 60.6871 40.7693C60.1063 40.7693 59.5948 40.6538 59.1526 40.4228C58.7104 40.1918 58.3672 39.8717 58.123 39.4625C57.8854 39.0467 57.7666 38.5781 57.7666 38.0567C57.7666 37.5419 57.8821 37.0799 58.1131 36.6707C58.3507 36.2549 58.6774 35.9315 59.0932 35.7005C59.509 35.4695 59.9776 35.354 60.499 35.354C61.0138 35.354 61.4725 35.4695 61.8751 35.7005C62.2843 35.9249 62.6011 36.245 62.8255 36.6608C63.0565 37.07 63.172 37.5452 63.172 38.0864ZM60.499 36.344C60.103 36.344 59.7664 36.4628 59.4892 36.7004C59.2186 36.9314 59.0536 37.2416 58.9942 37.631H61.9939C61.9411 37.2482 61.7794 36.938 61.5088 36.7004C61.2382 36.4628 60.9016 36.344 60.499 36.344ZM69.8787 40.4129C69.7335 40.5317 69.5553 40.6208 69.3441 40.6802C69.1395 40.7396 68.9217 40.7693 68.6907 40.7693C68.1099 40.7693 67.6611 40.6175 67.3443 40.3139C67.0275 40.0103 66.8691 39.5681 66.8691 38.9873V36.443H65.9979V35.453H66.8691V34.2452H68.1066V35.453H69.5223V36.443H68.1066V38.9576C68.1066 39.215 68.1693 39.413 68.2947 39.5516C68.4201 39.6836 68.6016 39.7496 68.8392 39.7496C69.1164 39.7496 69.3474 39.677 69.5322 39.5318L69.8787 40.4129ZM72.9006 40.7693C72.366 40.7693 71.8842 40.6538 71.4552 40.4228C71.0262 40.1918 70.6896 39.8717 70.4454 39.4625C70.2078 39.0467 70.089 38.5781 70.089 38.0567C70.089 37.5353 70.2078 37.07 70.4454 36.6608C70.6896 36.2516 71.0262 35.9315 71.4552 35.7005C71.8842 35.4695 72.366 35.354 72.9006 35.354C73.4418 35.354 73.9269 35.4695 74.3559 35.7005C74.7849 35.9315 75.1182 36.2516 75.3558 36.6608C75.6 37.07 75.7221 37.5353 75.7221 38.0567C75.7221 38.5781 75.6 39.0467 75.3558 39.4625C75.1182 39.8717 74.7849 40.1918 74.3559 40.4228C73.9269 40.6538 73.4418 40.7693 72.9006 40.7693ZM72.9006 39.71C73.356 39.71 73.7322 39.5582 74.0292 39.2546C74.3262 38.951 74.4747 38.5517 74.4747 38.0567C74.4747 37.5617 74.3262 37.1624 74.0292 36.8588C73.7322 36.5552 73.356 36.4034 72.9006 36.4034C72.4452 36.4034 72.069 36.5552 71.772 36.8588C71.4816 37.1624 71.3364 37.5617 71.3364 38.0567C71.3364 38.5517 71.4816 38.951 71.772 39.2546C72.069 39.5582 72.4452 39.71 72.9006 39.71ZM82.4234 40.4129C82.2782 40.5317 82.1 40.6208 81.8888 40.6802C81.6842 40.7396 81.4664 40.7693 81.2354 40.7693C80.6546 40.7693 80.2058 40.6175 79.889 40.3139C79.5722 40.0103 79.4138 39.5681 79.4138 38.9873V36.443H78.5426V35.453H79.4138V34.2452H80.6513V35.453H82.067V36.443H80.6513V38.9576C80.6513 39.215 80.714 39.413 80.8394 39.5516C80.9648 39.6836 81.1463 39.7496 81.3839 39.7496C81.6611 39.7496 81.8921 39.677 82.0769 39.5318L82.4234 40.4129ZM86.2431 35.354C86.9097 35.354 87.4443 35.5487 87.8469 35.9381C88.2495 36.3275 88.4508 36.905 88.4508 37.6706V40.7H87.2133V37.829C87.2133 37.367 87.1044 37.0205 86.8866 36.7895C86.6688 36.5519 86.3586 36.4331 85.956 36.4331C85.5006 36.4331 85.1409 36.5717 84.8769 36.8489C84.6129 37.1195 84.4809 37.5122 84.4809 38.027V40.7H83.2434V33.3542H84.4809V36.0272C84.6855 35.8094 84.9363 35.6444 85.2333 35.5322C85.5369 35.4134 85.8735 35.354 86.2431 35.354ZM94.8408 38.0864C94.8408 38.1722 94.8342 38.2943 94.821 38.4527H90.6729C90.7455 38.8421 90.9336 39.1523 91.2372 39.3833C91.5474 39.6077 91.9302 39.7199 92.3856 39.7199C92.9664 39.7199 93.4449 39.5285 93.8211 39.1457L94.4844 39.908C94.2468 40.1918 93.9465 40.4063 93.5835 40.5515C93.2205 40.6967 92.8113 40.7693 92.3559 40.7693C91.7751 40.7693 91.2636 40.6538 90.8214 40.4228C90.3792 40.1918 90.036 39.8717 89.7918 39.4625C89.5542 39.0467 89.4354 38.5781 89.4354 38.0567C89.4354 37.5419 89.5509 37.0799 89.7819 36.6707C90.0195 36.2549 90.3462 35.9315 90.762 35.7005C91.1778 35.4695 91.6464 35.354 92.1678 35.354C92.6826 35.354 93.1413 35.4695 93.5439 35.7005C93.9531 35.9249 94.2699 36.245 94.4943 36.6608C94.7253 37.07 94.8408 37.5452 94.8408 38.0864ZM92.1678 36.344C91.7718 36.344 91.4352 36.4628 91.158 36.7004C90.8874 36.9314 90.7224 37.2416 90.663 37.631H93.6627C93.6099 37.2482 93.4482 36.938 93.1776 36.7004C92.907 36.4628 92.5704 36.344 92.1678 36.344ZM106.616 35.4134L104.666 40.7H103.478L102.112 37.0568L100.726 40.7H99.5377L97.5973 35.4134H98.7655L100.161 39.314L101.617 35.4134H102.656L104.082 39.3338L105.517 35.4134H106.616ZM109.5 40.7693C108.965 40.7693 108.484 40.6538 108.055 40.4228C107.626 40.1918 107.289 39.8717 107.045 39.4625C106.807 39.0467 106.688 38.5781 106.688 38.0567C106.688 37.5353 106.807 37.07 107.045 36.6608C107.289 36.2516 107.626 35.9315 108.055 35.7005C108.484 35.4695 108.965 35.354 109.5 35.354C110.041 35.354 110.526 35.4695 110.955 35.7005C111.384 35.9315 111.718 36.2516 111.955 36.6608C112.199 37.07 112.322 37.5353 112.322 38.0567C112.322 38.5781 112.199 39.0467 111.955 39.4625C111.718 39.8717 111.384 40.1918 110.955 40.4228C110.526 40.6538 110.041 40.7693 109.5 40.7693ZM109.5 39.71C109.955 39.71 110.332 39.5582 110.629 39.2546C110.926 38.951 111.074 38.5517 111.074 38.0567C111.074 37.5617 110.926 37.1624 110.629 36.8588C110.332 36.5552 109.955 36.4034 109.5 36.4034C109.045 36.4034 108.668 36.5552 108.371 36.8588C108.081 37.1624 107.936 37.5617 107.936 38.0567C107.936 38.5517 108.081 38.951 108.371 39.2546C108.668 39.5582 109.045 39.71 109.5 39.71ZM114.485 36.1856C114.841 35.6312 115.468 35.354 116.366 35.354V36.5321C116.26 36.5123 116.165 36.5024 116.079 36.5024C115.597 36.5024 115.221 36.6443 114.95 36.9281C114.68 37.2053 114.544 37.6079 114.544 38.1359V40.7H113.307V35.4134H114.485V36.1856ZM117.218 33.3542H118.455V40.7H117.218V33.3542ZM125.059 33.3542V40.7H123.871V40.0169C123.667 40.2677 123.413 40.4558 123.109 40.5812C122.812 40.7066 122.482 40.7693 122.119 40.7693C121.611 40.7693 121.152 40.6571 120.743 40.4327C120.34 40.2083 120.023 39.8915 119.792 39.4823C119.561 39.0665 119.446 38.5913 119.446 38.0567C119.446 37.5221 119.561 37.0502 119.792 36.641C120.023 36.2318 120.34 35.915 120.743 35.6906C121.152 35.4662 121.611 35.354 122.119 35.354C122.469 35.354 122.789 35.4134 123.079 35.5322C123.37 35.651 123.617 35.8292 123.822 36.0668V33.3542H125.059ZM122.267 39.71C122.564 39.71 122.832 39.644 123.069 39.512C123.307 39.3734 123.495 39.1787 123.634 38.9279C123.772 38.6771 123.842 38.3867 123.842 38.0567C123.842 37.7267 123.772 37.4363 123.634 37.1855C123.495 36.9347 123.307 36.7433 123.069 36.6113C122.832 36.4727 122.564 36.4034 122.267 36.4034C121.97 36.4034 121.703 36.4727 121.466 36.6113C121.228 36.7433 121.04 36.9347 120.901 37.1855C120.763 37.4363 120.693 37.7267 120.693 38.0567C120.693 38.3867 120.763 38.6771 120.901 38.9279C121.04 39.1787 121.228 39.3734 121.466 39.512C121.703 39.644 121.97 39.71 122.267 39.71Z" fill="white"/>
</svg>
