<svg width="22" height="21" viewBox="0 0 22 21" fill="none" xmlns="http://www.w3.org/2000/svg">
<path d="M21 9C21 6.19974 21 4.79961 20.455 3.73005C19.9757 2.78924 19.2108 2.02433 18.27 1.54497C17.2004 1 15.8003 1 13 1H9C6.19974 1 4.79961 1 3.73005 1.54497C2.78924 2.02433 2.02433 2.78924 1.54497 3.73005C1 4.79961 1 6.19974 1 9V13.2283C1 15.3114 2.68863 17 4.77166 17H5.37341C6.15251 17 6.68525 17.7869 6.3959 18.5103C5.98743 19.5314 7.1635 20.4546 8.05848 19.8154L10.6692 17.9506C10.6958 17.9315 10.7092 17.922 10.7222 17.9128C11.5562 17.3251 12.5501 17.0066 13.5703 17.0001C13.5863 17 13.6027 17 13.6354 17H14.1842C15.8734 17 16.7179 17 17.4069 16.798C19.041 16.3188 20.3188 15.041 20.798 13.4069C21 12.7179 21 11.8734 21 10.1842V9Z" stroke="#44779D" stroke-width="1.5"/>
<path d="M8 9C8 9.55228 7.55228 10 7 10C6.44772 10 6 9.55228 6 9C6 8.44772 6.44772 8 7 8C7.55228 8 8 8.44772 8 9Z" fill="#44779D"/>
<path d="M12 9C12 9.55228 11.5523 10 11 10C10.4477 10 10 9.55228 10 9C10 8.44772 10.4477 8 11 8C11.5523 8 12 8.44772 12 9Z" fill="#44779D"/>
<path d="M16 9C16 9.55228 15.5523 10 15 10C14.4477 10 14 9.55228 14 9C14 8.44772 14.4477 8 15 8C15.5523 8 16 8.44772 16 9Z" fill="#44779D"/>
</svg>
