<svg width="24" height="26" viewBox="0 0 24 26" fill="none" xmlns="http://www.w3.org/2000/svg">
<path d="M19.3333 8.33333C19.3333 6.38841 18.5607 4.52315 17.1854 3.14788C15.8102 1.77262 13.9449 1 12 1C10.0551 1 8.18982 1.77262 6.81455 3.14788C5.43928 4.52315 4.66667 6.38841 4.66667 8.33333C4.66667 16.8889 1 19.3333 1 19.3333H23C23 19.3333 19.3333 16.8889 19.3333 8.33333Z" fill="white" stroke="white" stroke-width="1.5" stroke-linecap="round" stroke-linejoin="round"/>
<path d="M14.1141 23.1746C13.8993 23.545 13.5908 23.8525 13.2198 24.0662C12.8487 24.28 12.4279 24.3925 11.9997 24.3925C11.5715 24.3925 11.1507 24.28 10.7796 24.0662C10.4086 23.8525 10.1001 23.545 9.88525 23.1746" fill="white"/>
<path d="M14.1141 23.1746C13.8993 23.545 13.5908 23.8525 13.2198 24.0662C12.8487 24.28 12.4279 24.3925 11.9997 24.3925C11.5715 24.3925 11.1507 24.28 10.7796 24.0662C10.4086 23.8525 10.1001 23.545 9.88525 23.1746" stroke="white" stroke-width="2" stroke-linecap="round" stroke-linejoin="round"/>
</svg>
