<svg width="24" height="23" viewBox="0 0 24 23" fill="none" xmlns="http://www.w3.org/2000/svg">
<path d="M13.9997 6.88603C14.3224 7.83867 15.2479 8.48366 16.2922 8.48366M5.09755 6.01471C6.66959 6.01471 8.06284 5.00245 8.54862 3.50736C9.63488 0.164215 14.3645 0.164215 15.4508 3.50736C15.9366 5.00245 17.3298 6.01471 18.9019 6.01471C22.417 6.01471 23.8786 10.5129 21.0347 12.579C19.7629 13.5031 19.2308 15.1409 19.7165 16.636C20.8028 19.9792 16.9764 22.7592 14.1326 20.693C12.8608 19.769 11.1386 19.769 9.86682 20.693C7.02297 22.7592 3.19661 19.9792 4.28286 16.636C4.76865 15.1409 4.23647 13.5031 2.96466 12.579C0.12082 10.5129 1.58236 6.01471 5.09755 6.01471Z" stroke="#44779D" stroke-width="1.5" stroke-linecap="round"/>
</svg>
