<svg width="24" height="24" viewBox="0 0 24 24" fill="none" xmlns="http://www.w3.org/2000/svg">
<g clip-path="url(#clip0_684_3731)">
<path d="M12 20C14.1217 20 16.1566 19.1571 17.6569 17.6569C19.1571 16.1566 20 14.1217 20 12C20 9.87827 19.1571 7.84344 17.6569 6.34315C16.1566 4.84285 14.1217 4 12 4C9.87827 4 7.84344 4.84285 6.34315 6.34315C4.84285 7.84344 4 9.87827 4 12C4 14.1217 4.84285 16.1566 6.34315 17.6569C7.84344 19.1571 9.87827 20 12 20V20Z" stroke="white" stroke-width="2" stroke-linecap="round" stroke-linejoin="round"/>
<path d="M12 3.2V1M3.2 12H1M12 20.8V23M20.8 12H23M12 15.3C12.8752 15.3 13.7146 14.9523 14.3335 14.3335C14.9523 13.7146 15.3 12.8752 15.3 12C15.3 11.1248 14.9523 10.2854 14.3335 9.66655C13.7146 9.04768 12.8752 8.7 12 8.7C11.1248 8.7 10.2854 9.04768 9.66655 9.66655C9.04768 10.2854 8.7 11.1248 8.7 12C8.7 12.8752 9.04768 13.7146 9.66655 14.3335C10.2854 14.9523 11.1248 15.3 12 15.3Z" stroke="white" stroke-width="2" stroke-linecap="round" stroke-linejoin="round"/>
</g>
<defs>
<clipPath id="clip0_684_3731">
<rect width="24" height="24" fill="white"/>
</clipPath>
</defs>
</svg>
