<svg width="25" height="24" viewBox="0 0 25 24" fill="none" xmlns="http://www.w3.org/2000/svg">
<g clip-path="url(#clip0_4670_12638)">
<path d="M12.4277 20C14.5495 20 16.5843 19.1571 18.0846 17.6569C19.5849 16.1566 20.4277 14.1217 20.4277 12C20.4277 9.87827 19.5849 7.84344 18.0846 6.34315C16.5843 4.84285 14.5495 4 12.4277 4C10.306 4 8.27117 4.84285 6.77088 6.34315C5.27059 7.84344 4.42773 9.87827 4.42773 12C4.42773 14.1217 5.27059 16.1566 6.77088 17.6569C8.27117 19.1571 10.306 20 12.4277 20V20Z" stroke="#52A5FF" stroke-width="2" stroke-linecap="round" stroke-linejoin="round"/>
<path d="M12.4277 3.2V1M3.62773 12H1.42773M12.4277 20.8V23M21.2277 12H23.4277M12.4277 15.3C13.3029 15.3 14.1423 14.9523 14.7612 14.3335C15.3801 13.7146 15.7277 12.8752 15.7277 12C15.7277 11.1248 15.3801 10.2854 14.7612 9.66655C14.1423 9.04768 13.3029 8.7 12.4277 8.7C11.5525 8.7 10.7132 9.04768 10.0943 9.66655C9.47541 10.2854 9.12773 11.1248 9.12773 12C9.12773 12.8752 9.47541 13.7146 10.0943 14.3335C10.7132 14.9523 11.5525 15.3 12.4277 15.3Z" stroke="#52A5FF" stroke-width="2" stroke-linecap="round" stroke-linejoin="round"/>
</g>
<defs>
<clipPath id="clip0_4670_12638">
<rect width="24" height="24" fill="white" transform="translate(0.427734)"/>
</clipPath>
</defs>
</svg>
