<svg width="15" height="15" viewBox="0 0 15 15" fill="none" xmlns="http://www.w3.org/2000/svg">
<path d="M7.29883 3.67847C5.29883 3.67847 3.70508 5.30347 3.70508 7.27222C3.70508 9.27222 5.29883 10.866 7.29883 10.866C9.26758 10.866 10.8926 9.27222 10.8926 7.27222C10.8926 5.30347 9.26758 3.67847 7.29883 3.67847ZM7.29883 9.61597C6.01758 9.61597 4.95508 8.58472 4.95508 7.27222C4.95508 5.99097 5.98633 4.95972 7.29883 4.95972C8.58008 4.95972 9.61133 5.99097 9.61133 7.27222C9.61133 8.58472 8.58008 9.61597 7.29883 9.61597ZM11.8613 3.55347C11.8613 3.08472 11.4863 2.70972 11.0176 2.70972C10.5488 2.70972 10.1738 3.08472 10.1738 3.55347C10.1738 4.02222 10.5488 4.39722 11.0176 4.39722C11.4863 4.39722 11.8613 4.02222 11.8613 3.55347ZM14.2363 4.39722C14.1738 3.27222 13.9238 2.27222 13.1113 1.45972C12.2988 0.647217 11.2988 0.397217 10.1738 0.334717C9.01758 0.272217 5.54883 0.272217 4.39258 0.334717C3.26758 0.397217 2.29883 0.647217 1.45508 1.45972C0.642578 2.27222 0.392578 3.27222 0.330078 4.39722C0.267578 5.55347 0.267578 9.02222 0.330078 10.1785C0.392578 11.3035 0.642578 12.2722 1.45508 13.116C2.29883 13.9285 3.26758 14.1785 4.39258 14.241C5.54883 14.3035 9.01758 14.3035 10.1738 14.241C11.2988 14.1785 12.2988 13.9285 13.1113 13.116C13.9238 12.2722 14.1738 11.3035 14.2363 10.1785C14.2988 9.02222 14.2988 5.55347 14.2363 4.39722ZM12.7363 11.3972C12.5176 12.0222 12.0176 12.491 11.4238 12.741C10.4863 13.116 8.29883 13.0222 7.29883 13.0222C6.26758 13.0222 4.08008 13.116 3.17383 12.741C2.54883 12.491 2.08008 12.0222 1.83008 11.3972C1.45508 10.491 1.54883 8.30347 1.54883 7.27222C1.54883 6.27222 1.45508 4.08472 1.83008 3.14722C2.08008 2.55347 2.54883 2.08472 3.17383 1.83472C4.08008 1.45972 6.26758 1.55347 7.29883 1.55347C8.29883 1.55347 10.4863 1.45972 11.4238 1.83472C12.0176 2.05347 12.4863 2.55347 12.7363 3.14722C13.1113 4.08472 13.0176 6.27222 13.0176 7.27222C13.0176 8.30347 13.1113 10.491 12.7363 11.3972Z" fill="#D3D6D8"/>
</svg>
