<svg width="13" height="7" viewBox="0 0 13 7" fill="none" xmlns="http://www.w3.org/2000/svg">
<path d="M0.648193 1.06641C0.648193 1.3584 0.749756 1.59326 0.952881 1.79639L5.61206 6.57617C5.88501 6.84912 6.15161 6.96973 6.48804 6.97607C6.81811 6.97607 7.09741 6.84912 7.36401 6.57617L12.0295 1.80273C12.2263 1.59326 12.3279 1.35205 12.3279 1.06641C12.3279 0.482422 11.8582 -2.05324e-08 11.2742 -4.60592e-08C10.9822 -5.88226e-08 10.7156 0.126953 10.4934 0.342773L6.48169 4.48779L2.48267 0.342773C2.2605 0.120605 1.9939 -4.51713e-07 1.7019 -4.64476e-07C1.12427 -4.89725e-07 0.648193 0.482421 0.648193 1.06641Z" fill="#888888"/>
</svg>
