<svg width="15" height="15" viewBox="0 0 15 15" fill="none" xmlns="http://www.w3.org/2000/svg">
<path d="M13.0352 0.272217H1.00391C0.472656 0.272217 0.0351562 0.740967 0.0351562 1.30347V13.2722C0.0351562 13.8347 0.472656 14.2722 1.00391 14.2722H13.0352C13.5664 14.2722 14.0352 13.8347 14.0352 13.2722V1.30347C14.0352 0.740967 13.5664 0.272217 13.0352 0.272217ZM4.25391 12.2722H2.19141V5.61597H4.25391V12.2722ZM3.22266 4.67847C2.53516 4.67847 2.00391 4.14722 2.00391 3.49097C2.00391 2.83472 2.53516 2.27222 3.22266 2.27222C3.87891 2.27222 4.41016 2.83472 4.41016 3.49097C4.41016 4.14722 3.87891 4.67847 3.22266 4.67847ZM12.0352 12.2722H9.94141V9.02222C9.94141 8.27222 9.94141 7.27222 8.87891 7.27222C7.78516 7.27222 7.62891 8.11597 7.62891 8.99097V12.2722H5.56641V5.61597H7.53516V6.52222H7.56641C7.84766 5.99097 8.53516 5.42847 9.53516 5.42847C11.6289 5.42847 12.0352 6.83472 12.0352 8.61597V12.2722Z" fill="#D3D6D8"/>
</svg>
