<svg width="20" height="20" viewBox="0 0 20 20" fill="none" xmlns="http://www.w3.org/2000/svg">
<path d="M18.3327 18.3333L16.666 16.6666M9.58268 17.5C10.6223 17.5 11.6518 17.2952 12.6123 16.8973C13.5728 16.4995 14.4455 15.9164 15.1806 15.1812C15.9157 14.4461 16.4989 13.5734 16.8967 12.6129C17.2946 11.6524 17.4993 10.6229 17.4993 9.58329C17.4993 8.54366 17.2946 7.51421 16.8967 6.55372C16.4989 5.59322 15.9157 4.72049 15.1806 3.98536C14.4455 3.25023 13.5728 2.6671 12.6123 2.26925C11.6518 1.8714 10.6223 1.66663 9.58268 1.66663C7.48305 1.66663 5.46942 2.5007 3.98475 3.98536C2.50009 5.47003 1.66602 7.48366 1.66602 9.58329C1.66602 11.6829 2.50009 13.6966 3.98475 15.1812C5.46942 16.6659 7.48305 17.5 9.58268 17.5V17.5Z" stroke="#44779D" stroke-width="1.5" stroke-linecap="round" stroke-linejoin="round"/>
</svg>
