<svg width="123" height="35" viewBox="0 0 123 35" fill="none" xmlns="http://www.w3.org/2000/svg">
<g clip-path="url(#clip0_5309_9925)">
<path d="M18.7715 21.8592H11.6024C4.62356 21.8592 0.96875 17.8608 0.96875 12.4983C0.96875 6.31814 5.71343 2.5127 11.9762 2.5127C14.4551 2.5127 16.3697 2.99957 17.2194 3.46119L16.2813 6.91066C15.3116 6.48579 13.8795 6.09537 12.1462 6.09537C8.42339 6.09537 5.57975 8.21972 5.57975 12.2364C5.57975 15.764 7.9385 18.3339 12.1847 18.3339H20.6748L18.7692 21.8615L18.7715 21.8592Z" fill="white"/>
<path d="M58.5797 21.0324C57.7527 21.4527 55.7497 21.9648 53.1893 21.9648C46.2127 21.9648 42.5557 17.8608 42.5557 12.4983C42.5557 6.31814 47.3003 2.5127 53.5631 2.5127C56.042 2.5127 57.9566 2.99957 58.8063 3.46119L57.8683 6.91066C56.8985 6.48579 55.4665 6.09537 53.7331 6.09537C50.0103 6.09537 47.1667 8.21972 47.1667 12.2364C47.1667 15.764 49.5254 18.3339 53.7716 18.3339C55.2829 18.3339 56.903 18.0376 57.8637 17.6174L58.5797 21.0347V21.0324Z" fill="white"/>
<path d="M65.9964 2.8457V9.96742H73.9563V2.8457H78.3385V21.6295H73.9563V13.7706H65.9964V21.6295H61.6143V2.8457H65.9964Z" fill="white"/>
<path d="M101.08 12.0962C101.08 17.9525 97.0156 21.9647 90.9612 21.9647C84.9069 21.9647 81.2725 17.8469 81.2725 12.4223C81.2725 6.64641 85.3533 2.51025 91.2626 2.51025C97.1719 2.51025 101.08 6.60048 101.08 12.0962ZM85.9265 12.3006C85.9265 15.7868 87.9476 18.5198 91.1878 18.5198C94.428 18.5198 96.4242 15.8351 96.4242 12.2294C96.4242 8.81898 94.4846 5.95514 91.1833 5.95514C87.8819 5.95514 85.9265 8.77305 85.9265 12.3006Z" fill="white"/>
<path d="M122.969 12.0962C122.969 17.9525 118.904 21.9647 112.85 21.9647C106.796 21.9647 103.161 17.8469 103.161 12.4223C103.161 6.64641 107.242 2.51025 113.151 2.51025C119.061 2.51025 122.969 6.60048 122.969 12.0962ZM107.815 12.3006C107.815 15.7868 109.836 18.5198 113.076 18.5198C116.317 18.5198 118.313 15.8351 118.313 12.2294C118.313 8.81898 116.373 5.95514 113.072 5.95514C109.771 5.95514 107.815 8.77305 107.815 12.3006Z" fill="white"/>
<path d="M23.9399 12.2383H27.3364L22.1793 21.8587L18.7715 21.8036L23.9399 12.2383Z" fill="white"/>
<path d="M35.5315 12.3373L33.8639 15.5893L29.7559 7.72576L27.737 11.4899H24.3428L29.7763 1.43311L35.5315 12.3373Z" fill="white"/>
<path d="M40.5573 21.8592H37.1382L34.2832 16.3933L35.9531 13.1367L40.5573 21.8592Z" fill="white"/>
<path d="M40.5578 0V6.48327L39.0873 5.62205L30.5609 21.8589H28.8864L23.6523 12.769L23.9401 12.2385H27.3366L29.6093 16.9856L36.5269 4.12467L35.0156 3.24049L40.5578 0Z" fill="white"/>
<path d="M16.646 26.5415L14.6113 30.6179V32.8755H13.2473V30.6409L11.2646 26.5415H12.8213L13.8545 28.9391C13.8636 28.9621 13.8794 29.0149 13.9044 29.0976C13.9293 29.1803 13.961 29.2951 14.0018 29.4421H14.0154C14.0335 29.3387 14.0539 29.2469 14.0788 29.1688C14.1038 29.0907 14.1264 29.0195 14.1513 28.9575L15.205 26.5415H16.6483H16.646Z" fill="white"/>
<path d="M18.694 32.9906C17.9417 32.9906 17.3481 32.7725 16.9153 32.3361C16.4825 31.8998 16.2673 31.3141 16.2695 30.5792C16.2718 29.8099 16.4961 29.2105 16.9425 28.7764C17.3889 28.3446 17.9939 28.1265 18.762 28.1265C19.5301 28.1265 20.0988 28.3423 20.5271 28.7741C20.9553 29.2059 21.1683 29.78 21.1683 30.4988C21.1683 31.2613 20.9463 31.8676 20.5044 32.3154C20.0626 32.7633 19.4576 32.9883 18.694 32.9883V32.9906ZM18.7416 31.948C19.0951 31.948 19.3624 31.8286 19.5392 31.5897C19.7159 31.3509 19.8043 30.9972 19.8043 30.5264C19.8043 30.0556 19.7159 29.741 19.5369 29.5136C19.3579 29.2862 19.0905 29.1714 18.7325 29.1714C18.3745 29.1714 18.1117 29.2931 17.9168 29.5389C17.722 29.7823 17.6245 30.1245 17.6245 30.5631C17.6245 31.0018 17.7174 31.3692 17.9055 31.6012C18.0936 31.8332 18.37 31.9503 18.7393 31.9503L18.7416 31.948Z" fill="white"/>
<path d="M26.4387 32.8756H25.1086V32.1636H25.086C24.9138 32.4369 24.7121 32.6436 24.4787 32.7814C24.2453 32.9192 23.9802 32.9881 23.6834 32.9881C23.1509 32.9881 22.7544 32.8251 22.4893 32.5012C22.2242 32.1751 22.0928 31.6882 22.0928 31.036V28.2411H23.4228V30.9097C23.4228 31.2542 23.4885 31.5137 23.6222 31.6859C23.7559 31.8605 23.9576 31.9455 24.2272 31.9455C24.4968 31.9455 24.7076 31.8513 24.8684 31.6607C25.027 31.4701 25.1086 31.2129 25.1086 30.889V28.2388H26.4387V32.871V32.8756Z" fill="white"/>
<path d="M30.5128 29.3688C30.4539 29.355 30.395 29.3435 30.3338 29.3366C30.2726 29.3298 30.2069 29.3252 30.1344 29.3252C29.7718 29.3252 29.4977 29.4423 29.3141 29.6765C29.1306 29.9108 29.0377 30.2346 29.0377 30.6503V32.8757H27.7031V28.2435H29.0377V29.1093H29.0558C29.1623 28.7946 29.3187 28.5581 29.5226 28.3996C29.7265 28.2412 29.9735 28.1631 30.2635 28.1631C30.3338 28.1631 30.4017 28.1677 30.4652 28.1769C30.5286 28.1861 30.5989 28.1975 30.6669 28.2113L30.515 29.3688H30.5128Z" fill="white"/>
<path d="M38.2573 32.3244C38.2573 33.0984 38.024 33.7391 37.5549 34.2444C37.0859 34.7496 36.4061 35.0023 35.5111 35.0023C35.1803 35.0023 34.8722 34.9701 34.5889 34.9081C34.3057 34.8438 34.0225 34.7473 33.737 34.6141L34.138 33.6955C34.3714 33.8011 34.5935 33.8792 34.8087 33.9274C35.024 33.9757 35.2664 34.0009 35.5361 34.0009C35.9824 34.0009 36.3268 33.8677 36.5647 33.6013C36.8027 33.3349 36.9227 32.9813 36.9227 32.538V32.1981H36.9046C36.7437 32.4622 36.5444 32.662 36.3019 32.7952C36.0595 32.9284 35.7808 32.995 35.4681 32.995C34.8835 32.995 34.4213 32.786 34.0768 32.3681C33.7347 31.9501 33.5625 31.3943 33.5625 30.6984C33.5625 29.9153 33.7528 29.2906 34.1358 28.8267C34.5187 28.3628 35.0194 28.1309 35.6403 28.1309C35.9212 28.1309 36.1682 28.186 36.3812 28.2962C36.5942 28.4065 36.7687 28.5741 36.9046 28.7969H36.9227V28.2457H38.2573V32.3267V32.3244ZM36.9409 30.6686V30.2621C36.9409 29.9612 36.8502 29.704 36.6712 29.4904C36.49 29.2769 36.2589 29.1712 35.9734 29.1712C35.6448 29.1712 35.3865 29.2998 35.2007 29.5547C35.0126 29.812 34.9197 30.1725 34.9197 30.641C34.9197 31.0452 35.0081 31.3622 35.1871 31.5964C35.3661 31.8307 35.6086 31.9478 35.9167 31.9478C36.2249 31.9478 36.4718 31.8307 36.6599 31.5941C36.848 31.3576 36.9409 31.0498 36.9409 30.6663V30.6686Z" fill="white"/>
<path d="M43.7863 32.8756H42.4563V32.1636H42.4336C42.2614 32.4369 42.0598 32.6436 41.8264 32.7814C41.593 32.9192 41.3279 32.9881 41.0311 32.9881C40.4986 32.9881 40.1021 32.8251 39.837 32.5012C39.5718 32.1751 39.4404 31.6882 39.4404 31.036V28.2411H40.7705V30.9097C40.7705 31.2542 40.8362 31.5137 40.9699 31.6859C41.1036 31.8605 41.3052 31.9455 41.5749 31.9455C41.8445 31.9455 42.0552 31.8513 42.2161 31.6607C42.3747 31.4701 42.4563 31.2129 42.4563 30.889V28.2388H43.7863V32.871V32.8756Z" fill="white"/>
<path d="M45.7309 27.6188C45.4975 27.6188 45.3094 27.5476 45.1622 27.4052C45.0149 27.2628 44.9424 27.086 44.9424 26.8724C44.9424 26.6588 45.0149 26.4728 45.1622 26.3327C45.3094 26.1949 45.4975 26.126 45.7309 26.126C45.9643 26.126 46.1523 26.1949 46.2996 26.3327C46.4469 26.4705 46.5194 26.6496 46.5194 26.8724C46.5194 27.0951 46.4469 27.2697 46.2996 27.4098C46.1523 27.5499 45.9643 27.6188 45.7309 27.6188ZM46.3835 32.8756H45.0534V28.2434H46.3835V32.8756Z" fill="white"/>
<path d="M50.7764 32.221C50.6133 32.4737 50.4139 32.6666 50.176 32.7952C49.9381 32.9238 49.6594 32.9904 49.3444 32.9904C48.7757 32.9904 48.3157 32.786 47.9668 32.3749C47.6178 31.9638 47.4434 31.3943 47.4434 30.6639C47.4434 29.8946 47.636 29.2814 48.0212 28.8198C48.4063 28.3582 48.9094 28.1285 49.5302 28.1285C49.8225 28.1285 50.074 28.1836 50.2847 28.2916C50.4932 28.3995 50.6586 28.5649 50.7764 28.7853H50.7945V26.1787H52.1291V32.8756H50.7945V32.221H50.7764ZM48.7983 30.618C48.7983 31.0452 48.8867 31.3736 49.0634 31.6033C49.2402 31.8329 49.4872 31.9477 49.7998 31.9477C50.1125 31.9477 50.3459 31.8283 50.534 31.5872C50.722 31.346 50.8149 31.0314 50.8149 30.6387V30.2552C50.8149 29.9428 50.7243 29.6833 50.5453 29.4789C50.3663 29.2745 50.1307 29.1689 49.8429 29.1689C49.5143 29.1689 49.2583 29.2975 49.0748 29.5547C48.8912 29.8119 48.7983 30.1656 48.7983 30.618Z" fill="white"/>
<path d="M57.456 30.9373H54.4447C54.4674 31.2933 54.5829 31.5597 54.7891 31.7389C54.9953 31.918 55.2808 32.0053 55.6433 32.0053C55.777 32.0053 55.9583 31.9662 56.1894 31.8881C56.4205 31.81 56.6471 31.686 56.8669 31.5184L57.4469 32.3038C57.1365 32.5404 56.8193 32.7126 56.4976 32.8228C56.1758 32.9331 55.8201 32.9882 55.4303 32.9882C54.7007 32.9882 54.1343 32.7815 53.731 32.3658C53.3276 31.9501 53.126 31.3714 53.126 30.625C53.126 29.8786 53.339 29.2815 53.7672 28.8176C54.1932 28.356 54.7347 28.124 55.3873 28.124C56.0399 28.124 56.5247 28.3192 56.8963 28.7074C57.2679 29.0955 57.456 29.6558 57.456 30.3862V30.9328V30.9373ZM56.2189 30.0899C56.2189 29.7247 56.1486 29.4606 56.0059 29.2976C55.8631 29.1345 55.6547 29.0518 55.3782 29.0518C55.138 29.0518 54.9296 29.146 54.7574 29.332C54.5852 29.5181 54.4787 29.7707 54.4424 30.0899H56.2211H56.2189Z" fill="white"/>
<path d="M63.6401 32.8001C63.4996 32.8621 63.3455 32.908 63.1756 32.9401C63.0056 32.97 62.8312 32.9861 62.6544 32.9861C62.1673 32.9861 61.7979 32.8644 61.5487 32.6232C61.2995 32.3821 61.1771 32.0215 61.1771 31.5461V29.2403H60.4316V28.2413H61.1771V27.1987L62.5072 26.8105V28.2413H63.5494V29.2403H62.5072V31.4542C62.5072 31.6426 62.5434 31.7804 62.6159 31.8653C62.6884 31.9503 62.7994 31.9939 62.9513 31.9939C63.0306 31.9939 63.1031 31.9848 63.1733 31.9664C63.2436 31.948 63.3093 31.9205 63.3727 31.8883L63.6378 32.8023L63.6401 32.8001Z" fill="white"/>
<path d="M66.5895 32.9906C65.8372 32.9906 65.2436 32.7725 64.8108 32.3361C64.378 31.8998 64.1628 31.3141 64.1651 30.5792C64.1673 29.8099 64.3916 29.2105 64.838 28.7764C65.2844 28.3446 65.8894 28.1265 66.6575 28.1265C67.4256 28.1265 67.9943 28.3423 68.4226 28.7741C68.8508 29.2059 69.0638 29.78 69.0638 30.4988C69.0638 31.2613 68.8418 31.8676 68.3999 32.3154C67.9558 32.7656 67.3531 32.9883 66.5895 32.9883V32.9906ZM66.6371 31.948C66.9906 31.948 67.2579 31.8286 67.4347 31.5897C67.6114 31.3509 67.6998 30.9972 67.6998 30.5264C67.6998 30.0556 67.6114 29.741 67.4324 29.5136C67.2534 29.2862 66.986 29.1714 66.628 29.1714C66.27 29.1714 66.0072 29.2931 65.8123 29.5389C65.6175 29.7823 65.52 30.1245 65.52 30.5631C65.52 31.0018 65.6129 31.3692 65.801 31.6012C65.9891 31.8332 66.2655 31.9503 66.6348 31.9503L66.6371 31.948Z" fill="white"/>
<path d="M75.3178 32.8001C75.1773 32.8621 75.0233 32.908 74.8533 32.9401C74.6834 32.97 74.5089 32.9861 74.3322 32.9861C73.845 32.9861 73.4757 32.8644 73.2264 32.6232C72.9772 32.3821 72.8548 32.0215 72.8548 31.5461V29.2403H72.1094V28.2413H72.8548V27.1987L74.1849 26.8105V28.2413H75.2272V29.2403H74.1849V31.4542C74.1849 31.6426 74.2211 31.7804 74.2936 31.8653C74.3662 31.9503 74.4772 31.9939 74.629 31.9939C74.7083 31.9939 74.7808 31.9848 74.8511 31.9664C74.9213 31.948 74.987 31.9205 75.0504 31.8883L75.3155 32.8023L75.3178 32.8001Z" fill="white"/>
<path d="M80.4339 32.8757H79.1038V30.2392C79.1038 29.881 79.0404 29.6123 78.9113 29.4354C78.7844 29.2586 78.5895 29.1713 78.3312 29.1713C78.0729 29.1713 77.8554 29.2701 77.69 29.4699C77.5246 29.6697 77.4407 29.9246 77.4407 30.2369V32.878H76.1084V26.1812H77.4407V28.9417H77.4588C77.631 28.6684 77.835 28.464 78.0706 28.3308C78.3063 28.1976 78.5759 28.1287 78.875 28.1287C79.3939 28.1287 79.7836 28.2871 80.0419 28.6063C80.3002 28.9233 80.4294 29.401 80.4294 30.0325V32.878L80.4339 32.8757Z" fill="white"/>
<path d="M85.6914 30.9373H82.6801C82.7027 31.2933 82.8183 31.5597 83.0245 31.7389C83.2307 31.918 83.5162 32.0053 83.8787 32.0053C84.0124 32.0053 84.1936 31.9662 84.4248 31.8881C84.6559 31.81 84.8825 31.686 85.1022 31.5184L85.6823 32.3038C85.3719 32.5404 85.0547 32.7126 84.7329 32.8228C84.4112 32.9331 84.0554 32.9882 83.6657 32.9882C82.9361 32.9882 82.3696 32.7815 81.9663 32.3658C81.563 31.9501 81.3613 31.3714 81.3613 30.625C81.3613 29.8786 81.5743 29.2815 82.0026 28.8176C82.4285 28.356 82.9701 28.124 83.6226 28.124C84.2752 28.124 84.7601 28.3192 85.1317 28.7074C85.5033 29.0955 85.6914 29.6558 85.6914 30.3862V30.9328V30.9373ZM84.4542 30.0899C84.4542 29.7247 84.384 29.4606 84.2412 29.2976C84.0985 29.1345 83.89 29.0518 83.6136 29.0518C83.3734 29.0518 83.1649 29.146 82.9927 29.332C82.8205 29.5181 82.714 29.7707 82.6778 30.0899H84.4565H84.4542Z" fill="white"/>
<path d="M95.6173 28.2435L94.2918 32.8757H92.8938L92.1914 30.0877C92.1642 30.0004 92.1461 29.9085 92.1347 29.8144C92.1234 29.7202 92.1166 29.6215 92.1121 29.5181H92.0849C92.0758 29.6306 92.0645 29.7317 92.0486 29.8236C92.0328 29.9154 92.0146 29.9981 91.9942 30.0716L91.2397 32.8757H89.8575L88.5547 28.2435H89.9142L90.5849 31.3186C90.5985 31.3898 90.6121 31.4656 90.6234 31.5483C90.6347 31.631 90.6438 31.7228 90.6506 31.8262H90.6778C90.6869 31.7251 90.6982 31.631 90.7118 31.5437C90.7254 31.4564 90.7412 31.3761 90.7594 31.3049L91.5751 28.2435H92.8394L93.5758 31.3209C93.5849 31.3554 93.5939 31.4174 93.603 31.507C93.6121 31.5965 93.6234 31.7045 93.6347 31.8331H93.6687C93.6778 31.7481 93.6868 31.6631 93.6959 31.5759C93.705 31.4909 93.7208 31.4059 93.7367 31.3186L94.3689 28.2412H95.6105L95.6173 28.2435Z" fill="white"/>
<path d="M98.5251 32.9906C97.7728 32.9906 97.1791 32.7725 96.7464 32.3361C96.3136 31.8998 96.0983 31.3141 96.1006 30.5792C96.1029 29.8099 96.3272 29.2105 96.7736 28.7764C97.2199 28.3446 97.8249 28.1265 98.593 28.1265C99.3612 28.1265 99.9299 28.3423 100.358 28.7741C100.786 29.2059 100.999 29.78 100.999 30.4988C100.999 31.2613 100.777 31.8676 100.335 32.3154C99.8914 32.7656 99.2886 32.9883 98.5251 32.9883V32.9906ZM98.5726 31.948C98.9261 31.948 99.1935 31.8286 99.3702 31.5897C99.547 31.3509 99.6353 30.9972 99.6353 30.5264C99.6353 30.0556 99.547 29.741 99.368 29.5136C99.1889 29.2862 98.9216 29.1714 98.5636 29.1714C98.2056 29.1714 97.9427 29.2931 97.7479 29.5389C97.553 29.7823 97.4556 30.1245 97.4556 30.5631C97.4556 31.0018 97.5485 31.3692 97.7365 31.6012C97.9246 31.8332 98.201 31.9503 98.5704 31.9503L98.5726 31.948Z" fill="white"/>
<path d="M104.804 29.3688C104.745 29.355 104.686 29.3435 104.625 29.3366C104.564 29.3298 104.498 29.3252 104.425 29.3252C104.063 29.3252 103.789 29.4423 103.603 29.6765C103.419 29.9108 103.326 30.2346 103.326 30.6503V32.8757H101.994V28.2435H103.326V29.1093H103.345C103.451 28.7946 103.607 28.5581 103.811 28.3996C104.015 28.2412 104.262 28.1631 104.552 28.1631C104.623 28.1631 104.691 28.1677 104.754 28.1769C104.82 28.1861 104.888 28.1975 104.956 28.2113L104.804 29.3688Z" fill="white"/>
<path d="M105.657 32.8756V26.1787H106.99V32.8756H105.657Z" fill="white"/>
<path d="M111.322 32.221C111.159 32.4737 110.96 32.6666 110.722 32.7952C110.484 32.9238 110.205 32.9904 109.89 32.9904C109.322 32.9904 108.862 32.786 108.513 32.3749C108.164 31.9638 107.989 31.3943 107.989 30.6639C107.989 29.8946 108.182 29.2814 108.567 28.8198C108.952 28.3582 109.455 28.1285 110.076 28.1285C110.368 28.1285 110.62 28.1836 110.831 28.2916C111.039 28.3995 111.204 28.5649 111.322 28.7853H111.34V26.1787H112.673V32.8756H111.34V32.221H111.322ZM109.344 30.618C109.344 31.0452 109.433 31.3736 109.609 31.6033C109.786 31.8329 110.033 31.9477 110.346 31.9477C110.658 31.9477 110.892 31.8283 111.08 31.5872C111.268 31.346 111.361 31.0314 111.361 30.6387V30.2552C111.361 29.9428 111.27 29.6833 111.091 29.4789C110.912 29.2745 110.677 29.1689 110.389 29.1689C110.06 29.1689 109.804 29.2975 109.621 29.5547C109.437 29.8119 109.344 30.1656 109.344 30.618Z" fill="white"/>
</g>
<defs>
<clipPath id="clip0_5309_9925">
<rect width="122" height="35" fill="white" transform="translate(0.96875)"/>
</clipPath>
</defs>
</svg>
