<svg width="23" height="21" viewBox="0 0 23 21" fill="none" xmlns="http://www.w3.org/2000/svg">
<path d="M21.584 9C21.584 6.19974 21.584 4.79961 21.039 3.73005C20.5596 2.78924 19.7947 2.02433 18.8539 1.54497C17.7844 1 16.3842 1 13.584 1H9.58398C6.78372 1 5.38359 1 4.31403 1.54497C3.37322 2.02433 2.60832 2.78924 2.12895 3.73005C1.58398 4.79961 1.58398 6.19974 1.58398 9V13.2283C1.58398 15.3114 3.27261 17 5.35564 17H5.9574C6.73649 17 7.26923 17.7869 6.97988 18.5103C6.57141 19.5314 7.74748 20.4546 8.64246 19.8154L11.2532 17.9506C11.2798 17.9315 11.2931 17.922 11.3062 17.9128C12.1402 17.3251 13.1341 17.0066 14.1543 17.0001C14.1703 17 14.1867 17 14.2194 17H14.7682C16.4573 17 17.3019 17 17.9908 16.798C19.6249 16.3188 20.9028 15.041 21.382 13.4069C21.584 12.7179 21.584 11.8734 21.584 10.1842V9Z" stroke="#52A5FF" stroke-width="1.5"/>
<path d="M8.58398 9C8.58398 9.55228 8.13627 10 7.58398 10C7.0317 10 6.58398 9.55228 6.58398 9C6.58398 8.44772 7.0317 8 7.58398 8C8.13627 8 8.58398 8.44772 8.58398 9Z" fill="#52A5FF"/>
<path d="M12.584 9C12.584 9.55228 12.1363 10 11.584 10C11.0317 10 10.584 9.55228 10.584 9C10.584 8.44772 11.0317 8 11.584 8C12.1363 8 12.584 8.44772 12.584 9Z" fill="#52A5FF"/>
<path d="M16.584 9C16.584 9.55228 16.1363 10 15.584 10C15.0317 10 14.584 9.55228 14.584 9C14.584 8.44772 15.0317 8 15.584 8C16.1363 8 16.584 8.44772 16.584 9Z" fill="#52A5FF"/>
</svg>
