<svg width="24" height="26" viewBox="0 0 24 26" fill="none" xmlns="http://www.w3.org/2000/svg">
<path d="M19.3743 8.33333C19.3743 6.38841 18.6017 4.52315 17.2265 3.14788C15.8512 1.77262 13.9859 1 12.041 1C10.0961 1 8.23083 1.77262 6.85557 3.14788C5.4803 4.52315 4.70768 6.38841 4.70768 8.33333C4.70768 16.8889 1.04102 19.3333 1.04102 19.3333H23.041C23.041 19.3333 19.3743 16.8889 19.3743 8.33333Z" fill="white" stroke="white" stroke-width="1.5" stroke-linecap="round" stroke-linejoin="round"/>
<path d="M14.1556 23.1748C13.9408 23.5452 13.6323 23.8527 13.2613 24.0665C12.8902 24.2802 12.4694 24.3927 12.0412 24.3927C11.613 24.3927 11.1922 24.2802 10.8211 24.0665C10.4501 23.8527 10.1416 23.5452 9.92676 23.1748" fill="white"/>
<path d="M14.1556 23.1748C13.9408 23.5452 13.6323 23.8527 13.2613 24.0665C12.8902 24.2802 12.4694 24.3927 12.0412 24.3927C11.613 24.3927 11.1922 24.2802 10.8211 24.0665C10.4501 23.8527 10.1416 23.5452 9.92676 23.1748" stroke="white" stroke-width="2" stroke-linecap="round" stroke-linejoin="round"/>
</svg>
