<svg width="25" height="26" viewBox="0 0 25 26" fill="none" xmlns="http://www.w3.org/2000/svg">
<path d="M19.6439 8.33333C19.6439 6.38841 18.8713 4.52315 17.496 3.14788C16.1207 1.77262 14.2555 1 12.3105 1C10.3656 1 8.50036 1.77262 7.1251 3.14788C5.74983 4.52315 4.97721 6.38841 4.97721 8.33333C4.97721 16.8889 1.31055 19.3333 1.31055 19.3333H23.3105C23.3105 19.3333 19.6439 16.8889 19.6439 8.33333Z" fill="#52A5FF" stroke="#52A5FF" stroke-width="1.5" stroke-linecap="round" stroke-linejoin="round"/>
<path d="M14.4252 23.1748C14.2103 23.5452 13.9019 23.8527 13.5308 24.0665C13.1597 24.2802 12.739 24.3927 12.3107 24.3927C11.8825 24.3927 11.4618 24.2802 11.0907 24.0665C10.7196 23.8527 10.4112 23.5452 10.1963 23.1748" fill="#52A5FF"/>
<path d="M14.4252 23.1748C14.2103 23.5452 13.9019 23.8527 13.5308 24.0665C13.1597 24.2802 12.739 24.3927 12.3107 24.3927C11.8825 24.3927 11.4618 24.2802 11.0907 24.0665C10.7196 23.8527 10.4112 23.5452 10.1963 23.1748" stroke="#52A5FF" stroke-width="2" stroke-linecap="round" stroke-linejoin="round"/>
</svg>
