<svg width="109" height="33" viewBox="0 0 109 33" fill="none" xmlns="http://www.w3.org/2000/svg">
<path d="M1.0088 22.8935C-0.138356 26.0543 5.72137 26.0675 8.31386 27.4514C12.6779 29.7798 18.0545 30.9746 23.7445 31.7181C35.7548 33.2918 48.4342 32.978 61.8567 30.2752C71.4369 28.3453 80.6104 25.1234 88.9228 19.8886C96.1874 15.3131 102.172 10.0548 106.649 4.07148C107.111 3.45288 107.49 2.81298 107.83 2.17625C108.036 1.78744 108.198 1.35822 108.175 0.996496C108.152 0.651951 108.136 0.134735 107.7 0.0625268C107.263 -0.00967941 106.649 0.448953 106.257 0.735144C105.755 1.10215 105.373 1.55809 104.973 1.98923C102.919 4.21006 100.927 6.45754 98.8164 8.65675C92.6873 15.0445 84.8253 19.7373 75.4923 22.9912C67.1256 25.9102 58.7596 27.627 50.405 28.2963C40.286 29.1071 30.6601 28.9006 21.8679 26.905C16.3989 25.6638 7.85011 20.9384 7.85011 20.9384C7.85011 20.9384 7.48582 20.661 7.23068 20.5184C4.96026 19.2498 1.89609 20.4488 1.0088 22.8935Z" fill="#D46B8D"/>
</svg>
