<svg width="70" height="70" viewBox="0 0 70 70" fill="none" xmlns="http://www.w3.org/2000/svg">
<g clip-path="url(#clip0_1524_3449)">
<path d="M61.8624 46.3458C60.0068 50.7339 57.1047 54.6006 53.4095 57.6079C49.7144 60.6153 45.3388 62.6716 40.6653 63.5973C35.9918 64.5229 31.1628 64.2896 26.6003 62.9177C22.0378 61.5459 17.8809 59.0773 14.4928 55.7277C11.1048 52.3782 8.58891 48.2497 7.16506 43.7032C5.7412 39.1567 5.45276 34.3306 6.32495 29.6468C7.19714 24.9631 9.2034 20.5643 12.1683 16.8351C15.1333 13.1058 18.9666 10.1597 23.3332 8.25415" stroke="#12141D" stroke-width="3" stroke-linecap="round" stroke-linejoin="round"/>
<path d="M64.1667 35C64.1667 31.1698 63.4122 27.3771 61.9465 23.8384C60.4807 20.2998 58.3323 17.0845 55.6239 14.3761C52.9156 11.6677 49.7003 9.51932 46.1616 8.05355C42.6229 6.58779 38.8302 5.83337 35 5.83337V35H64.1667Z" stroke="#0C9466" stroke-width="3" stroke-linecap="round" stroke-linejoin="round"/>
</g>
<defs>
<clipPath id="clip0_1524_3449">
<rect width="70" height="70" fill="white"/>
</clipPath>
</defs>
</svg>
