<svg width="17" height="21" viewBox="0 0 17 21" fill="none" xmlns="http://www.w3.org/2000/svg">
<path d="M11.834 5C11.834 6.79493 10.3789 8.25 8.58398 8.25V9.75C11.2073 9.75 13.334 7.62335 13.334 5H11.834ZM8.58398 8.25C6.78906 8.25 5.33398 6.79493 5.33398 5H3.83398C3.83398 7.62335 5.96063 9.75 8.58398 9.75V8.25ZM5.33398 5C5.33398 3.20507 6.78906 1.75 8.58398 1.75V0.25C5.96063 0.25 3.83398 2.37665 3.83398 5H5.33398ZM8.58398 1.75C10.3789 1.75 11.834 3.20507 11.834 5H13.334C13.334 2.37665 11.2073 0.25 8.58398 0.25V1.75ZM5.58398 12.75H11.584V11.25H5.58398V12.75ZM11.584 19.25H5.58398V20.75H11.584V19.25ZM5.58398 19.25C3.78906 19.25 2.33398 17.7949 2.33398 16H0.833984C0.833984 18.6234 2.96063 20.75 5.58398 20.75V19.25ZM14.834 16C14.834 17.7949 13.3789 19.25 11.584 19.25V20.75C14.2073 20.75 16.334 18.6234 16.334 16H14.834ZM11.584 12.75C13.3789 12.75 14.834 14.2051 14.834 16H16.334C16.334 13.3766 14.2073 11.25 11.584 11.25V12.75ZM5.58398 11.25C2.96063 11.25 0.833984 13.3766 0.833984 16H2.33398C2.33398 14.2051 3.78906 12.75 5.58398 12.75V11.25Z" fill="#52A5FF"/>
</svg>
