<svg width="25" height="24" viewBox="0 0 25 24" fill="none" xmlns="http://www.w3.org/2000/svg">
<path d="M22.4277 22L20.4277 20M11.9277 21C13.1753 21 14.4106 20.7543 15.5632 20.2769C16.7158 19.7994 17.7631 19.0997 18.6452 18.2175C19.5274 17.3354 20.2272 16.2881 20.7046 15.1355C21.182 13.9829 21.4277 12.7476 21.4277 11.5C21.4277 10.2524 21.182 9.0171 20.7046 7.86451C20.2272 6.71191 19.5274 5.66464 18.6452 4.78249C17.7631 3.90033 16.7158 3.20056 15.5632 2.72314C14.4106 2.24572 13.1753 2 11.9277 2C9.40818 2 6.99182 3.00089 5.21022 4.78249C3.42862 6.56408 2.42773 8.98044 2.42773 11.5C2.42773 14.0196 3.42862 16.4359 5.21022 18.2175C6.99182 19.9991 9.40818 21 11.9277 21V21Z" stroke="#52A5FF" stroke-width="2" stroke-linecap="round" stroke-linejoin="round"/>
</svg>
