<svg width="21" height="19" viewBox="0 0 21 19" fill="none" xmlns="http://www.w3.org/2000/svg">
<path fill-rule="evenodd" clip-rule="evenodd" d="M11.6882 1.67701L13.5157 5.32776C13.6947 5.68616 14.0404 5.93467 14.4413 5.99218L18.5293 6.58062C19.5393 6.72644 19.9413 7.95055 19.2103 8.65194L16.2542 11.4924C15.9637 11.7718 15.8314 12.1733 15.9001 12.5676L16.5978 16.5778C16.7696 17.5698 15.7138 18.3267 14.811 17.8574L11.1572 15.9627C10.799 15.7768 10.37 15.7768 10.0108 15.9627L6.35699 17.8574C5.45422 18.3267 4.39838 17.5698 4.57123 16.5778L5.26783 12.5676C5.33655 12.1733 5.20431 11.7718 4.9138 11.4924L1.95766 8.65194C1.2267 7.95055 1.62863 6.72644 2.63865 6.58062L6.72664 5.99218C7.12752 5.93467 7.47426 5.68616 7.65336 5.32776L9.47973 1.67701C9.93163 0.774331 11.2363 0.774331 11.6882 1.67701Z" stroke="#52A5FF" stroke-width="1.5" stroke-linecap="round" stroke-linejoin="round"/>
</svg>
