<svg width="21" height="22" viewBox="0 0 21 22" fill="none" xmlns="http://www.w3.org/2000/svg">
<path d="M3.64506 20.0451L4.0859 19.4383L3.64506 20.0451ZM2.5389 18.9389L3.14566 18.4981L2.5389 18.9389ZM18.6291 18.9389L18.0223 18.4981L18.6291 18.9389ZM17.5229 20.0451L17.0821 19.4383L17.5229 20.0451ZM17.5229 1.95491L17.9637 1.34815L17.5229 1.95491ZM18.6291 3.06107L18.0223 3.50191L18.6291 3.06107ZM3.64506 1.95491L4.0859 2.56168L3.64506 1.95491ZM2.5389 3.06107L3.14566 3.50191L2.5389 3.06107ZM11.7301 5.59531L11.8475 6.33608L11.7301 5.59531ZM10.1658 5.59531L10.0485 6.33608L10.1658 5.59531ZM6.58398 16.25C6.16977 16.25 5.83398 16.5858 5.83398 17C5.83398 17.4142 6.16977 17.75 6.58398 17.75V16.25ZM14.584 17.75C14.9982 17.75 15.334 17.4142 15.334 17C15.334 16.5858 14.9982 16.25 14.584 16.25V17.75ZM6.58398 12.25C6.16977 12.25 5.83398 12.5858 5.83398 13C5.83398 13.4142 6.16977 13.75 6.58398 13.75V12.25ZM14.584 13.75C14.9982 13.75 15.334 13.4142 15.334 13C15.334 12.5858 14.9982 12.25 14.584 12.25V13.75ZM6.58398 8.25C6.16977 8.25 5.83398 8.58579 5.83398 9C5.83398 9.41421 6.16977 9.75 6.58398 9.75V8.25ZM14.584 9.75C14.9982 9.75 15.334 9.41421 15.334 9C15.334 8.58579 14.9982 8.25 14.584 8.25V9.75ZM18.834 10V12H20.334V10H18.834ZM2.33398 12V10H0.833984V12H2.33398ZM10.584 20.25C8.69241 20.25 7.33398 20.249 6.28203 20.135C5.24412 20.0225 4.5939 19.8074 4.0859 19.4383L3.20422 20.6518C4.01054 21.2377 4.95492 21.5 6.12046 21.6263C7.27196 21.751 8.72582 21.75 10.584 21.75V20.25ZM0.833984 12C0.833984 13.8582 0.832955 15.312 0.957712 16.4635C1.08399 17.6291 1.34631 18.5734 1.93214 19.3798L3.14566 18.4981C2.77658 17.9901 2.56144 17.3399 2.44899 16.302C2.33501 15.25 2.33398 13.8916 2.33398 12H0.833984ZM4.0859 19.4383C3.72509 19.1762 3.4078 18.8589 3.14566 18.4981L1.93214 19.3798C2.28679 19.8679 2.71607 20.2972 3.20422 20.6518L4.0859 19.4383ZM18.834 12C18.834 13.8916 18.833 15.25 18.719 16.302C18.6065 17.3399 18.3914 17.9901 18.0223 18.4981L19.2358 19.3798C19.8217 18.5734 20.084 17.6291 20.2103 16.4635C20.335 15.312 20.334 13.8582 20.334 12H18.834ZM10.584 21.75C12.4421 21.75 13.896 21.751 15.0475 21.6263C16.213 21.5 17.1574 21.2377 17.9637 20.6518L17.0821 19.4383C16.5741 19.8074 15.9239 20.0225 14.8859 20.135C13.834 20.249 12.4756 20.25 10.584 20.25V21.75ZM18.0223 18.4981C17.7602 18.8589 17.4429 19.1762 17.0821 19.4383L17.9637 20.6518C18.4519 20.2972 18.8812 19.8679 19.2358 19.3798L18.0223 18.4981ZM20.334 10C20.334 8.14184 20.335 6.68798 20.2103 5.53648C20.084 4.37094 19.8217 3.42656 19.2358 2.62023L18.0223 3.50191C18.3914 4.00992 18.6065 4.66013 18.719 5.69804C18.833 6.74999 18.834 8.10843 18.834 10H20.334ZM17.0821 2.56168C17.4429 2.82382 17.7602 3.14111 18.0223 3.50191L19.2358 2.62023C18.8812 2.13209 18.4519 1.70281 17.9637 1.34815L17.0821 2.56168ZM2.33398 10C2.33398 8.10843 2.33501 6.74999 2.44899 5.69804C2.56144 4.66013 2.77658 4.00992 3.14566 3.50191L1.93214 2.62023C1.34631 3.42656 1.08399 4.37094 0.957712 5.53648C0.832955 6.68798 0.833984 8.14184 0.833984 10H2.33398ZM3.20422 1.34815C2.71607 1.70281 2.28679 2.13209 1.93214 2.62023L3.14566 3.50191C3.4078 3.14111 3.72509 2.82382 4.0859 2.56168L3.20422 1.34815ZM11.6128 4.85454C11.1723 4.92431 10.7236 4.92431 10.2831 4.85454L10.0485 6.33608C10.6444 6.43047 11.2515 6.43047 11.8475 6.33608L11.6128 4.85454ZM16.4943 1.12083C15.2541 2.36015 14.3503 3.25006 13.5696 3.8649C12.8001 4.47095 12.2102 4.75993 11.6128 4.85454L11.8475 6.33608C12.7956 6.1859 13.6219 5.73301 14.4977 5.04333C15.3622 4.36245 16.3328 3.40277 17.5546 2.18187L16.4943 1.12083ZM10.584 1.75C12.2457 1.75 13.4989 1.75053 14.4989 1.82911C15.4964 1.9075 16.1684 2.05963 16.6868 2.32103L17.3622 0.981678C16.5888 0.591725 15.691 0.418172 14.6164 0.333724C13.5443 0.249471 12.223 0.25 10.584 0.25V1.75ZM16.6868 2.32103C16.8271 2.3918 16.958 2.4715 17.0821 2.56168L17.9637 1.34815C17.7731 1.20967 17.5732 1.08809 17.3622 0.981678L16.6868 2.32103ZM4.12589 1.96653C5.41644 3.25703 6.42943 4.26842 7.3224 4.98311C8.22642 5.70666 9.07303 6.18158 10.0485 6.33608L10.2831 4.85454C9.66857 4.75721 9.06212 4.45425 8.2597 3.81202C7.44623 3.16095 6.49942 2.21868 5.18652 0.905846L4.12589 1.96653ZM10.584 0.25C9.14769 0.25 7.95768 0.249733 6.96882 0.305723C5.9807 0.361672 5.14031 0.47576 4.41158 0.727205L4.90083 2.14517C5.43625 1.96043 6.11585 1.85642 7.05362 1.80332C7.99066 1.75027 9.13246 1.75 10.584 1.75V0.25ZM4.41158 0.727205C3.97097 0.879231 3.57188 1.08103 3.20422 1.34815L4.0859 2.56168C4.32246 2.3898 4.58682 2.25352 4.90083 2.14517L4.41158 0.727205ZM6.58398 17.75H14.584V16.25H6.58398V17.75ZM6.58398 13.75H14.584V12.25H6.58398V13.75ZM6.58398 9.75H14.584V8.25H6.58398V9.75Z" fill="#52A5FF"/>
</svg>
