<svg width="17" height="14" viewBox="0 0 17 14" fill="none" xmlns="http://www.w3.org/2000/svg">
<path d="M14.9336 4.02222C15.5586 3.55347 16.1211 2.99097 16.5586 2.33472C15.9961 2.58472 15.3398 2.77222 14.6836 2.83472C15.3711 2.42847 15.8711 1.80347 16.1211 1.02222C15.4961 1.39722 14.7773 1.67847 14.0586 1.83472C13.4336 1.17847 12.5898 0.803467 11.6523 0.803467C9.83984 0.803467 8.37109 2.27222 8.37109 4.08472C8.37109 4.33472 8.40234 4.58472 8.46484 4.83472C5.74609 4.67847 3.30859 3.36597 1.68359 1.39722C1.40234 1.86597 1.24609 2.42847 1.24609 3.05347C1.24609 4.17847 1.80859 5.17847 2.71484 5.77222C2.18359 5.74097 1.65234 5.61597 1.21484 5.36597V5.39722C1.21484 6.99097 2.33984 8.30347 3.83984 8.61597C3.58984 8.67847 3.27734 8.74097 2.99609 8.74097C2.77734 8.74097 2.58984 8.70972 2.37109 8.67847C2.77734 9.99097 3.99609 10.9285 5.43359 10.9597C4.30859 11.8347 2.90234 12.366 1.37109 12.366C1.08984 12.366 0.839844 12.3347 0.589844 12.3035C2.02734 13.241 3.74609 13.7722 5.62109 13.7722C11.6523 13.7722 14.9336 8.80347 14.9336 4.45972C14.9336 4.30347 14.9336 4.17847 14.9336 4.02222Z" fill="#D3D6D8"/>
</svg>
